<ttFont>
    <TTGlyph name="A" xMin="-49" yMin="-1" xMax="1753" yMax="1575">
      <contour>
        <pt x="521" y="611" on="1"/>
        <pt x="742" y="441" on="0"/>
        <pt x="768" y="415" on="1"/>
        <pt x="804" y="378" on="1"/>
        <pt x="835" y="349" on="0"/>
        <pt x="877" y="349" on="0"/>
        <pt x="909" y="370" on="0"/>
        <pt x="954" y="417" on="0"/>
        <pt x="982" y="440" on="1"/>
        <pt x="1205" y="612" on="1"/>
        <pt x="932" y="1201" on="1"/>
        <pt x="905" y="1260" on="0"/>
        <pt x="874" y="1320" on="0"/>
        <pt x="849" y="1320" on="0"/>
        <pt x="824" y="1277" on="0"/>
        <pt x="804" y="1232" on="1"/>
      </contour>
      <contour>
        <pt x="177" y="8" on="1"/>
        <pt x="29" y="0" on="1"/>
        <pt x="-49" y="0" on="0"/>
        <pt x="-49" y="63" on="1"/>
        <pt x="-49" y="104" on="0"/>
        <pt x="16" y="154" on="1"/>
        <pt x="132" y="246" on="0"/>
        <pt x="232" y="440" on="1"/>
        <pt x="580" y="1140" on="1"/>
        <pt x="704" y="1403" on="1"/>
        <pt x="748" y="1500" on="0"/>
        <pt x="811" y="1575" on="0"/>
        <pt x="909" y="1575" on="0"/>
        <pt x="976" y="1509" on="0"/>
        <pt x="1023" y="1408" on="1"/>
        <pt x="1242" y="940" on="1"/>
        <pt x="1523" y="382" on="0"/>
        <pt x="1541" y="349" on="1"/>
        <pt x="1578" y="282" on="1"/>
        <pt x="1622" y="205" on="0"/>
        <pt x="1656" y="173" on="0"/>
        <pt x="1674" y="162" on="1"/>
        <pt x="1753" y="115" on="0"/>
        <pt x="1753" y="78" on="1"/>
        <pt x="1753" y="0" on="0"/>
        <pt x="1675" y="0" on="1"/>
        <pt x="1524" y="7" on="1"/>
        <pt x="1321" y="0" on="1"/>
        <pt x="1270" y="0" on="0"/>
        <pt x="1212" y="40" on="0"/>
        <pt x="1212" y="80" on="1"/>
        <pt x="1212" y="162" on="0"/>
        <pt x="1394" y="162" on="1"/>
        <pt x="1405" y="162" on="0"/>
        <pt x="1427" y="162" on="0"/>
        <pt x="1438" y="163" on="1"/>
        <pt x="1411" y="202" on="0"/>
        <pt x="1382" y="262" on="1"/>
        <pt x="1280" y="470" on="1"/>
        <pt x="1092" y="324" on="1"/>
        <pt x="1000" y="253" on="0"/>
        <pt x="910" y="144" on="0"/>
        <pt x="836" y="144" on="0"/>
        <pt x="793" y="180" on="0"/>
        <pt x="776" y="200" on="1"/>
        <pt x="734" y="248" on="1"/>
        <pt x="716" y="269" on="0"/>
        <pt x="686" y="293" on="1"/>
        <pt x="532" y="408" on="1"/>
        <pt x="485" y="442" on="0"/>
        <pt x="436" y="481" on="1"/>
        <pt x="289" y="157" on="1"/>
        <pt x="319" y="157" on="1"/>
        <pt x="417" y="157" on="0"/>
        <pt x="505" y="122" on="0"/>
        <pt x="505" y="73" on="1"/>
        <pt x="505" y="-1" on="0"/>
        <pt x="403" y="-1" on="1"/>
      </contour>
    </TTGlyph>
    <TTGlyph name="AE" xMin="-20" yMin="-139" xMax="2121" yMax="1673">
      <contour>
        <pt x="723" y="711" on="1"/>
        <pt x="910" y="550" on="0"/>
        <pt x="943" y="508" on="0"/>
        <pt x="972" y="508" on="0"/>
        <pt x="1046" y="560" on="0"/>
        <pt x="1086" y="586" on="1"/>
        <pt x="1167" y="636" on="1"/>
        <pt x="1167" y="1354" on="1"/>
      </contour>
      <contour>
        <pt x="2048" y="377" on="1"/>
        <pt x="2119" y="377" on="0"/>
        <pt x="2119" y="303" on="1"/>
        <pt x="2119" y="267" on="0"/>
        <pt x="2042" y="170" on="0"/>
        <pt x="1981" y="19" on="0"/>
        <pt x="1966" y="-56" on="0"/>
        <pt x="1958" y="-84" on="1"/>
        <pt x="1942" y="-139" on="0"/>
        <pt x="1888" y="-139" on="1"/>
        <pt x="1853" y="-139" on="0"/>
        <pt x="1806" y="-87" on="0"/>
        <pt x="1806" y="-42" on="1"/>
        <pt x="1806" y="-38" on="0"/>
        <pt x="1806" y="-30" on="0"/>
        <pt x="1807" y="-25" on="1"/>
        <pt x="1649" y="0" on="0"/>
        <pt x="1357" y="0" on="1"/>
        <pt x="1319" y="0" on="0"/>
        <pt x="1276" y="-3" on="1"/>
        <pt x="1165" y="-11" on="1"/>
        <pt x="1107" y="-16" on="0"/>
        <pt x="1070" y="-16" on="1"/>
        <pt x="982" y="-16" on="0"/>
        <pt x="982" y="66" on="1"/>
        <pt x="982" y="123" on="0"/>
        <pt x="1076" y="144" on="1"/>
        <pt x="1108" y="151" on="0"/>
        <pt x="1153" y="151" on="1"/>
        <pt x="1167" y="151" on="1"/>
        <pt x="1167" y="457" on="1"/>
        <pt x="1094" y="411" on="0"/>
        <pt x="1007" y="338" on="0"/>
        <pt x="969" y="313" on="0"/>
        <pt x="923" y="313" on="0"/>
        <pt x="886" y="349" on="0"/>
        <pt x="858" y="374" on="1"/>
        <pt x="624" y="575" on="1"/>
        <pt x="321" y="157" on="1"/>
        <pt x="348" y="157" on="1"/>
        <pt x="446" y="157" on="0"/>
        <pt x="534" y="122" on="0"/>
        <pt x="534" y="73" on="1"/>
        <pt x="534" y="-1" on="0"/>
        <pt x="432" y="-1" on="1"/>
        <pt x="206" y="8" on="1"/>
        <pt x="58" y="0" on="1"/>
        <pt x="-20" y="0" on="0"/>
        <pt x="-20" y="63" on="1"/>
        <pt x="-20" y="88" on="0"/>
        <pt x="99" y="171" on="0"/>
        <pt x="172" y="253" on="0"/>
        <pt x="226" y="320" on="1"/>
        <pt x="354" y="486" on="1"/>
        <pt x="530" y="723" on="1"/>
        <pt x="754" y="1038" on="1"/>
        <pt x="1032" y="1437" on="1"/>
        <pt x="1088" y="1517" on="0"/>
        <pt x="1181" y="1575" on="0"/>
        <pt x="1280" y="1575" on="0"/>
        <pt x="1304" y="1570" on="1"/>
        <pt x="1358" y="1558" on="0"/>
        <pt x="1397" y="1558" on="1"/>
        <pt x="1596" y="1561" on="1"/>
        <pt x="1704" y="1561" on="0"/>
        <pt x="1828" y="1583" on="1"/>
        <pt x="1823" y="1599" on="0"/>
        <pt x="1823" y="1636" on="0"/>
        <pt x="1861" y="1673" on="0"/>
        <pt x="1897" y="1673" on="1"/>
        <pt x="1987" y="1673" on="0"/>
        <pt x="2100" y="1364" on="1"/>
        <pt x="2121" y="1306" on="0"/>
        <pt x="2121" y="1276" on="1"/>
        <pt x="2121" y="1207" on="0"/>
        <pt x="2059" y="1207" on="1"/>
        <pt x="2004" y="1207" on="0"/>
        <pt x="1967" y="1314" on="1"/>
        <pt x="1944" y="1380" on="0"/>
        <pt x="1843" y="1434" on="0"/>
        <pt x="1765" y="1434" on="1"/>
        <pt x="1740" y="1434" on="1"/>
        <pt x="1353" y="1410" on="1"/>
        <pt x="1353" y="967" on="1"/>
        <pt x="1593" y="967" on="0"/>
        <pt x="1661" y="980" on="0"/>
        <pt x="1693" y="1007" on="0"/>
        <pt x="1706" y="1084" on="0"/>
        <pt x="1756" y="1121" on="0"/>
        <pt x="1808" y="1121" on="0"/>
        <pt x="1847" y="1090" on="0"/>
        <pt x="1847" y="1035" on="0"/>
        <pt x="1811" y="939" on="0"/>
        <pt x="1811" y="844" on="0"/>
        <pt x="1828" y="797" on="1"/>
        <pt x="1856" y="725" on="1"/>
        <pt x="1865" y="700" on="0"/>
        <pt x="1865" y="639" on="0"/>
        <pt x="1820" y="603" on="0"/>
        <pt x="1787" y="603" on="1"/>
        <pt x="1722" y="603" on="0"/>
        <pt x="1691" y="771" on="0"/>
        <pt x="1653" y="820" on="0"/>
        <pt x="1604" y="820" on="1"/>
        <pt x="1353" y="820" on="1"/>
        <pt x="1353" y="150" on="1"/>
        <pt x="1390" y="149" on="0"/>
        <pt x="1436" y="147" on="1"/>
        <pt x="1530" y="143" on="1"/>
        <pt x="1670" y="136" on="0"/>
        <pt x="1804" y="136" on="0"/>
        <pt x="1871" y="180" on="0"/>
        <pt x="1969" y="327" on="0"/>
        <pt x="2019" y="377" on="0"/>
      </contour>
    </TTGlyph>
    <TTGlyph name="AEacute" xMin="-20" yMin="-139" xMax="2121" yMax="2020">
      <component glyphName="AE" x="0" y="0" flags="0x1204"/>
      <component glyphName="acute.cap" x="991" y="0" flags="0x1004"/>
    </TTGlyph>
    <TTGlyph name="Aacute" xMin="-49" yMin="-1" xMax="1753" yMax="2020">
      <component glyphName="A" x="0" y="0" flags="0x1204"/>
      <component glyphName="acute.cap" x="590" y="0" flags="0x1004"/>
    </TTGlyph>
    <TTGlyph name="Abreve" xMin="-49" yMin="-1" xMax="1753" yMax="2020">
      <component glyphName="A" x="0" y="0" flags="0x1204"/>
      <component glyphName="breve.cap" x="608" y="0" flags="0x1004"/>
    </TTGlyph>
    <TTGlyph name="Acircumflex" xMin="-49" yMin="-1" xMax="1753" yMax="2020">
      <component glyphName="A" x="0" y="0" flags="0x1204"/>
      <component glyphName="circumflex.cap" x="602" y="0" flags="0x1004"/>
    </TTGlyph>
    <TTGlyph name="Adieresis" xMin="-49" yMin="-1" xMax="1753" yMax="1982">
      <component glyphName="A" x="0" y="0" flags="0x1204"/>
      <component glyphName="dieresis.cap" x="421" y="0" flags="0x1004"/>
    </TTGlyph>
    <TTGlyph name="Agrave" xMin="-49" yMin="-1" xMax="1753" yMax="2020">
      <component glyphName="A" x="0" y="0" flags="0x1204"/>
      <component glyphName="grave.cap" x="563" y="0" flags="0x1004"/>
    </TTGlyph>
    <TTGlyph name="Amacron" xMin="-49" yMin="-1" xMax="1753" yMax="2020">
      <component glyphName="A" x="0" y="0" flags="0x1204"/>
      <component glyphName="macron.cap" x="592" y="0" flags="0x1004"/>
    </TTGlyph>
    <TTGlyph name="Aogonek" xMin="-49" yMin="-497" xMax="1757" yMax="1575">
      <contour>
        <pt x="521" y="611" on="1"/>
        <pt x="742" y="441" on="0"/>
        <pt x="768" y="415" on="1"/>
        <pt x="804" y="378" on="1"/>
        <pt x="835" y="349" on="0"/>
        <pt x="877" y="349" on="0"/>
        <pt x="909" y="370" on="0"/>
        <pt x="954" y="417" on="0"/>
        <pt x="982" y="440" on="1"/>
        <pt x="1205" y="612" on="1"/>
        <pt x="932" y="1201" on="1"/>
        <pt x="905" y="1260" on="0"/>
        <pt x="874" y="1320" on="0"/>
        <pt x="849" y="1320" on="0"/>
        <pt x="824" y="1277" on="0"/>
        <pt x="804" y="1232" on="1"/>
      </contour>
      <contour>
        <pt x="177" y="8" on="1"/>
        <pt x="29" y="0" on="1"/>
        <pt x="-49" y="0" on="0"/>
        <pt x="-49" y="63" on="1"/>
        <pt x="-49" y="104" on="0"/>
        <pt x="16" y="154" on="1"/>
        <pt x="132" y="246" on="0"/>
        <pt x="232" y="440" on="1"/>
        <pt x="580" y="1140" on="1"/>
        <pt x="704" y="1403" on="1"/>
        <pt x="748" y="1500" on="0"/>
        <pt x="811" y="1575" on="0"/>
        <pt x="909" y="1575" on="0"/>
        <pt x="976" y="1509" on="0"/>
        <pt x="1023" y="1408" on="1"/>
        <pt x="1242" y="940" on="1"/>
        <pt x="1523" y="382" on="0"/>
        <pt x="1541" y="349" on="1"/>
        <pt x="1578" y="282" on="1"/>
        <pt x="1622" y="205" on="0"/>
        <pt x="1656" y="173" on="0"/>
        <pt x="1674" y="162" on="1"/>
        <pt x="1753" y="115" on="0"/>
        <pt x="1753" y="78" on="1"/>
        <pt x="1753" y="0" on="0"/>
        <pt x="1675" y="0" on="1"/>
        <pt x="1663" y="0" on="1"/>
        <pt x="1589" y="-13" on="0"/>
        <pt x="1423" y="-172" on="0"/>
        <pt x="1423" y="-254" on="1"/>
        <pt x="1423" y="-293" on="0"/>
        <pt x="1476" y="-348" on="0"/>
        <pt x="1571" y="-348" on="0"/>
        <pt x="1627" y="-273" on="0"/>
        <pt x="1659" y="-249" on="0"/>
        <pt x="1710" y="-249" on="0"/>
        <pt x="1757" y="-284" on="0"/>
        <pt x="1757" y="-320" on="1"/>
        <pt x="1757" y="-388" on="0"/>
        <pt x="1603" y="-497" on="0"/>
        <pt x="1532" y="-497" on="1"/>
        <pt x="1404" y="-497" on="0"/>
        <pt x="1243" y="-371" on="0"/>
        <pt x="1243" y="-280" on="1"/>
        <pt x="1243" y="-109" on="0"/>
        <pt x="1398" y="1" on="1"/>
        <pt x="1377" y="0" on="0"/>
        <pt x="1358" y="0" on="1"/>
        <pt x="1321" y="0" on="1"/>
        <pt x="1270" y="0" on="0"/>
        <pt x="1212" y="40" on="0"/>
        <pt x="1212" y="80" on="1"/>
        <pt x="1212" y="162" on="0"/>
        <pt x="1394" y="162" on="1"/>
        <pt x="1405" y="162" on="0"/>
        <pt x="1427" y="162" on="0"/>
        <pt x="1438" y="163" on="1"/>
        <pt x="1411" y="202" on="0"/>
        <pt x="1382" y="262" on="1"/>
        <pt x="1280" y="470" on="1"/>
        <pt x="1092" y="324" on="1"/>
        <pt x="1000" y="253" on="0"/>
        <pt x="910" y="144" on="0"/>
        <pt x="836" y="144" on="0"/>
        <pt x="793" y="180" on="0"/>
        <pt x="776" y="200" on="1"/>
        <pt x="734" y="248" on="1"/>
        <pt x="716" y="269" on="0"/>
        <pt x="686" y="293" on="1"/>
        <pt x="532" y="408" on="1"/>
        <pt x="485" y="442" on="0"/>
        <pt x="436" y="481" on="1"/>
        <pt x="289" y="157" on="1"/>
        <pt x="319" y="157" on="1"/>
        <pt x="417" y="157" on="0"/>
        <pt x="505" y="122" on="0"/>
        <pt x="505" y="73" on="1"/>
        <pt x="505" y="-1" on="0"/>
        <pt x="403" y="-1" on="1"/>
      </contour>
    </TTGlyph>
    <TTGlyph name="Aring" xMin="-49" yMin="-1" xMax="1753" yMax="2020">
      <contour>
        <pt x="521" y="611" on="1"/>
        <pt x="742" y="441" on="0"/>
        <pt x="768" y="415" on="1"/>
        <pt x="804" y="378" on="1"/>
        <pt x="835" y="349" on="0"/>
        <pt x="877" y="349" on="0"/>
        <pt x="909" y="370" on="0"/>
        <pt x="954" y="417" on="0"/>
        <pt x="982" y="440" on="1"/>
        <pt x="1205" y="612" on="1"/>
        <pt x="932" y="1201" on="1"/>
        <pt x="905" y="1260" on="0"/>
        <pt x="874" y="1320" on="0"/>
        <pt x="849" y="1320" on="0"/>
        <pt x="824" y="1277" on="0"/>
        <pt x="804" y="1232" on="1"/>
      </contour>
      <contour>
        <pt x="720" y="1782" on="1"/>
        <pt x="720" y="1655" on="0"/>
        <pt x="867" y="1655" on="1"/>
        <pt x="909" y="1655" on="0"/>
        <pt x="980" y="1713" on="0"/>
        <pt x="980" y="1822" on="0"/>
        <pt x="910" y="1886" on="0"/>
        <pt x="789" y="1886" on="0"/>
        <pt x="720" y="1822" on="0"/>
      </contour>
      <contour>
        <pt x="177" y="8" on="1"/>
        <pt x="29" y="0" on="1"/>
        <pt x="-49" y="0" on="0"/>
        <pt x="-49" y="63" on="1"/>
        <pt x="-49" y="104" on="0"/>
        <pt x="16" y="154" on="1"/>
        <pt x="132" y="246" on="0"/>
        <pt x="232" y="440" on="1"/>
        <pt x="580" y="1140" on="1"/>
        <pt x="704" y="1403" on="1"/>
        <pt x="742" y="1491" on="0"/>
        <pt x="770" y="1525" on="1"/>
        <pt x="679" y="1547" on="0"/>
        <pt x="565" y="1676" on="0"/>
        <pt x="565" y="1748" on="1"/>
        <pt x="565" y="1878" on="0"/>
        <pt x="728" y="2020" on="0"/>
        <pt x="974" y="2020" on="0"/>
        <pt x="1138" y="1878" on="0"/>
        <pt x="1138" y="1642" on="0"/>
        <pt x="1025" y="1568" on="1"/>
        <pt x="991" y="1545" on="0"/>
        <pt x="952" y="1532" on="1"/>
        <pt x="981" y="1497" on="0"/>
        <pt x="1025" y="1402" on="1"/>
        <pt x="1242" y="940" on="1"/>
        <pt x="1523" y="382" on="0"/>
        <pt x="1541" y="349" on="1"/>
        <pt x="1578" y="282" on="1"/>
        <pt x="1622" y="205" on="0"/>
        <pt x="1656" y="173" on="0"/>
        <pt x="1674" y="162" on="1"/>
        <pt x="1753" y="115" on="0"/>
        <pt x="1753" y="78" on="1"/>
        <pt x="1753" y="0" on="0"/>
        <pt x="1675" y="0" on="1"/>
        <pt x="1524" y="7" on="1"/>
        <pt x="1321" y="0" on="1"/>
        <pt x="1270" y="0" on="0"/>
        <pt x="1212" y="40" on="0"/>
        <pt x="1212" y="80" on="1"/>
        <pt x="1212" y="162" on="0"/>
        <pt x="1394" y="162" on="1"/>
        <pt x="1405" y="162" on="0"/>
        <pt x="1427" y="162" on="0"/>
        <pt x="1438" y="163" on="1"/>
        <pt x="1411" y="202" on="0"/>
        <pt x="1382" y="262" on="1"/>
        <pt x="1280" y="470" on="1"/>
        <pt x="1092" y="324" on="1"/>
        <pt x="1000" y="253" on="0"/>
        <pt x="910" y="144" on="0"/>
        <pt x="836" y="144" on="0"/>
        <pt x="793" y="180" on="0"/>
        <pt x="776" y="200" on="1"/>
        <pt x="734" y="248" on="1"/>
        <pt x="716" y="269" on="0"/>
        <pt x="686" y="293" on="1"/>
        <pt x="532" y="408" on="1"/>
        <pt x="485" y="442" on="0"/>
        <pt x="436" y="481" on="1"/>
        <pt x="289" y="157" on="1"/>
        <pt x="319" y="157" on="1"/>
        <pt x="417" y="157" on="0"/>
        <pt x="505" y="122" on="0"/>
        <pt x="505" y="73" on="1"/>
        <pt x="505" y="-1" on="0"/>
        <pt x="403" y="-1" on="1"/>
      </contour>
    </TTGlyph>
    <TTGlyph name="Atilde" xMin="-49" yMin="-1" xMax="1753" yMax="2020">
      <component glyphName="A" x="0" y="0" flags="0x1204"/>
      <component glyphName="tilde.cap" x="600" y="0" flags="0x1004"/>
    </TTGlyph>
    <TTGlyph name="B" xMin="39" yMin="-15" xMax="1461" yMax="1555">
      <contour>
        <pt x="492" y="145" on="1"/>
        <pt x="517" y="142" on="0"/>
        <pt x="549" y="140" on="1"/>
        <pt x="614" y="138" on="1"/>
        <pt x="668" y="135" on="0"/>
        <pt x="774" y="135" on="1"/>
        <pt x="1268" y="135" on="0"/>
        <pt x="1268" y="493" on="1"/>
        <pt x="1268" y="639" on="0"/>
        <pt x="1048" y="791" on="0"/>
        <pt x="863" y="791" on="1"/>
        <pt x="492" y="791" on="1"/>
      </contour>
      <contour>
        <pt x="771" y="939" on="1"/>
        <pt x="1019" y="939" on="0"/>
        <pt x="1068" y="1075" on="1"/>
        <pt x="1084" y="1119" on="0"/>
        <pt x="1084" y="1168" on="1"/>
        <pt x="1084" y="1255" on="0"/>
        <pt x="948" y="1383" on="0"/>
        <pt x="723" y="1406" on="0"/>
        <pt x="528" y="1406" on="0"/>
        <pt x="492" y="1403" on="1"/>
        <pt x="492" y="939" on="1"/>
      </contour>
      <contour>
        <pt x="1121" y="887" on="1"/>
        <pt x="1461" y="830" on="0"/>
        <pt x="1461" y="473" on="1"/>
        <pt x="1461" y="382" on="0"/>
        <pt x="1379" y="198" on="0"/>
        <pt x="1292" y="130" on="1"/>
        <pt x="1106" y="-15" on="0"/>
        <pt x="744" y="-15" on="1"/>
        <pt x="706" y="-15" on="0"/>
        <pt x="660" y="-12" on="1"/>
        <pt x="467" y="-2" on="1"/>
        <pt x="429" y="0" on="0"/>
        <pt x="391" y="0" on="1"/>
        <pt x="195" y="-13" on="1"/>
        <pt x="72" y="-13" on="0"/>
        <pt x="72" y="168" on="0"/>
        <pt x="218" y="168" on="1"/>
        <pt x="261" y="168" on="0"/>
        <pt x="307" y="164" on="1"/>
        <pt x="307" y="1384" on="1"/>
        <pt x="275" y="1380" on="1"/>
        <pt x="200" y="1367" on="0"/>
        <pt x="101" y="1367" on="0"/>
        <pt x="39" y="1414" on="0"/>
        <pt x="39" y="1453" on="1"/>
        <pt x="39" y="1527" on="0"/>
        <pt x="160" y="1544" on="1"/>
        <pt x="248" y="1555" on="0"/>
        <pt x="818" y="1555" on="0"/>
        <pt x="914" y="1539" on="1"/>
        <pt x="1091" y="1510" on="0"/>
        <pt x="1281" y="1315" on="0"/>
        <pt x="1281" y="1041" on="0"/>
        <pt x="1193" y="942" on="1"/>
        <pt x="1163" y="909" on="0"/>
      </contour>
    </TTGlyph>
    <TTGlyph name="C" xMin="88" yMin="-100" xMax="1525" yMax="1621">
      <contour>
        <pt x="1112" y="5" on="1"/>
        <pt x="997" y="-15" on="0"/>
        <pt x="900" y="-15" on="1"/>
        <pt x="539" y="-15" on="0"/>
        <pt x="88" y="411" on="0"/>
        <pt x="88" y="1133" on="0"/>
        <pt x="535" y="1555" on="0"/>
        <pt x="903" y="1555" on="1"/>
        <pt x="1041" y="1555" on="0"/>
        <pt x="1154" y="1520" on="1"/>
        <pt x="1148" y="1535" on="0"/>
        <pt x="1148" y="1580" on="0"/>
        <pt x="1199" y="1621" on="0"/>
        <pt x="1258" y="1621" on="0"/>
        <pt x="1309" y="1564" on="0"/>
        <pt x="1378" y="1406" on="0"/>
        <pt x="1442" y="1337" on="1"/>
        <pt x="1478" y="1295" on="1"/>
        <pt x="1524" y="1242" on="0"/>
        <pt x="1524" y="1200" on="1"/>
        <pt x="1524" y="1110" on="0"/>
        <pt x="1449" y="1110" on="1"/>
        <pt x="1387" y="1110" on="0"/>
        <pt x="1266" y="1310" on="0"/>
        <pt x="1017" y="1407" on="0"/>
        <pt x="887" y="1407" on="1"/>
        <pt x="615" y="1407" on="0"/>
        <pt x="282" y="1074" on="0"/>
        <pt x="282" y="481" on="0"/>
        <pt x="628" y="143" on="0"/>
        <pt x="1116" y="143" on="0"/>
        <pt x="1216" y="245" on="1"/>
        <pt x="1267" y="299" on="0"/>
        <pt x="1287" y="334" on="1"/>
        <pt x="1320" y="393" on="1"/>
        <pt x="1365" y="479" on="0"/>
        <pt x="1410" y="490" on="1"/>
        <pt x="1425" y="494" on="0"/>
        <pt x="1477" y="494" on="0"/>
        <pt x="1525" y="439" on="0"/>
        <pt x="1525" y="402" on="1"/>
        <pt x="1525" y="338" on="0"/>
        <pt x="1362" y="161" on="0"/>
        <pt x="1305" y="49" on="0"/>
        <pt x="1299" y="-15" on="1"/>
        <pt x="1291" y="-100" on="0"/>
        <pt x="1207" y="-100" on="1"/>
        <pt x="1170" y="-100" on="0"/>
        <pt x="1112" y="-44" on="0"/>
        <pt x="1112" y="-5" on="1"/>
        <pt x="1112" y="0" on="0"/>
      </contour>
    </TTGlyph>
    <TTGlyph name="Cacute" xMin="88" yMin="-100" xMax="1525" yMax="2020">
      <component glyphName="C" x="0" y="0" flags="0x1204"/>
      <component glyphName="acute.cap" x="634" y="0" flags="0x1004"/>
    </TTGlyph>
    <TTGlyph name="Ccaron" xMin="88" yMin="-100" xMax="1525" yMax="2020">
      <component glyphName="C" x="0" y="0" flags="0x1204"/>
      <component glyphName="caron.cap" x="481" y="0" flags="0x1004"/>
    </TTGlyph>
    <TTGlyph name="Ccedilla" xMin="88" yMin="-500" xMax="1525" yMax="1621">
      <contour>
        <pt x="823" y="-102" on="1"/>
        <pt x="1051" y="-139" on="0"/>
        <pt x="1051" y="-279" on="1"/>
        <pt x="1051" y="-378" on="0"/>
        <pt x="864" y="-500" on="0"/>
        <pt x="715" y="-500" on="1"/>
        <pt x="666" y="-500" on="0"/>
        <pt x="626" y="-471" on="0"/>
        <pt x="626" y="-433" on="0"/>
        <pt x="664" y="-415" on="0"/>
        <pt x="731" y="-407" on="1"/>
        <pt x="870" y="-389" on="0"/>
        <pt x="870" y="-299" on="1"/>
        <pt x="870" y="-244" on="0"/>
        <pt x="781" y="-225" on="1"/>
        <pt x="741" y="-216" on="1"/>
        <pt x="710" y="-210" on="0"/>
        <pt x="699" y="-190" on="0"/>
        <pt x="699" y="-178" on="1"/>
        <pt x="699" y="-148" on="0"/>
        <pt x="732" y="-76" on="1"/>
        <pt x="765" y="-6" on="1"/>
        <pt x="459" y="32" on="0"/>
        <pt x="88" y="447" on="0"/>
        <pt x="88" y="771" on="1"/>
        <pt x="88" y="1133" on="0"/>
        <pt x="535" y="1555" on="0"/>
        <pt x="903" y="1555" on="1"/>
        <pt x="1041" y="1555" on="0"/>
        <pt x="1154" y="1520" on="1"/>
        <pt x="1148" y="1535" on="0"/>
        <pt x="1148" y="1580" on="0"/>
        <pt x="1199" y="1621" on="0"/>
        <pt x="1258" y="1621" on="0"/>
        <pt x="1309" y="1564" on="0"/>
        <pt x="1378" y="1406" on="0"/>
        <pt x="1442" y="1337" on="1"/>
        <pt x="1478" y="1295" on="1"/>
        <pt x="1524" y="1242" on="0"/>
        <pt x="1524" y="1200" on="1"/>
        <pt x="1524" y="1110" on="0"/>
        <pt x="1449" y="1110" on="1"/>
        <pt x="1387" y="1110" on="0"/>
        <pt x="1266" y="1310" on="0"/>
        <pt x="1017" y="1407" on="0"/>
        <pt x="887" y="1407" on="1"/>
        <pt x="615" y="1407" on="0"/>
        <pt x="282" y="1074" on="0"/>
        <pt x="282" y="481" on="0"/>
        <pt x="628" y="143" on="0"/>
        <pt x="1116" y="143" on="0"/>
        <pt x="1216" y="245" on="1"/>
        <pt x="1267" y="299" on="0"/>
        <pt x="1287" y="334" on="1"/>
        <pt x="1320" y="393" on="1"/>
        <pt x="1365" y="479" on="0"/>
        <pt x="1410" y="490" on="1"/>
        <pt x="1425" y="494" on="0"/>
        <pt x="1477" y="494" on="0"/>
        <pt x="1525" y="439" on="0"/>
        <pt x="1525" y="402" on="1"/>
        <pt x="1525" y="338" on="0"/>
        <pt x="1362" y="161" on="0"/>
        <pt x="1305" y="49" on="0"/>
        <pt x="1299" y="-15" on="1"/>
        <pt x="1291" y="-100" on="0"/>
        <pt x="1207" y="-100" on="1"/>
        <pt x="1170" y="-100" on="0"/>
        <pt x="1112" y="-44" on="0"/>
        <pt x="1112" y="-5" on="1"/>
        <pt x="1112" y="0" on="0"/>
        <pt x="1112" y="5" on="1"/>
        <pt x="997" y="-15" on="0"/>
        <pt x="944" y="-15" on="1"/>
        <pt x="884" y="-15" on="1"/>
        <pt x="876" y="-15" on="0"/>
        <pt x="868" y="-14" on="1"/>
        <pt x="840" y="-62" on="0"/>
      </contour>
    </TTGlyph>
    <TTGlyph name="Ccircumflex" xMin="88" yMin="-100" xMax="1525" yMax="2020">
      <component glyphName="C" x="0" y="0" flags="0x1204"/>
      <component glyphName="circumflex.cap" x="536" y="0" flags="0x1004"/>
    </TTGlyph>
    <TTGlyph name="Cdotaccent" xMin="88" yMin="-100" xMax="1525" yMax="2004">
      <component glyphName="C" x="0" y="0" flags="0x1204"/>
      <component glyphName="dotaccent.cap" x="609" y="0" flags="0x1004"/>
    </TTGlyph>
    <TTGlyph name="D" xMin="51" yMin="-15" xMax="1492" yMax="1555">
      <contour>
        <pt x="541" y="1401" on="1"/>
        <pt x="515" y="1401" on="0"/>
        <pt x="483" y="1399" on="1"/>
        <pt x="483" y="143" on="1"/>
        <pt x="540" y="140" on="0"/>
        <pt x="757" y="140" on="0"/>
        <pt x="951" y="187" on="0"/>
        <pt x="1010" y="219" on="1"/>
        <pt x="1138" y="289" on="0"/>
        <pt x="1297" y="573" on="0"/>
        <pt x="1297" y="778" on="1"/>
        <pt x="1297" y="1154" on="0"/>
        <pt x="1049" y="1295" on="1"/>
        <pt x="863" y="1401" on="0"/>
      </contour>
      <contour>
        <pt x="298" y="1383" on="1"/>
        <pt x="182" y="1367" on="1"/>
        <pt x="51" y="1367" on="0"/>
        <pt x="51" y="1449" on="1"/>
        <pt x="51" y="1504" on="0"/>
        <pt x="173" y="1555" on="0"/>
        <pt x="353" y="1555" on="1"/>
        <pt x="545" y="1555" on="1"/>
        <pt x="1280" y="1555" on="0"/>
        <pt x="1440" y="1116" on="1"/>
        <pt x="1492" y="975" on="0"/>
        <pt x="1492" y="821" on="1"/>
        <pt x="1492" y="542" on="0"/>
        <pt x="1233" y="142" on="0"/>
        <pt x="843" y="-15" on="0"/>
        <pt x="606" y="-15" on="1"/>
        <pt x="395" y="0" on="1"/>
        <pt x="336" y="0" on="0"/>
        <pt x="238" y="-13" on="0"/>
        <pt x="199" y="-13" on="1"/>
        <pt x="76" y="-13" on="0"/>
        <pt x="76" y="168" on="0"/>
        <pt x="222" y="168" on="1"/>
        <pt x="264" y="168" on="1"/>
        <pt x="281" y="168" on="0"/>
        <pt x="298" y="166" on="1"/>
      </contour>
    </TTGlyph>
    <TTGlyph name="Dcaron" xMin="51" yMin="-15" xMax="1492" yMax="2020">
      <component glyphName="D" x="0" y="0" flags="0x1204"/>
      <component glyphName="caron.cap" x="359" y="0" flags="0x1004"/>
    </TTGlyph>
    <TTGlyph name="Dcroat" xMin="51" yMin="-15" xMax="1492" yMax="1555">
      <contour>
        <pt x="884" y="779" on="1"/>
        <pt x="884" y="708" on="0"/>
        <pt x="780" y="708" on="1"/>
        <pt x="483" y="708" on="1"/>
        <pt x="483" y="143" on="1"/>
        <pt x="540" y="140" on="0"/>
        <pt x="757" y="140" on="0"/>
        <pt x="951" y="187" on="0"/>
        <pt x="1010" y="219" on="1"/>
        <pt x="1138" y="289" on="0"/>
        <pt x="1297" y="573" on="0"/>
        <pt x="1297" y="778" on="1"/>
        <pt x="1297" y="1154" on="0"/>
        <pt x="1049" y="1295" on="1"/>
        <pt x="863" y="1401" on="0"/>
        <pt x="542" y="1401" on="1"/>
        <pt x="515" y="1401" on="0"/>
        <pt x="483" y="1399" on="1"/>
        <pt x="483" y="850" on="1"/>
        <pt x="780" y="850" on="1"/>
        <pt x="833" y="850" on="0"/>
        <pt x="884" y="809" on="0"/>
      </contour>
      <contour>
        <pt x="298" y="1383" on="1"/>
        <pt x="182" y="1367" on="1"/>
        <pt x="51" y="1367" on="0"/>
        <pt x="51" y="1449" on="1"/>
        <pt x="51" y="1504" on="0"/>
        <pt x="173" y="1555" on="0"/>
        <pt x="353" y="1555" on="1"/>
        <pt x="545" y="1555" on="1"/>
        <pt x="1280" y="1555" on="0"/>
        <pt x="1440" y="1116" on="1"/>
        <pt x="1492" y="975" on="0"/>
        <pt x="1492" y="821" on="1"/>
        <pt x="1492" y="542" on="0"/>
        <pt x="1233" y="142" on="0"/>
        <pt x="843" y="-15" on="0"/>
        <pt x="606" y="-15" on="1"/>
        <pt x="395" y="0" on="1"/>
        <pt x="336" y="0" on="0"/>
        <pt x="238" y="-13" on="0"/>
        <pt x="199" y="-13" on="1"/>
        <pt x="76" y="-13" on="0"/>
        <pt x="76" y="168" on="0"/>
        <pt x="222" y="168" on="1"/>
        <pt x="264" y="168" on="1"/>
        <pt x="281" y="168" on="0"/>
        <pt x="298" y="166" on="1"/>
        <pt x="298" y="708" on="1"/>
        <pt x="187" y="708" on="1"/>
        <pt x="80" y="708" on="0"/>
        <pt x="80" y="850" on="0"/>
        <pt x="187" y="850" on="1"/>
        <pt x="298" y="850" on="1"/>
      </contour>
    </TTGlyph>
    <TTGlyph name="Delta" xMin="194" yMin="1" xMax="1673" yMax="1466">
      <contour>
        <pt x="1478" y="165" on="1"/>
        <pt x="937" y="1203" on="1"/>
        <pt x="402" y="165" on="1"/>
      </contour>
      <contour>
        <pt x="244" y="1" on="0"/>
        <pt x="194" y="63" on="0"/>
        <pt x="194" y="146" on="0"/>
        <pt x="224" y="206" on="1"/>
        <pt x="850" y="1404" on="1"/>
        <pt x="882" y="1465" on="0"/>
        <pt x="931" y="1465" on="1"/>
        <pt x="983" y="1465" on="0"/>
        <pt x="1017" y="1402" on="1"/>
        <pt x="1636" y="219" on="1"/>
        <pt x="1673" y="151" on="0"/>
        <pt x="1673" y="63" on="0"/>
        <pt x="1623" y="1" on="0"/>
        <pt x="1578" y="1" on="1"/>
        <pt x="289" y="1" on="1"/>
      </contour>
    </TTGlyph>
    <TTGlyph name="E" xMin="86" yMin="-139" xMax="1343" yMax="1653">
      <contour>
        <pt x="1272" y="377" on="1"/>
        <pt x="1343" y="377" on="0"/>
        <pt x="1343" y="304" on="1"/>
        <pt x="1343" y="269" on="0"/>
        <pt x="1315" y="233" on="1"/>
        <pt x="1247" y="144" on="0"/>
        <pt x="1212" y="38" on="1"/>
        <pt x="1200" y="0" on="1"/>
        <pt x="1188" y="-44" on="0"/>
        <pt x="1177" y="-107" on="0"/>
        <pt x="1134" y="-139" on="0"/>
        <pt x="1075" y="-139" on="0"/>
        <pt x="1028" y="-85" on="0"/>
        <pt x="1028" y="-64" on="1"/>
        <pt x="1028" y="-36" on="1"/>
        <pt x="1028" y="-31" on="0"/>
        <pt x="1029" y="-26" on="1"/>
        <pt x="908" y="-5" on="0"/>
        <pt x="764" y="-5" on="1"/>
        <pt x="612" y="0" on="0"/>
        <pt x="396" y="0" on="0"/>
        <pt x="211" y="-16" on="0"/>
        <pt x="174" y="-16" on="1"/>
        <pt x="86" y="-16" on="0"/>
        <pt x="86" y="66" on="1"/>
        <pt x="86" y="123" on="0"/>
        <pt x="180" y="144" on="1"/>
        <pt x="212" y="151" on="0"/>
        <pt x="257" y="151" on="1"/>
        <pt x="340" y="151" on="1"/>
        <pt x="340" y="1387" on="1"/>
        <pt x="301" y="1387" on="1"/>
        <pt x="110" y="1387" on="0"/>
        <pt x="110" y="1479" on="1"/>
        <pt x="110" y="1555" on="0"/>
        <pt x="249" y="1555" on="1"/>
        <pt x="697" y="1541" on="1"/>
        <pt x="877" y="1541" on="0"/>
        <pt x="1001" y="1563" on="1"/>
        <pt x="996" y="1579" on="0"/>
        <pt x="996" y="1616" on="0"/>
        <pt x="1034" y="1653" on="0"/>
        <pt x="1070" y="1653" on="1"/>
        <pt x="1160" y="1653" on="0"/>
        <pt x="1273" y="1344" on="1"/>
        <pt x="1294" y="1286" on="0"/>
        <pt x="1294" y="1256" on="1"/>
        <pt x="1294" y="1187" on="0"/>
        <pt x="1232" y="1187" on="1"/>
        <pt x="1177" y="1187" on="0"/>
        <pt x="1140" y="1294" on="1"/>
        <pt x="1117" y="1360" on="0"/>
        <pt x="1016" y="1413" on="0"/>
        <pt x="938" y="1413" on="1"/>
        <pt x="913" y="1413" on="1"/>
        <pt x="861" y="1413" on="0"/>
        <pt x="721" y="1401" on="0"/>
        <pt x="680" y="1398" on="1"/>
        <pt x="597" y="1392" on="1"/>
        <pt x="556" y="1389" on="0"/>
        <pt x="526" y="1387" on="1"/>
        <pt x="526" y="947" on="1"/>
        <pt x="766" y="947" on="0"/>
        <pt x="834" y="960" on="0"/>
        <pt x="866" y="987" on="0"/>
        <pt x="879" y="1064" on="0"/>
        <pt x="929" y="1101" on="0"/>
        <pt x="981" y="1101" on="0"/>
        <pt x="1020" y="1070" on="0"/>
        <pt x="1020" y="1015" on="0"/>
        <pt x="984" y="919" on="0"/>
        <pt x="984" y="824" on="0"/>
        <pt x="1002" y="777" on="1"/>
        <pt x="1028" y="705" on="1"/>
        <pt x="1038" y="680" on="0"/>
        <pt x="1038" y="619" on="0"/>
        <pt x="993" y="583" on="0"/>
        <pt x="960" y="583" on="1"/>
        <pt x="895" y="583" on="0"/>
        <pt x="864" y="751" on="0"/>
        <pt x="826" y="800" on="0"/>
        <pt x="777" y="800" on="1"/>
        <pt x="526" y="800" on="1"/>
        <pt x="526" y="151" on="1"/>
        <pt x="569" y="150" on="0"/>
        <pt x="612" y="148" on="1"/>
        <pt x="701" y="144" on="1"/>
        <pt x="728" y="142" on="0"/>
        <pt x="799" y="140" on="0"/>
        <pt x="896" y="136" on="0"/>
        <pt x="1028" y="136" on="0"/>
        <pt x="1094" y="180" on="0"/>
        <pt x="1192" y="327" on="0"/>
        <pt x="1242" y="377" on="0"/>
      </contour>
    </TTGlyph>
    <TTGlyph name="Eacute" xMin="86" yMin="-139" xMax="1343" yMax="2020">
      <component glyphName="E" x="0" y="0" flags="0x1204"/>
      <component glyphName="acute.cap" x="425" y="0" flags="0x1004"/>
    </TTGlyph>
    <TTGlyph name="Ebreve" xMin="86" yMin="-139" xMax="1343" yMax="2020">
      <component glyphName="E" x="0" y="0" flags="0x1204"/>
      <component glyphName="breve.cap" x="443" y="0" flags="0x1004"/>
    </TTGlyph>
    <TTGlyph name="Ecaron" xMin="86" yMin="-139" xMax="1343" yMax="2020">
      <component glyphName="E" x="0" y="0" flags="0x1204"/>
      <component glyphName="caron.cap" x="272" y="0" flags="0x1004"/>
    </TTGlyph>
    <TTGlyph name="Ecircumflex" xMin="86" yMin="-139" xMax="1343" yMax="2020">
      <component glyphName="E" x="0" y="0" flags="0x1204"/>
      <component glyphName="circumflex.cap" x="437" y="0" flags="0x1004"/>
    </TTGlyph>
    <TTGlyph name="Edieresis" xMin="86" yMin="-139" xMax="1343" yMax="1982">
      <component glyphName="E" x="0" y="0" flags="0x1204"/>
      <component glyphName="dieresis.cap" x="256" y="0" flags="0x1004"/>
    </TTGlyph>
    <TTGlyph name="Edotaccent" xMin="86" yMin="-139" xMax="1343" yMax="2004">
      <component glyphName="E" x="0" y="0" flags="0x1204"/>
      <component glyphName="dotaccent.cap" x="430" y="0" flags="0x1004"/>
    </TTGlyph>
    <TTGlyph name="Egrave" xMin="86" yMin="-139" xMax="1343" yMax="2020">
      <component glyphName="E" x="0" y="0" flags="0x1204"/>
      <component glyphName="grave.cap" x="398" y="0" flags="0x1004"/>
    </TTGlyph>
    <TTGlyph name="Emacron" xMin="86" yMin="-139" xMax="1343" yMax="2020">
      <component glyphName="E" x="0" y="0" flags="0x1204"/>
      <component glyphName="macron.cap" x="427" y="0" flags="0x1004"/>
    </TTGlyph>
    <TTGlyph name="Eng" xMin="119" yMin="-539" xMax="1720" yMax="1555">
      <contour>
        <pt x="863" y="-230" on="1"/>
        <pt x="861" y="-261" on="1"/>
        <pt x="861" y="-314" on="0"/>
        <pt x="970" y="-378" on="0"/>
        <pt x="1055" y="-378" on="1"/>
        <pt x="1206" y="-378" on="0"/>
        <pt x="1278" y="-271" on="1"/>
        <pt x="1334" y="-187" on="0"/>
        <pt x="1334" y="-57" on="1"/>
        <pt x="1334" y="-7" on="0"/>
        <pt x="1336" y="45" on="1"/>
        <pt x="1302" y="81" on="0"/>
        <pt x="1286" y="105" on="1"/>
        <pt x="520" y="1301" on="1"/>
        <pt x="529" y="1206" on="0"/>
        <pt x="529" y="1090" on="1"/>
        <pt x="529" y="161" on="1"/>
        <pt x="560" y="161" on="1"/>
        <pt x="629" y="161" on="0"/>
        <pt x="686" y="112" on="0"/>
        <pt x="686" y="46" on="0"/>
        <pt x="634" y="0" on="0"/>
        <pt x="539" y="0" on="0"/>
        <pt x="500" y="3" on="1"/>
        <pt x="432" y="6" on="1"/>
        <pt x="232" y="0" on="1"/>
        <pt x="188" y="0" on="0"/>
        <pt x="137" y="43" on="0"/>
        <pt x="137" y="115" on="0"/>
        <pt x="197" y="161" on="0"/>
        <pt x="249" y="161" on="1"/>
        <pt x="345" y="161" on="1"/>
        <pt x="345" y="1398" on="1"/>
        <pt x="260" y="1390" on="1"/>
        <pt x="252" y="1390" on="0"/>
        <pt x="245" y="1390" on="1"/>
        <pt x="184" y="1390" on="0"/>
        <pt x="119" y="1436" on="0"/>
        <pt x="119" y="1476" on="1"/>
        <pt x="119" y="1555" on="0"/>
        <pt x="252" y="1555" on="1"/>
        <pt x="442" y="1555" on="0"/>
        <pt x="584" y="1488" on="0"/>
        <pt x="667" y="1382" on="0"/>
        <pt x="698" y="1333" on="1"/>
        <pt x="1345" y="300" on="1"/>
        <pt x="1338" y="405" on="0"/>
        <pt x="1338" y="473" on="1"/>
        <pt x="1338" y="1394" on="1"/>
        <pt x="1244" y="1394" on="1"/>
        <pt x="1193" y="1394" on="0"/>
        <pt x="1131" y="1438" on="0"/>
        <pt x="1131" y="1510" on="0"/>
        <pt x="1184" y="1555" on="0"/>
        <pt x="1228" y="1555" on="1"/>
        <pt x="1428" y="1548" on="1"/>
        <pt x="1614" y="1555" on="1"/>
        <pt x="1695" y="1555" on="0"/>
        <pt x="1714" y="1506" on="1"/>
        <pt x="1720" y="1492" on="0"/>
        <pt x="1720" y="1477" on="1"/>
        <pt x="1720" y="1394" on="0"/>
        <pt x="1595" y="1394" on="1"/>
        <pt x="1522" y="1394" on="1"/>
        <pt x="1522" y="125" on="1"/>
        <pt x="1522" y="-457" on="0"/>
        <pt x="1174" y="-527" on="1"/>
        <pt x="1115" y="-539" on="0"/>
        <pt x="1044" y="-539" on="1"/>
        <pt x="889" y="-539" on="0"/>
        <pt x="672" y="-374" on="0"/>
        <pt x="672" y="-238" on="1"/>
        <pt x="672" y="-167" on="0"/>
        <pt x="728" y="-142" on="1"/>
        <pt x="748" y="-132" on="0"/>
        <pt x="822" y="-132" on="0"/>
        <pt x="863" y="-199" on="0"/>
      </contour>
    </TTGlyph>
    <TTGlyph name="Eogonek" xMin="86" yMin="-497" xMax="1294" yMax="1653">
      <contour>
        <pt x="1222" y="377" on="1"/>
        <pt x="1292" y="377" on="0"/>
        <pt x="1292" y="306" on="1"/>
        <pt x="1292" y="269" on="0"/>
        <pt x="1254" y="220" on="1"/>
        <pt x="1234" y="193" on="1"/>
        <pt x="1224" y="180" on="0"/>
        <pt x="1213" y="166" on="1"/>
        <pt x="1160" y="100" on="1"/>
        <pt x="1155" y="95" on="0"/>
        <pt x="1146" y="83" on="0"/>
        <pt x="1083" y="11" on="0"/>
        <pt x="977" y="-179" on="0"/>
        <pt x="977" y="-244" on="1"/>
        <pt x="977" y="-348" on="0"/>
        <pt x="1055" y="-348" on="1"/>
        <pt x="1105" y="-348" on="0"/>
        <pt x="1161" y="-273" on="0"/>
        <pt x="1193" y="-249" on="0"/>
        <pt x="1244" y="-249" on="0"/>
        <pt x="1281" y="-284" on="0"/>
        <pt x="1281" y="-320" on="1"/>
        <pt x="1281" y="-388" on="0"/>
        <pt x="1127" y="-497" on="0"/>
        <pt x="1056" y="-497" on="1"/>
        <pt x="932" y="-497" on="0"/>
        <pt x="797" y="-373" on="0"/>
        <pt x="797" y="-125" on="0"/>
        <pt x="885" y="-6" on="1"/>
        <pt x="828" y="-6" on="1"/>
        <pt x="530" y="0" on="1"/>
        <pt x="394" y="0" on="0"/>
        <pt x="211" y="-16" on="0"/>
        <pt x="175" y="-16" on="1"/>
        <pt x="86" y="-16" on="0"/>
        <pt x="86" y="66" on="1"/>
        <pt x="86" y="123" on="0"/>
        <pt x="180" y="144" on="1"/>
        <pt x="212" y="151" on="0"/>
        <pt x="257" y="151" on="1"/>
        <pt x="340" y="151" on="1"/>
        <pt x="340" y="1387" on="1"/>
        <pt x="301" y="1387" on="1"/>
        <pt x="110" y="1387" on="0"/>
        <pt x="110" y="1479" on="1"/>
        <pt x="110" y="1555" on="0"/>
        <pt x="249" y="1555" on="1"/>
        <pt x="697" y="1541" on="1"/>
        <pt x="877" y="1541" on="0"/>
        <pt x="1001" y="1563" on="1"/>
        <pt x="996" y="1579" on="0"/>
        <pt x="996" y="1616" on="0"/>
        <pt x="1034" y="1653" on="0"/>
        <pt x="1070" y="1653" on="1"/>
        <pt x="1160" y="1653" on="0"/>
        <pt x="1273" y="1344" on="1"/>
        <pt x="1294" y="1286" on="0"/>
        <pt x="1294" y="1256" on="1"/>
        <pt x="1294" y="1187" on="0"/>
        <pt x="1232" y="1187" on="1"/>
        <pt x="1177" y="1187" on="0"/>
        <pt x="1140" y="1294" on="1"/>
        <pt x="1117" y="1360" on="0"/>
        <pt x="1016" y="1413" on="0"/>
        <pt x="938" y="1413" on="1"/>
        <pt x="913" y="1413" on="1"/>
        <pt x="861" y="1413" on="0"/>
        <pt x="721" y="1401" on="0"/>
        <pt x="680" y="1398" on="1"/>
        <pt x="597" y="1392" on="1"/>
        <pt x="556" y="1389" on="0"/>
        <pt x="526" y="1387" on="1"/>
        <pt x="526" y="947" on="1"/>
        <pt x="766" y="947" on="0"/>
        <pt x="834" y="960" on="0"/>
        <pt x="866" y="987" on="0"/>
        <pt x="879" y="1064" on="0"/>
        <pt x="929" y="1101" on="0"/>
        <pt x="981" y="1101" on="0"/>
        <pt x="1020" y="1070" on="0"/>
        <pt x="1020" y="1015" on="0"/>
        <pt x="984" y="919" on="0"/>
        <pt x="984" y="824" on="0"/>
        <pt x="1002" y="777" on="1"/>
        <pt x="1028" y="705" on="1"/>
        <pt x="1038" y="680" on="0"/>
        <pt x="1038" y="619" on="0"/>
        <pt x="993" y="583" on="0"/>
        <pt x="960" y="583" on="1"/>
        <pt x="895" y="583" on="0"/>
        <pt x="864" y="751" on="0"/>
        <pt x="826" y="800" on="0"/>
        <pt x="777" y="800" on="1"/>
        <pt x="526" y="800" on="1"/>
        <pt x="526" y="151" on="1"/>
        <pt x="569" y="150" on="0"/>
        <pt x="612" y="148" on="1"/>
        <pt x="701" y="144" on="1"/>
        <pt x="848" y="136" on="0"/>
        <pt x="978" y="136" on="0"/>
        <pt x="1044" y="180" on="0"/>
        <pt x="1142" y="327" on="0"/>
        <pt x="1192" y="377" on="0"/>
      </contour>
    </TTGlyph>
    <TTGlyph name="Eth" xMin="51" yMin="-15" xMax="1492" yMax="1555">
      <contour>
        <pt x="884" y="779" on="1"/>
        <pt x="884" y="708" on="0"/>
        <pt x="780" y="708" on="1"/>
        <pt x="483" y="708" on="1"/>
        <pt x="483" y="143" on="1"/>
        <pt x="540" y="140" on="0"/>
        <pt x="757" y="140" on="0"/>
        <pt x="951" y="187" on="0"/>
        <pt x="1010" y="219" on="1"/>
        <pt x="1138" y="289" on="0"/>
        <pt x="1297" y="573" on="0"/>
        <pt x="1297" y="778" on="1"/>
        <pt x="1297" y="1154" on="0"/>
        <pt x="1049" y="1295" on="1"/>
        <pt x="863" y="1401" on="0"/>
        <pt x="542" y="1401" on="1"/>
        <pt x="515" y="1401" on="0"/>
        <pt x="483" y="1399" on="1"/>
        <pt x="483" y="850" on="1"/>
        <pt x="780" y="850" on="1"/>
        <pt x="833" y="850" on="0"/>
        <pt x="884" y="809" on="0"/>
      </contour>
      <contour>
        <pt x="298" y="1383" on="1"/>
        <pt x="182" y="1367" on="1"/>
        <pt x="51" y="1367" on="0"/>
        <pt x="51" y="1449" on="1"/>
        <pt x="51" y="1504" on="0"/>
        <pt x="173" y="1555" on="0"/>
        <pt x="353" y="1555" on="1"/>
        <pt x="545" y="1555" on="1"/>
        <pt x="1280" y="1555" on="0"/>
        <pt x="1440" y="1116" on="1"/>
        <pt x="1492" y="975" on="0"/>
        <pt x="1492" y="821" on="1"/>
        <pt x="1492" y="542" on="0"/>
        <pt x="1233" y="142" on="0"/>
        <pt x="843" y="-15" on="0"/>
        <pt x="606" y="-15" on="1"/>
        <pt x="395" y="0" on="1"/>
        <pt x="336" y="0" on="0"/>
        <pt x="238" y="-13" on="0"/>
        <pt x="199" y="-13" on="1"/>
        <pt x="76" y="-13" on="0"/>
        <pt x="76" y="168" on="0"/>
        <pt x="222" y="168" on="1"/>
        <pt x="264" y="168" on="1"/>
        <pt x="281" y="168" on="0"/>
        <pt x="298" y="166" on="1"/>
        <pt x="298" y="708" on="1"/>
        <pt x="187" y="708" on="1"/>
        <pt x="80" y="708" on="0"/>
        <pt x="80" y="850" on="0"/>
        <pt x="187" y="850" on="1"/>
        <pt x="298" y="850" on="1"/>
      </contour>
    </TTGlyph>
    <TTGlyph name="Euro" xMin="38" yMin="-15" xMax="1672" yMax="1575">
      <contour>
        <pt x="145" y="555" on="1"/>
        <pt x="38" y="555" on="0"/>
        <pt x="38" y="697" on="0"/>
        <pt x="145" y="697" on="1"/>
        <pt x="278" y="697" on="1"/>
        <pt x="275" y="737" on="0"/>
        <pt x="275" y="823" on="0"/>
        <pt x="279" y="865" on="1"/>
        <pt x="145" y="865" on="1"/>
        <pt x="38" y="865" on="0"/>
        <pt x="38" y="1007" on="0"/>
        <pt x="145" y="1007" on="1"/>
        <pt x="302" y="1007" on="1"/>
        <pt x="368" y="1265" on="0"/>
        <pt x="773" y="1575" on="0"/>
        <pt x="1332" y="1575" on="0"/>
        <pt x="1511" y="1448" on="1"/>
        <pt x="1651" y="1347" on="0"/>
        <pt x="1651" y="1245" on="1"/>
        <pt x="1651" y="1208" on="0"/>
        <pt x="1615" y="1154" on="0"/>
        <pt x="1548" y="1154" on="0"/>
        <pt x="1501" y="1186" on="0"/>
        <pt x="1474" y="1228" on="1"/>
        <pt x="1419" y="1318" on="0"/>
        <pt x="1196" y="1427" on="0"/>
        <pt x="1071" y="1427" on="1"/>
        <pt x="842" y="1427" on="0"/>
        <pt x="551" y="1200" on="0"/>
        <pt x="498" y="1007" on="1"/>
        <pt x="1218" y="1007" on="1"/>
        <pt x="1271" y="1007" on="0"/>
        <pt x="1322" y="966" on="0"/>
        <pt x="1322" y="936" on="1"/>
        <pt x="1322" y="865" on="0"/>
        <pt x="1218" y="865" on="1"/>
        <pt x="472" y="865" on="1"/>
        <pt x="469" y="826" on="0"/>
        <pt x="469" y="739" on="0"/>
        <pt x="473" y="697" on="1"/>
        <pt x="1088" y="697" on="1"/>
        <pt x="1141" y="697" on="0"/>
        <pt x="1192" y="656" on="0"/>
        <pt x="1192" y="626" on="1"/>
        <pt x="1192" y="555" on="0"/>
        <pt x="1088" y="555" on="1"/>
        <pt x="501" y="555" on="1"/>
        <pt x="560" y="356" on="0"/>
        <pt x="878" y="133" on="0"/>
        <pt x="1308" y="133" on="0"/>
        <pt x="1436" y="254" on="1"/>
        <pt x="1477" y="292" on="0"/>
        <pt x="1518" y="376" on="0"/>
        <pt x="1561" y="405" on="0"/>
        <pt x="1630" y="405" on="0"/>
        <pt x="1672" y="358" on="0"/>
        <pt x="1672" y="315" on="1"/>
        <pt x="1672" y="234" on="0"/>
        <pt x="1521" y="113" on="1"/>
        <pt x="1355" y="-15" on="0"/>
        <pt x="786" y="-15" on="0"/>
        <pt x="369" y="288" on="0"/>
        <pt x="302" y="555" on="1"/>
      </contour>
    </TTGlyph>
    <TTGlyph name="F" xMin="111" yMin="-6" xMax="1265" yMax="1653">
      <contour>
        <pt x="429" y="0" on="1"/>
        <pt x="229" y="-6" on="1"/>
        <pt x="184" y="-6" on="0"/>
        <pt x="132" y="37" on="0"/>
        <pt x="132" y="109" on="0"/>
        <pt x="193" y="155" on="0"/>
        <pt x="244" y="155" on="1"/>
        <pt x="311" y="155" on="1"/>
        <pt x="311" y="1387" on="1"/>
        <pt x="272" y="1387" on="1"/>
        <pt x="185" y="1387" on="0"/>
        <pt x="111" y="1440" on="0"/>
        <pt x="111" y="1479" on="1"/>
        <pt x="111" y="1555" on="0"/>
        <pt x="250" y="1555" on="1"/>
        <pt x="710" y="1541" on="1"/>
        <pt x="852" y="1541" on="0"/>
        <pt x="972" y="1563" on="1"/>
        <pt x="967" y="1579" on="0"/>
        <pt x="967" y="1616" on="0"/>
        <pt x="1005" y="1653" on="0"/>
        <pt x="1041" y="1653" on="1"/>
        <pt x="1131" y="1653" on="0"/>
        <pt x="1244" y="1344" on="1"/>
        <pt x="1265" y="1286" on="0"/>
        <pt x="1265" y="1256" on="1"/>
        <pt x="1265" y="1187" on="0"/>
        <pt x="1203" y="1187" on="1"/>
        <pt x="1148" y="1187" on="0"/>
        <pt x="1111" y="1294" on="1"/>
        <pt x="1088" y="1360" on="0"/>
        <pt x="987" y="1413" on="0"/>
        <pt x="909" y="1413" on="1"/>
        <pt x="886" y="1413" on="1"/>
        <pt x="873" y="1413" on="0"/>
        <pt x="848" y="1412" on="1"/>
        <pt x="790" y="1408" on="1"/>
        <pt x="772" y="1407" on="0"/>
        <pt x="699" y="1401" on="0"/>
        <pt x="656" y="1398" on="1"/>
        <pt x="497" y="1387" on="1"/>
        <pt x="497" y="882" on="1"/>
        <pt x="752" y="882" on="0"/>
        <pt x="816" y="896" on="0"/>
        <pt x="848" y="924" on="0"/>
        <pt x="854" y="962" on="1"/>
        <pt x="867" y="1036" on="0"/>
        <pt x="942" y="1036" on="1"/>
        <pt x="963" y="1036" on="0"/>
        <pt x="1002" y="1007" on="0"/>
        <pt x="1002" y="954" on="0"/>
        <pt x="966" y="853" on="0"/>
        <pt x="966" y="758" on="0"/>
        <pt x="984" y="713" on="1"/>
        <pt x="1010" y="642" on="1"/>
        <pt x="1020" y="617" on="0"/>
        <pt x="1020" y="556" on="0"/>
        <pt x="974" y="519" on="0"/>
        <pt x="942" y="519" on="1"/>
        <pt x="878" y="519" on="0"/>
        <pt x="846" y="688" on="0"/>
        <pt x="808" y="736" on="0"/>
        <pt x="759" y="736" on="1"/>
        <pt x="497" y="736" on="1"/>
        <pt x="497" y="155" on="1"/>
        <pt x="658" y="155" on="1"/>
        <pt x="728" y="155" on="0"/>
        <pt x="785" y="106" on="0"/>
        <pt x="785" y="81" on="1"/>
        <pt x="785" y="-6" on="0"/>
        <pt x="679" y="-6" on="1"/>
        <pt x="655" y="-6" on="1"/>
        <pt x="641" y="-6" on="0"/>
        <pt x="626" y="-6" on="1"/>
        <pt x="595" y="-4" on="1"/>
        <pt x="580" y="-4" on="0"/>
        <pt x="550" y="-3" on="0"/>
        <pt x="506" y="-2" on="1"/>
        <pt x="466" y="0" on="1"/>
        <pt x="446" y="0" on="0"/>
      </contour>
    </TTGlyph>
    <TTGlyph name="G" xMin="88" yMin="-15" xMax="1494" yMax="1621">
      <contour>
        <pt x="1134" y="883" on="1"/>
        <pt x="1343" y="894" on="1"/>
        <pt x="1464" y="894" on="0"/>
        <pt x="1483" y="816" on="1"/>
        <pt x="1489" y="791" on="0"/>
        <pt x="1489" y="761" on="1"/>
        <pt x="1489" y="448" on="1"/>
        <pt x="1489" y="321" on="0"/>
        <pt x="1415" y="200" on="0"/>
        <pt x="1314" y="121" on="1"/>
        <pt x="1213" y="37" on="0"/>
        <pt x="1004" y="-1" on="1"/>
        <pt x="927" y="-15" on="0"/>
        <pt x="681" y="-15" on="0"/>
        <pt x="407" y="86" on="0"/>
        <pt x="306" y="183" on="1"/>
        <pt x="88" y="392" on="0"/>
        <pt x="88" y="1120" on="0"/>
        <pt x="526" y="1555" on="0"/>
        <pt x="883" y="1555" on="1"/>
        <pt x="1036" y="1555" on="0"/>
        <pt x="1131" y="1538" on="1"/>
        <pt x="1130" y="1543" on="0"/>
        <pt x="1130" y="1546" on="1"/>
        <pt x="1130" y="1552" on="1"/>
        <pt x="1132" y="1584" on="0"/>
        <pt x="1173" y="1621" on="0"/>
        <pt x="1230" y="1621" on="0"/>
        <pt x="1286" y="1567" on="0"/>
        <pt x="1345" y="1442" on="0"/>
        <pt x="1368" y="1412" on="1"/>
        <pt x="1448" y="1307" on="1"/>
        <pt x="1494" y="1248" on="0"/>
        <pt x="1494" y="1173" on="0"/>
        <pt x="1455" y="1127" on="0"/>
        <pt x="1389" y="1127" on="0"/>
        <pt x="1336" y="1164" on="0"/>
        <pt x="1304" y="1216" on="1"/>
        <pt x="1243" y="1317" on="0"/>
        <pt x="1034" y="1401" on="0"/>
        <pt x="890" y="1401" on="1"/>
        <pt x="615" y="1401" on="0"/>
        <pt x="283" y="1061" on="0"/>
        <pt x="283" y="466" on="0"/>
        <pt x="599" y="148" on="0"/>
        <pt x="844" y="148" on="1"/>
        <pt x="1009" y="148" on="0"/>
        <pt x="1139" y="200" on="1"/>
        <pt x="1197" y="224" on="0"/>
        <pt x="1283" y="306" on="0"/>
        <pt x="1316" y="375" on="0"/>
        <pt x="1316" y="490" on="1"/>
        <pt x="1316" y="686" on="1"/>
        <pt x="1316" y="700" on="0"/>
        <pt x="1295" y="725" on="0"/>
        <pt x="1268" y="725" on="1"/>
        <pt x="1164" y="725" on="0"/>
        <pt x="989" y="712" on="0"/>
        <pt x="873" y="712" on="0"/>
        <pt x="822" y="762" on="0"/>
        <pt x="822" y="799" on="1"/>
        <pt x="822" y="888" on="0"/>
        <pt x="969" y="888" on="1"/>
        <pt x="999" y="888" on="0"/>
        <pt x="1020" y="887" on="1"/>
        <pt x="1056" y="885" on="1"/>
        <pt x="1100" y="883" on="0"/>
      </contour>
    </TTGlyph>
    <TTGlyph name="Gbreve" xMin="88" yMin="-15" xMax="1494" yMax="2020">
      <contour>
        <pt x="1132" y="1948" on="1"/>
        <pt x="1132" y="1830" on="0"/>
        <pt x="944" y="1639" on="0"/>
        <pt x="661" y="1639" on="0"/>
        <pt x="488" y="1841" on="0"/>
        <pt x="488" y="1948" on="1"/>
        <pt x="488" y="1982" on="0"/>
        <pt x="529" y="2020" on="0"/>
        <pt x="601" y="2020" on="0"/>
        <pt x="649" y="1974" on="0"/>
        <pt x="649" y="1879" on="0"/>
        <pt x="741" y="1790" on="0"/>
        <pt x="814" y="1790" on="1"/>
        <pt x="923" y="1790" on="0"/>
        <pt x="954" y="1882" on="1"/>
        <pt x="962" y="1908" on="0"/>
        <pt x="962" y="1973" on="0"/>
        <pt x="1011" y="2020" on="0"/>
        <pt x="1051" y="2020" on="1"/>
        <pt x="1132" y="2020" on="0"/>
      </contour>
      <contour>
        <pt x="1134" y="883" on="1"/>
        <pt x="1343" y="894" on="1"/>
        <pt x="1464" y="894" on="0"/>
        <pt x="1483" y="816" on="1"/>
        <pt x="1489" y="791" on="0"/>
        <pt x="1489" y="761" on="1"/>
        <pt x="1489" y="448" on="1"/>
        <pt x="1489" y="321" on="0"/>
        <pt x="1415" y="200" on="0"/>
        <pt x="1314" y="121" on="1"/>
        <pt x="1213" y="37" on="0"/>
        <pt x="1004" y="-1" on="1"/>
        <pt x="927" y="-15" on="0"/>
        <pt x="681" y="-15" on="0"/>
        <pt x="407" y="86" on="0"/>
        <pt x="306" y="183" on="1"/>
        <pt x="88" y="392" on="0"/>
        <pt x="88" y="1120" on="0"/>
        <pt x="526" y="1555" on="0"/>
        <pt x="883" y="1555" on="1"/>
        <pt x="1044" y="1555" on="0"/>
        <pt x="1161" y="1533" on="1"/>
        <pt x="1166" y="1560" on="0"/>
        <pt x="1205" y="1591" on="0"/>
        <pt x="1224" y="1591" on="1"/>
        <pt x="1300" y="1591" on="0"/>
        <pt x="1323" y="1505" on="1"/>
        <pt x="1338" y="1445" on="0"/>
        <pt x="1377" y="1395" on="0"/>
        <pt x="1401" y="1368" on="0"/>
        <pt x="1417" y="1348" on="1"/>
        <pt x="1448" y="1307" on="1"/>
        <pt x="1494" y="1248" on="0"/>
        <pt x="1494" y="1173" on="0"/>
        <pt x="1455" y="1127" on="0"/>
        <pt x="1389" y="1127" on="0"/>
        <pt x="1336" y="1164" on="0"/>
        <pt x="1304" y="1216" on="1"/>
        <pt x="1243" y="1317" on="0"/>
        <pt x="1034" y="1401" on="0"/>
        <pt x="890" y="1401" on="1"/>
        <pt x="615" y="1401" on="0"/>
        <pt x="283" y="1061" on="0"/>
        <pt x="283" y="466" on="0"/>
        <pt x="599" y="148" on="0"/>
        <pt x="844" y="148" on="1"/>
        <pt x="1009" y="148" on="0"/>
        <pt x="1139" y="200" on="1"/>
        <pt x="1197" y="224" on="0"/>
        <pt x="1283" y="306" on="0"/>
        <pt x="1316" y="375" on="0"/>
        <pt x="1316" y="490" on="1"/>
        <pt x="1316" y="686" on="1"/>
        <pt x="1316" y="700" on="0"/>
        <pt x="1295" y="725" on="0"/>
        <pt x="1268" y="725" on="1"/>
        <pt x="1164" y="725" on="0"/>
        <pt x="989" y="712" on="0"/>
        <pt x="873" y="712" on="0"/>
        <pt x="822" y="762" on="0"/>
        <pt x="822" y="799" on="1"/>
        <pt x="822" y="888" on="0"/>
        <pt x="969" y="888" on="1"/>
        <pt x="999" y="888" on="0"/>
        <pt x="1020" y="887" on="1"/>
        <pt x="1056" y="885" on="1"/>
        <pt x="1100" y="883" on="0"/>
      </contour>
    </TTGlyph>
    <TTGlyph name="Gcircumflex" xMin="88" yMin="-15" xMax="1494" yMax="2020">
      <contour>
        <pt x="583" y="1646" on="0"/>
        <pt x="557" y="1639" on="0"/>
        <pt x="513" y="1639" on="0"/>
        <pt x="472" y="1677" on="0"/>
        <pt x="472" y="1744" on="0"/>
        <pt x="509" y="1789" on="0"/>
        <pt x="620" y="1869" on="0"/>
        <pt x="742" y="2005" on="0"/>
        <pt x="773" y="2020" on="0"/>
        <pt x="833" y="2020" on="0"/>
        <pt x="878" y="1970" on="1"/>
        <pt x="966" y="1871" on="0"/>
        <pt x="1096" y="1776" on="0"/>
        <pt x="1116" y="1730" on="0"/>
        <pt x="1116" y="1677" on="0"/>
        <pt x="1075" y="1639" on="0"/>
        <pt x="1030" y="1639" on="0"/>
        <pt x="995" y="1649" on="0"/>
        <pt x="966" y="1676" on="1"/>
        <pt x="794" y="1847" on="1"/>
        <pt x="614" y="1667" on="0"/>
      </contour>
      <contour>
        <pt x="1134" y="883" on="1"/>
        <pt x="1343" y="894" on="1"/>
        <pt x="1464" y="894" on="0"/>
        <pt x="1483" y="816" on="1"/>
        <pt x="1489" y="791" on="0"/>
        <pt x="1489" y="761" on="1"/>
        <pt x="1489" y="448" on="1"/>
        <pt x="1489" y="321" on="0"/>
        <pt x="1415" y="200" on="0"/>
        <pt x="1314" y="121" on="1"/>
        <pt x="1213" y="37" on="0"/>
        <pt x="1004" y="-1" on="1"/>
        <pt x="927" y="-15" on="0"/>
        <pt x="681" y="-15" on="0"/>
        <pt x="407" y="86" on="0"/>
        <pt x="306" y="183" on="1"/>
        <pt x="88" y="392" on="0"/>
        <pt x="88" y="1120" on="0"/>
        <pt x="526" y="1555" on="0"/>
        <pt x="883" y="1555" on="1"/>
        <pt x="1044" y="1555" on="0"/>
        <pt x="1161" y="1533" on="1"/>
        <pt x="1166" y="1560" on="0"/>
        <pt x="1205" y="1591" on="0"/>
        <pt x="1224" y="1591" on="1"/>
        <pt x="1300" y="1591" on="0"/>
        <pt x="1323" y="1505" on="1"/>
        <pt x="1338" y="1445" on="0"/>
        <pt x="1377" y="1395" on="0"/>
        <pt x="1401" y="1368" on="0"/>
        <pt x="1417" y="1348" on="1"/>
        <pt x="1448" y="1307" on="1"/>
        <pt x="1494" y="1248" on="0"/>
        <pt x="1494" y="1173" on="0"/>
        <pt x="1455" y="1127" on="0"/>
        <pt x="1389" y="1127" on="0"/>
        <pt x="1336" y="1164" on="0"/>
        <pt x="1304" y="1216" on="1"/>
        <pt x="1243" y="1317" on="0"/>
        <pt x="1034" y="1401" on="0"/>
        <pt x="890" y="1401" on="1"/>
        <pt x="615" y="1401" on="0"/>
        <pt x="283" y="1061" on="0"/>
        <pt x="283" y="466" on="0"/>
        <pt x="599" y="148" on="0"/>
        <pt x="844" y="148" on="1"/>
        <pt x="1009" y="148" on="0"/>
        <pt x="1139" y="200" on="1"/>
        <pt x="1197" y="224" on="0"/>
        <pt x="1283" y="306" on="0"/>
        <pt x="1316" y="375" on="0"/>
        <pt x="1316" y="490" on="1"/>
        <pt x="1316" y="686" on="1"/>
        <pt x="1316" y="700" on="0"/>
        <pt x="1295" y="725" on="0"/>
        <pt x="1268" y="725" on="1"/>
        <pt x="1164" y="725" on="0"/>
        <pt x="989" y="712" on="0"/>
        <pt x="873" y="712" on="0"/>
        <pt x="822" y="762" on="0"/>
        <pt x="822" y="799" on="1"/>
        <pt x="822" y="888" on="0"/>
        <pt x="969" y="888" on="1"/>
        <pt x="999" y="888" on="0"/>
        <pt x="1020" y="887" on="1"/>
        <pt x="1056" y="885" on="1"/>
        <pt x="1100" y="883" on="0"/>
      </contour>
    </TTGlyph>
    <TTGlyph name="Gcommaaccent" xMin="88" yMin="-540" xMax="1494" yMax="1621">
      <component glyphName="G" x="0" y="0" flags="0x1204"/>
      <component glyphName="commaaccent" x="609" y="0" flags="0x1004"/>
    </TTGlyph>
    <TTGlyph name="Gdotaccent" xMin="88" yMin="-15" xMax="1494" yMax="2004">
      <contour>
        <pt x="731" y="1717" on="0"/>
        <pt x="652" y="1796" on="0"/>
        <pt x="652" y="1924" on="0"/>
        <pt x="727" y="2004" on="0"/>
        <pt x="864" y="2004" on="0"/>
        <pt x="942" y="1926" on="0"/>
        <pt x="942" y="1800" on="0"/>
        <pt x="862" y="1717" on="0"/>
      </contour>
      <contour>
        <pt x="1134" y="883" on="1"/>
        <pt x="1343" y="894" on="1"/>
        <pt x="1464" y="894" on="0"/>
        <pt x="1483" y="816" on="1"/>
        <pt x="1489" y="791" on="0"/>
        <pt x="1489" y="761" on="1"/>
        <pt x="1489" y="448" on="1"/>
        <pt x="1489" y="321" on="0"/>
        <pt x="1415" y="200" on="0"/>
        <pt x="1314" y="121" on="1"/>
        <pt x="1213" y="37" on="0"/>
        <pt x="1004" y="-1" on="1"/>
        <pt x="927" y="-15" on="0"/>
        <pt x="681" y="-15" on="0"/>
        <pt x="407" y="86" on="0"/>
        <pt x="306" y="183" on="1"/>
        <pt x="88" y="392" on="0"/>
        <pt x="88" y="1120" on="0"/>
        <pt x="526" y="1555" on="0"/>
        <pt x="883" y="1555" on="1"/>
        <pt x="1044" y="1555" on="0"/>
        <pt x="1161" y="1533" on="1"/>
        <pt x="1166" y="1560" on="0"/>
        <pt x="1205" y="1591" on="0"/>
        <pt x="1224" y="1591" on="1"/>
        <pt x="1300" y="1591" on="0"/>
        <pt x="1323" y="1505" on="1"/>
        <pt x="1338" y="1445" on="0"/>
        <pt x="1377" y="1395" on="0"/>
        <pt x="1401" y="1368" on="0"/>
        <pt x="1417" y="1348" on="1"/>
        <pt x="1448" y="1307" on="1"/>
        <pt x="1494" y="1248" on="0"/>
        <pt x="1494" y="1173" on="0"/>
        <pt x="1455" y="1127" on="0"/>
        <pt x="1389" y="1127" on="0"/>
        <pt x="1336" y="1164" on="0"/>
        <pt x="1304" y="1216" on="1"/>
        <pt x="1243" y="1317" on="0"/>
        <pt x="1034" y="1401" on="0"/>
        <pt x="890" y="1401" on="1"/>
        <pt x="615" y="1401" on="0"/>
        <pt x="283" y="1061" on="0"/>
        <pt x="283" y="466" on="0"/>
        <pt x="599" y="148" on="0"/>
        <pt x="844" y="148" on="1"/>
        <pt x="1009" y="148" on="0"/>
        <pt x="1139" y="200" on="1"/>
        <pt x="1197" y="224" on="0"/>
        <pt x="1283" y="306" on="0"/>
        <pt x="1316" y="375" on="0"/>
        <pt x="1316" y="490" on="1"/>
        <pt x="1316" y="686" on="1"/>
        <pt x="1316" y="700" on="0"/>
        <pt x="1295" y="725" on="0"/>
        <pt x="1268" y="725" on="1"/>
        <pt x="1164" y="725" on="0"/>
        <pt x="989" y="712" on="0"/>
        <pt x="873" y="712" on="0"/>
        <pt x="822" y="762" on="0"/>
        <pt x="822" y="799" on="1"/>
        <pt x="822" y="888" on="0"/>
        <pt x="969" y="888" on="1"/>
        <pt x="999" y="888" on="0"/>
        <pt x="1020" y="887" on="1"/>
        <pt x="1056" y="885" on="1"/>
        <pt x="1100" y="883" on="0"/>
      </contour>
    </TTGlyph>
    <TTGlyph name="H" xMin="111" yMin="0" xMax="1592" yMax="1555">
      <contour>
        <pt x="408" y="6" on="1"/>
        <pt x="208" y="0" on="1"/>
        <pt x="163" y="0" on="0"/>
        <pt x="111" y="43" on="0"/>
        <pt x="111" y="115" on="0"/>
        <pt x="172" y="161" on="0"/>
        <pt x="225" y="161" on="1"/>
        <pt x="307" y="161" on="1"/>
        <pt x="307" y="1394" on="1"/>
        <pt x="225" y="1394" on="1"/>
        <pt x="172" y="1394" on="0"/>
        <pt x="111" y="1438" on="0"/>
        <pt x="111" y="1510" on="0"/>
        <pt x="163" y="1555" on="0"/>
        <pt x="208" y="1555" on="1"/>
        <pt x="408" y="1548" on="1"/>
        <pt x="595" y="1555" on="1"/>
        <pt x="675" y="1555" on="0"/>
        <pt x="696" y="1506" on="1"/>
        <pt x="702" y="1492" on="0"/>
        <pt x="702" y="1477" on="1"/>
        <pt x="702" y="1394" on="0"/>
        <pt x="574" y="1394" on="1"/>
        <pt x="493" y="1394" on="1"/>
        <pt x="493" y="996" on="1"/>
        <pt x="1211" y="996" on="1"/>
        <pt x="1211" y="1394" on="1"/>
        <pt x="1117" y="1394" on="1"/>
        <pt x="1066" y="1394" on="0"/>
        <pt x="1004" y="1438" on="0"/>
        <pt x="1004" y="1510" on="0"/>
        <pt x="1056" y="1555" on="0"/>
        <pt x="1102" y="1555" on="1"/>
        <pt x="1301" y="1548" on="1"/>
        <pt x="1486" y="1555" on="1"/>
        <pt x="1567" y="1555" on="0"/>
        <pt x="1586" y="1506" on="1"/>
        <pt x="1592" y="1492" on="0"/>
        <pt x="1592" y="1477" on="1"/>
        <pt x="1592" y="1394" on="0"/>
        <pt x="1468" y="1394" on="1"/>
        <pt x="1396" y="1394" on="1"/>
        <pt x="1396" y="161" on="1"/>
        <pt x="1468" y="161" on="1"/>
        <pt x="1537" y="161" on="0"/>
        <pt x="1592" y="112" on="0"/>
        <pt x="1592" y="87" on="1"/>
        <pt x="1592" y="0" on="0"/>
        <pt x="1486" y="0" on="1"/>
        <pt x="1301" y="6" on="1"/>
        <pt x="1102" y="0" on="1"/>
        <pt x="1056" y="0" on="0"/>
        <pt x="1004" y="43" on="0"/>
        <pt x="1004" y="115" on="0"/>
        <pt x="1066" y="161" on="0"/>
        <pt x="1117" y="161" on="1"/>
        <pt x="1211" y="161" on="1"/>
        <pt x="1211" y="849" on="1"/>
        <pt x="493" y="849" on="1"/>
        <pt x="493" y="161" on="1"/>
        <pt x="574" y="161" on="1"/>
        <pt x="644" y="161" on="0"/>
        <pt x="702" y="112" on="0"/>
        <pt x="702" y="87" on="1"/>
        <pt x="702" y="0" on="0"/>
        <pt x="595" y="0" on="1"/>
      </contour>
    </TTGlyph>
    <TTGlyph name="Hbar" xMin="113" yMin="0" xMax="1594" yMax="1575">
      <contour>
        <pt x="1213" y="674" on="1"/>
        <pt x="1213" y="855" on="1"/>
        <pt x="495" y="855" on="1"/>
        <pt x="495" y="674" on="1"/>
      </contour>
      <contour>
        <pt x="410" y="6" on="1"/>
        <pt x="210" y="0" on="1"/>
        <pt x="165" y="0" on="0"/>
        <pt x="113" y="43" on="0"/>
        <pt x="113" y="115" on="0"/>
        <pt x="174" y="161" on="0"/>
        <pt x="227" y="161" on="1"/>
        <pt x="309" y="161" on="1"/>
        <pt x="309" y="855" on="1"/>
        <pt x="240" y="855" on="1"/>
        <pt x="113" y="855" on="0"/>
        <pt x="113" y="936" on="1"/>
        <pt x="113" y="971" on="0"/>
        <pt x="174" y="1017" on="0"/>
        <pt x="240" y="1017" on="1"/>
        <pt x="309" y="1017" on="1"/>
        <pt x="309" y="1414" on="1"/>
        <pt x="227" y="1414" on="1"/>
        <pt x="174" y="1414" on="0"/>
        <pt x="113" y="1458" on="0"/>
        <pt x="113" y="1530" on="0"/>
        <pt x="165" y="1575" on="0"/>
        <pt x="210" y="1575" on="1"/>
        <pt x="410" y="1568" on="1"/>
        <pt x="597" y="1575" on="1"/>
        <pt x="677" y="1575" on="0"/>
        <pt x="698" y="1526" on="1"/>
        <pt x="704" y="1512" on="0"/>
        <pt x="704" y="1497" on="1"/>
        <pt x="704" y="1414" on="0"/>
        <pt x="576" y="1414" on="1"/>
        <pt x="495" y="1414" on="1"/>
        <pt x="495" y="1017" on="1"/>
        <pt x="1213" y="1017" on="1"/>
        <pt x="1213" y="1414" on="1"/>
        <pt x="1119" y="1414" on="1"/>
        <pt x="1068" y="1414" on="0"/>
        <pt x="1006" y="1458" on="0"/>
        <pt x="1006" y="1530" on="0"/>
        <pt x="1058" y="1575" on="0"/>
        <pt x="1104" y="1575" on="1"/>
        <pt x="1303" y="1568" on="1"/>
        <pt x="1488" y="1575" on="1"/>
        <pt x="1569" y="1575" on="0"/>
        <pt x="1588" y="1526" on="1"/>
        <pt x="1594" y="1512" on="0"/>
        <pt x="1594" y="1497" on="1"/>
        <pt x="1594" y="1414" on="0"/>
        <pt x="1470" y="1414" on="1"/>
        <pt x="1398" y="1414" on="1"/>
        <pt x="1398" y="1017" on="1"/>
        <pt x="1469" y="1017" on="1"/>
        <pt x="1526" y="1017" on="0"/>
        <pt x="1593" y="975" on="0"/>
        <pt x="1593" y="936" on="1"/>
        <pt x="1593" y="855" on="0"/>
        <pt x="1469" y="855" on="1"/>
        <pt x="1398" y="855" on="1"/>
        <pt x="1398" y="161" on="1"/>
        <pt x="1470" y="161" on="1"/>
        <pt x="1539" y="161" on="0"/>
        <pt x="1594" y="112" on="0"/>
        <pt x="1594" y="87" on="1"/>
        <pt x="1594" y="0" on="0"/>
        <pt x="1488" y="0" on="1"/>
        <pt x="1303" y="6" on="1"/>
        <pt x="1104" y="0" on="1"/>
        <pt x="1058" y="0" on="0"/>
        <pt x="1006" y="43" on="0"/>
        <pt x="1006" y="115" on="0"/>
        <pt x="1068" y="161" on="0"/>
        <pt x="1119" y="161" on="1"/>
        <pt x="1213" y="161" on="1"/>
        <pt x="1213" y="527" on="1"/>
        <pt x="495" y="527" on="1"/>
        <pt x="495" y="161" on="1"/>
        <pt x="576" y="161" on="1"/>
        <pt x="646" y="161" on="0"/>
        <pt x="704" y="112" on="0"/>
        <pt x="704" y="87" on="1"/>
        <pt x="704" y="0" on="0"/>
        <pt x="597" y="0" on="1"/>
      </contour>
    </TTGlyph>
    <TTGlyph name="Hcircumflex" xMin="111" yMin="0" xMax="1592" yMax="2020">
      <component glyphName="H" x="0" y="0" flags="0x1204"/>
      <component glyphName="circumflex.cap" x="614" y="0" flags="0x1004"/>
    </TTGlyph>
    <TTGlyph name="I" xMin="139" yMin="0" xMax="708" yMax="1555">
      <contour>
        <pt x="426" y="6" on="1"/>
        <pt x="236" y="0" on="1"/>
        <pt x="191" y="0" on="0"/>
        <pt x="139" y="43" on="0"/>
        <pt x="139" y="115" on="0"/>
        <pt x="200" y="161" on="0"/>
        <pt x="251" y="161" on="1"/>
        <pt x="336" y="161" on="1"/>
        <pt x="336" y="1394" on="1"/>
        <pt x="251" y="1394" on="1"/>
        <pt x="200" y="1394" on="0"/>
        <pt x="139" y="1438" on="0"/>
        <pt x="139" y="1510" on="0"/>
        <pt x="191" y="1555" on="0"/>
        <pt x="236" y="1555" on="1"/>
        <pt x="426" y="1548" on="1"/>
        <pt x="601" y="1555" on="1"/>
        <pt x="683" y="1555" on="0"/>
        <pt x="702" y="1506" on="1"/>
        <pt x="708" y="1492" on="0"/>
        <pt x="708" y="1477" on="1"/>
        <pt x="708" y="1394" on="0"/>
        <pt x="582" y="1394" on="1"/>
        <pt x="522" y="1394" on="1"/>
        <pt x="522" y="161" on="1"/>
        <pt x="582" y="161" on="1"/>
        <pt x="652" y="161" on="0"/>
        <pt x="708" y="112" on="0"/>
        <pt x="708" y="87" on="1"/>
        <pt x="708" y="0" on="0"/>
        <pt x="601" y="0" on="1"/>
      </contour>
    </TTGlyph>
    <TTGlyph name="IJ" xMin="188" yMin="-15" xMax="2029" yMax="1619">
      <component glyphName="I" x="49" y="0" flags="0x1004"/>
      <component glyphName="J" x="818" y="0" flags="0x1004"/>
    </TTGlyph>
    <TTGlyph name="Iacute" xMin="139" yMin="0" xMax="708" yMax="2020">
      <component glyphName="I" x="0" y="0" flags="0x1204"/>
      <component glyphName="acute.cap" x="162" y="0" flags="0x1004"/>
    </TTGlyph>
    <TTGlyph name="Ibreve" xMin="134" yMin="0" xMax="778" yMax="2020">
      <component glyphName="I" x="0" y="0" flags="0x1204"/>
      <component glyphName="breve.cap" x="196" y="0" flags="0x1004"/>
    </TTGlyph>
    <TTGlyph name="Icircumflex" xMin="112" yMin="0" xMax="756" yMax="2020">
      <component glyphName="I" x="0" y="0" flags="0x1204"/>
      <component glyphName="circumflex.cap" x="174" y="0" flags="0x1004"/>
    </TTGlyph>
    <TTGlyph name="Idieresis" xMin="64" yMin="0" xMax="803" yMax="1982">
      <component glyphName="I" x="0" y="0" flags="0x1204"/>
      <component glyphName="dieresis.cap" x="-6" y="0" flags="0x1004"/>
    </TTGlyph>
    <TTGlyph name="Idotaccent" xMin="139" yMin="0" xMax="708" yMax="2004">
      <component glyphName="I" x="0" y="0" flags="0x1204"/>
      <component glyphName="dotaccent.cap" x="183" y="0" flags="0x1004"/>
    </TTGlyph>
    <TTGlyph name="Igrave" xMin="139" yMin="0" xMax="708" yMax="2020">
      <component glyphName="I" x="0" y="0" flags="0x1204"/>
      <component glyphName="grave.cap" x="135" y="0" flags="0x1004"/>
    </TTGlyph>
    <TTGlyph name="Imacron" xMin="138" yMin="0" xMax="762" yMax="2020">
      <component glyphName="I" x="0" y="0" flags="0x1204"/>
      <component glyphName="macron.cap" x="180" y="0" flags="0x1004"/>
    </TTGlyph>
    <TTGlyph name="Iogonek" xMin="139" yMin="-497" xMax="712" yMax="1555">
      <contour>
        <pt x="314" y="3" on="1"/>
        <pt x="276" y="0" on="0"/>
        <pt x="191" y="0" on="0"/>
        <pt x="139" y="43" on="0"/>
        <pt x="139" y="115" on="0"/>
        <pt x="200" y="161" on="0"/>
        <pt x="251" y="161" on="1"/>
        <pt x="336" y="161" on="1"/>
        <pt x="336" y="1394" on="1"/>
        <pt x="251" y="1394" on="1"/>
        <pt x="200" y="1394" on="0"/>
        <pt x="139" y="1438" on="0"/>
        <pt x="139" y="1510" on="0"/>
        <pt x="191" y="1555" on="0"/>
        <pt x="236" y="1555" on="1"/>
        <pt x="426" y="1548" on="1"/>
        <pt x="601" y="1555" on="1"/>
        <pt x="683" y="1555" on="0"/>
        <pt x="702" y="1506" on="1"/>
        <pt x="708" y="1492" on="0"/>
        <pt x="708" y="1477" on="1"/>
        <pt x="708" y="1394" on="0"/>
        <pt x="582" y="1394" on="1"/>
        <pt x="522" y="1394" on="1"/>
        <pt x="522" y="161" on="1"/>
        <pt x="582" y="161" on="1"/>
        <pt x="652" y="161" on="0"/>
        <pt x="708" y="112" on="0"/>
        <pt x="708" y="44" on="0"/>
        <pt x="656" y="0" on="0"/>
        <pt x="570" y="0" on="0"/>
        <pt x="534" y="3" on="1"/>
        <pt x="523" y="3" on="1"/>
        <pt x="398" y="-128" on="0"/>
        <pt x="398" y="-255" on="1"/>
        <pt x="398" y="-294" on="0"/>
        <pt x="441" y="-348" on="0"/>
        <pt x="536" y="-348" on="0"/>
        <pt x="592" y="-273" on="0"/>
        <pt x="624" y="-249" on="0"/>
        <pt x="675" y="-249" on="0"/>
        <pt x="712" y="-284" on="0"/>
        <pt x="712" y="-320" on="1"/>
        <pt x="712" y="-388" on="0"/>
        <pt x="558" y="-497" on="0"/>
        <pt x="487" y="-497" on="1"/>
        <pt x="363" y="-497" on="0"/>
        <pt x="218" y="-363" on="0"/>
        <pt x="218" y="-123" on="0"/>
        <pt x="333" y="3" on="1"/>
      </contour>
    </TTGlyph>
    <TTGlyph name="Itilde" xMin="66" yMin="0" xMax="799" yMax="2020">
      <component glyphName="I" x="0" y="0" flags="0x1204"/>
      <component glyphName="tilde.cap" x="172" y="0" flags="0x1004"/>
    </TTGlyph>
    <TTGlyph name="J" xMin="113" yMin="-15" xMax="1211" yMax="1619">
      <contour>
        <pt x="348" y="1224" on="1"/>
        <pt x="266" y="1224" on="0"/>
        <pt x="266" y="1298" on="1"/>
        <pt x="266" y="1335" on="0"/>
        <pt x="378" y="1482" on="0"/>
        <pt x="412" y="1591" on="0"/>
        <pt x="454" y="1619" on="0"/>
        <pt x="518" y="1619" on="0"/>
        <pt x="557" y="1573" on="0"/>
        <pt x="559" y="1541" on="1"/>
        <pt x="787" y="1541" on="1"/>
        <pt x="876" y="1541" on="0"/>
        <pt x="1038" y="1555" on="0"/>
        <pt x="1070" y="1555" on="1"/>
        <pt x="1211" y="1555" on="0"/>
        <pt x="1211" y="1429" on="1"/>
        <pt x="1211" y="1415" on="0"/>
        <pt x="1199" y="1235" on="0"/>
        <pt x="1199" y="1081" on="1"/>
        <pt x="1199" y="685" on="1"/>
        <pt x="1199" y="443" on="0"/>
        <pt x="1145" y="313" on="1"/>
        <pt x="1044" y="77" on="0"/>
        <pt x="784" y="8" on="1"/>
        <pt x="700" y="-15" on="0"/>
        <pt x="484" y="-15" on="0"/>
        <pt x="300" y="63" on="0"/>
        <pt x="238" y="127" on="1"/>
        <pt x="113" y="256" on="0"/>
        <pt x="113" y="596" on="0"/>
        <pt x="325" y="849" on="0"/>
        <pt x="488" y="849" on="1"/>
        <pt x="572" y="849" on="0"/>
        <pt x="664" y="783" on="0"/>
        <pt x="664" y="679" on="0"/>
        <pt x="601" y="620" on="0"/>
        <pt x="521" y="620" on="0"/>
        <pt x="471" y="652" on="0"/>
        <pt x="444" y="652" on="1"/>
        <pt x="380" y="652" on="0"/>
        <pt x="298" y="532" on="0"/>
        <pt x="298" y="455" on="1"/>
        <pt x="298" y="314" on="0"/>
        <pt x="474" y="146" on="0"/>
        <pt x="610" y="146" on="1"/>
        <pt x="834" y="146" on="0"/>
        <pt x="939" y="306" on="1"/>
        <pt x="1001" y="399" on="0"/>
        <pt x="1008" y="530" on="1"/>
        <pt x="1013" y="606" on="0"/>
        <pt x="1013" y="696" on="1"/>
        <pt x="1013" y="1384" on="1"/>
        <pt x="688" y="1381" on="0"/>
        <pt x="550" y="1352" on="0"/>
        <pt x="473" y="1320" on="0"/>
        <pt x="387" y="1224" on="0"/>
      </contour>
    </TTGlyph>
    <TTGlyph name="Jcircumflex" xMin="113" yMin="-15" xMax="1211" yMax="2020">
      <contour>
        <pt x="571" y="1646" on="0"/>
        <pt x="545" y="1639" on="0"/>
        <pt x="501" y="1639" on="0"/>
        <pt x="460" y="1677" on="0"/>
        <pt x="460" y="1744" on="0"/>
        <pt x="497" y="1789" on="0"/>
        <pt x="608" y="1869" on="0"/>
        <pt x="730" y="2005" on="0"/>
        <pt x="761" y="2020" on="0"/>
        <pt x="821" y="2020" on="0"/>
        <pt x="866" y="1970" on="1"/>
        <pt x="954" y="1871" on="0"/>
        <pt x="1084" y="1776" on="0"/>
        <pt x="1104" y="1730" on="0"/>
        <pt x="1104" y="1677" on="0"/>
        <pt x="1063" y="1639" on="0"/>
        <pt x="1018" y="1639" on="0"/>
        <pt x="983" y="1649" on="0"/>
        <pt x="954" y="1676" on="1"/>
        <pt x="782" y="1847" on="1"/>
        <pt x="602" y="1667" on="0"/>
      </contour>
      <contour>
        <pt x="228" y="1224" on="1"/>
        <pt x="146" y="1224" on="0"/>
        <pt x="146" y="1298" on="1"/>
        <pt x="146" y="1335" on="0"/>
        <pt x="258" y="1482" on="0"/>
        <pt x="292" y="1591" on="0"/>
        <pt x="334" y="1619" on="0"/>
        <pt x="398" y="1619" on="0"/>
        <pt x="437" y="1573" on="0"/>
        <pt x="439" y="1541" on="1"/>
        <pt x="667" y="1541" on="1"/>
        <pt x="876" y="1541" on="0"/>
        <pt x="1038" y="1555" on="0"/>
        <pt x="1070" y="1555" on="1"/>
        <pt x="1211" y="1555" on="0"/>
        <pt x="1211" y="1429" on="1"/>
        <pt x="1211" y="1415" on="0"/>
        <pt x="1199" y="1235" on="0"/>
        <pt x="1199" y="1081" on="1"/>
        <pt x="1199" y="685" on="1"/>
        <pt x="1199" y="443" on="0"/>
        <pt x="1145" y="313" on="1"/>
        <pt x="1044" y="77" on="0"/>
        <pt x="784" y="8" on="1"/>
        <pt x="700" y="-15" on="0"/>
        <pt x="484" y="-15" on="0"/>
        <pt x="300" y="63" on="0"/>
        <pt x="238" y="127" on="1"/>
        <pt x="113" y="256" on="0"/>
        <pt x="113" y="596" on="0"/>
        <pt x="325" y="849" on="0"/>
        <pt x="488" y="849" on="1"/>
        <pt x="572" y="849" on="0"/>
        <pt x="664" y="783" on="0"/>
        <pt x="664" y="679" on="0"/>
        <pt x="601" y="620" on="0"/>
        <pt x="521" y="620" on="0"/>
        <pt x="471" y="652" on="0"/>
        <pt x="444" y="652" on="1"/>
        <pt x="380" y="652" on="0"/>
        <pt x="298" y="532" on="0"/>
        <pt x="298" y="455" on="1"/>
        <pt x="298" y="314" on="0"/>
        <pt x="474" y="146" on="0"/>
        <pt x="610" y="146" on="1"/>
        <pt x="834" y="146" on="0"/>
        <pt x="939" y="306" on="1"/>
        <pt x="1001" y="399" on="0"/>
        <pt x="1008" y="530" on="1"/>
        <pt x="1013" y="606" on="0"/>
        <pt x="1013" y="696" on="1"/>
        <pt x="1013" y="1384" on="1"/>
        <pt x="916" y="1384" on="0"/>
        <pt x="818" y="1384" on="1"/>
        <pt x="659" y="1383" on="1"/>
        <pt x="426" y="1376" on="0"/>
        <pt x="367" y="1332" on="1"/>
        <pt x="352" y="1320" on="0"/>
        <pt x="340" y="1306" on="1"/>
        <pt x="313" y="1273" on="1"/>
        <pt x="267" y="1224" on="0"/>
      </contour>
    </TTGlyph>
    <TTGlyph name="K" xMin="137" yMin="-1" xMax="1590" yMax="1555">
      <contour>
        <pt x="1590" y="87" on="1"/>
        <pt x="1590" y="0" on="0"/>
        <pt x="1490" y="0" on="1"/>
        <pt x="1442" y="0" on="0"/>
        <pt x="1355" y="6" on="0"/>
        <pt x="1303" y="6" on="1"/>
        <pt x="1211" y="3" on="1"/>
        <pt x="1161" y="0" on="0"/>
        <pt x="1078" y="0" on="0"/>
        <pt x="1026" y="43" on="0"/>
        <pt x="1026" y="115" on="0"/>
        <pt x="1087" y="161" on="0"/>
        <pt x="1138" y="161" on="1"/>
        <pt x="1211" y="161" on="1"/>
        <pt x="1114" y="466" on="0"/>
        <pt x="793" y="831" on="1"/>
        <pt x="669" y="747" on="0"/>
        <pt x="530" y="674" on="1"/>
        <pt x="530" y="161" on="1"/>
        <pt x="600" y="161" on="1"/>
        <pt x="670" y="161" on="0"/>
        <pt x="726" y="112" on="0"/>
        <pt x="726" y="87" on="1"/>
        <pt x="726" y="0" on="0"/>
        <pt x="619" y="0" on="1"/>
        <pt x="434" y="6" on="1"/>
        <pt x="234" y="0" on="1"/>
        <pt x="189" y="0" on="0"/>
        <pt x="137" y="43" on="0"/>
        <pt x="137" y="115" on="0"/>
        <pt x="198" y="161" on="0"/>
        <pt x="249" y="161" on="1"/>
        <pt x="344" y="161" on="1"/>
        <pt x="344" y="1394" on="1"/>
        <pt x="249" y="1394" on="1"/>
        <pt x="198" y="1394" on="0"/>
        <pt x="137" y="1438" on="0"/>
        <pt x="137" y="1510" on="0"/>
        <pt x="189" y="1555" on="0"/>
        <pt x="234" y="1555" on="1"/>
        <pt x="434" y="1548" on="1"/>
        <pt x="619" y="1555" on="1"/>
        <pt x="701" y="1555" on="0"/>
        <pt x="720" y="1506" on="1"/>
        <pt x="726" y="1492" on="0"/>
        <pt x="726" y="1477" on="1"/>
        <pt x="726" y="1394" on="0"/>
        <pt x="600" y="1394" on="1"/>
        <pt x="530" y="1394" on="1"/>
        <pt x="530" y="837" on="1"/>
        <pt x="748" y="959" on="0"/>
        <pt x="1026" y="1214" on="1"/>
        <pt x="1157" y="1334" on="0"/>
        <pt x="1297" y="1506" on="0"/>
        <pt x="1362" y="1555" on="0"/>
        <pt x="1431" y="1555" on="0"/>
        <pt x="1482" y="1517" on="0"/>
        <pt x="1482" y="1447" on="0"/>
        <pt x="1451" y="1389" on="0"/>
        <pt x="1409" y="1346" on="1"/>
        <pt x="1288" y="1226" on="0"/>
        <pt x="1217" y="1162" on="1"/>
        <pt x="1079" y="1043" on="1"/>
        <pt x="1011" y="987" on="0"/>
        <pt x="936" y="931" on="1"/>
        <pt x="1276" y="574" on="0"/>
        <pt x="1408" y="161" on="1"/>
        <pt x="1464" y="161" on="1"/>
        <pt x="1534" y="161" on="0"/>
        <pt x="1590" y="112" on="0"/>
      </contour>
    </TTGlyph>
    <TTGlyph name="Kcommaaccent" xMin="137" yMin="-540" xMax="1590" yMax="1555">
      <component glyphName="K" x="0" y="0" flags="0x1204"/>
      <component glyphName="commaaccent" x="597" y="0" flags="0x1004"/>
    </TTGlyph>
    <TTGlyph name="L" xMin="127" yMin="-123" xMax="1363" yMax="1555">
      <contour>
        <pt x="1022" y="-9" on="1"/>
        <pt x="901" y="16" on="0"/>
        <pt x="435" y="16" on="0"/>
        <pt x="233" y="0" on="0"/>
        <pt x="216" y="0" on="1"/>
        <pt x="127" y="0" on="0"/>
        <pt x="127" y="82" on="1"/>
        <pt x="127" y="139" on="0"/>
        <pt x="221" y="160" on="1"/>
        <pt x="253" y="167" on="0"/>
        <pt x="298" y="167" on="1"/>
        <pt x="381" y="167" on="1"/>
        <pt x="381" y="1394" on="1"/>
        <pt x="280" y="1394" on="1"/>
        <pt x="229" y="1394" on="0"/>
        <pt x="168" y="1438" on="0"/>
        <pt x="168" y="1510" on="0"/>
        <pt x="220" y="1555" on="0"/>
        <pt x="265" y="1555" on="1"/>
        <pt x="475" y="1548" on="1"/>
        <pt x="672" y="1555" on="1"/>
        <pt x="752" y="1555" on="0"/>
        <pt x="773" y="1506" on="1"/>
        <pt x="779" y="1492" on="0"/>
        <pt x="779" y="1477" on="1"/>
        <pt x="779" y="1394" on="0"/>
        <pt x="652" y="1394" on="1"/>
        <pt x="567" y="1394" on="1"/>
        <pt x="567" y="164" on="1"/>
        <pt x="819" y="148" on="0"/>
        <pt x="986" y="148" on="0"/>
        <pt x="1008" y="158" on="1"/>
        <pt x="1067" y="182" on="0"/>
        <pt x="1192" y="405" on="0"/>
        <pt x="1253" y="459" on="0"/>
        <pt x="1286" y="459" on="1"/>
        <pt x="1353" y="459" on="0"/>
        <pt x="1362" y="382" on="1"/>
        <pt x="1363" y="378" on="0"/>
        <pt x="1363" y="342" on="0"/>
        <pt x="1279" y="227" on="0"/>
        <pt x="1203" y="50" on="0"/>
        <pt x="1189" y="-13" on="1"/>
        <pt x="1164" y="-123" on="0"/>
        <pt x="1103" y="-123" on="1"/>
        <pt x="1068" y="-123" on="0"/>
        <pt x="1021" y="-71" on="0"/>
        <pt x="1021" y="-29" on="1"/>
        <pt x="1021" y="-24" on="0"/>
        <pt x="1021" y="-14" on="0"/>
      </contour>
    </TTGlyph>
    <TTGlyph name="Lacute" xMin="127" yMin="-123" xMax="1363" yMax="2020">
      <component glyphName="L" x="0" y="0" flags="0x1204"/>
      <component glyphName="acute.cap" x="207" y="0" flags="0x1004"/>
    </TTGlyph>
    <TTGlyph name="Lcaron" xMin="127" yMin="-123" xMax="1363" yMax="1594">
      <component glyphName="L" x="0" y="0" flags="0x1204"/>
      <component glyphName="quoteleft" x="1297" y="2652" scale="-1.0" flags="0x1004"/>
    </TTGlyph>
    <TTGlyph name="Lcommaaccent" xMin="127" yMin="-540" xMax="1363" yMax="1555">
      <component glyphName="L" x="0" y="0" flags="0x1204"/>
      <component glyphName="commaaccent" x="427" y="0" flags="0x1004"/>
    </TTGlyph>
    <TTGlyph name="Ldot" xMin="127" yMin="-123" xMax="1363" yMax="1555">
      <component glyphName="L" x="0" y="0" flags="0x1204"/>
      <component glyphName="period" x="844" y="965" flags="0x1004"/>
    </TTGlyph>
    <TTGlyph name="Lslash" xMin="127" yMin="-123" xMax="1363" yMax="1555">
      <contour>
        <pt x="212" y="620" on="1"/>
        <pt x="141" y="620" on="0"/>
        <pt x="141" y="674" on="1"/>
        <pt x="141" y="707" on="0"/>
        <pt x="178" y="741" on="0"/>
        <pt x="195" y="751" on="1"/>
        <pt x="381" y="858" on="1"/>
        <pt x="381" y="1394" on="1"/>
        <pt x="280" y="1394" on="1"/>
        <pt x="229" y="1394" on="0"/>
        <pt x="168" y="1438" on="0"/>
        <pt x="168" y="1510" on="0"/>
        <pt x="220" y="1555" on="0"/>
        <pt x="265" y="1555" on="1"/>
        <pt x="475" y="1548" on="1"/>
        <pt x="672" y="1555" on="1"/>
        <pt x="752" y="1555" on="0"/>
        <pt x="773" y="1506" on="1"/>
        <pt x="779" y="1492" on="0"/>
        <pt x="779" y="1477" on="1"/>
        <pt x="779" y="1394" on="0"/>
        <pt x="652" y="1394" on="1"/>
        <pt x="567" y="1394" on="1"/>
        <pt x="567" y="963" on="1"/>
        <pt x="645" y="1008" on="1"/>
        <pt x="727" y="1053" on="0"/>
        <pt x="758" y="1053" on="1"/>
        <pt x="821" y="1053" on="0"/>
        <pt x="821" y="1001" on="1"/>
        <pt x="821" y="971" on="0"/>
        <pt x="780" y="928" on="0"/>
        <pt x="723" y="896" on="1"/>
        <pt x="567" y="806" on="1"/>
        <pt x="567" y="164" on="1"/>
        <pt x="819" y="148" on="0"/>
        <pt x="986" y="148" on="0"/>
        <pt x="1008" y="158" on="1"/>
        <pt x="1067" y="182" on="0"/>
        <pt x="1192" y="405" on="0"/>
        <pt x="1253" y="459" on="0"/>
        <pt x="1286" y="459" on="1"/>
        <pt x="1353" y="459" on="0"/>
        <pt x="1362" y="382" on="1"/>
        <pt x="1363" y="378" on="0"/>
        <pt x="1363" y="342" on="0"/>
        <pt x="1279" y="227" on="0"/>
        <pt x="1203" y="50" on="0"/>
        <pt x="1189" y="-13" on="1"/>
        <pt x="1164" y="-123" on="0"/>
        <pt x="1103" y="-123" on="1"/>
        <pt x="1068" y="-123" on="0"/>
        <pt x="1021" y="-71" on="0"/>
        <pt x="1021" y="-29" on="1"/>
        <pt x="1021" y="-24" on="0"/>
        <pt x="1021" y="-14" on="0"/>
        <pt x="1022" y="-9" on="1"/>
        <pt x="901" y="16" on="0"/>
        <pt x="435" y="16" on="0"/>
        <pt x="233" y="0" on="0"/>
        <pt x="216" y="0" on="1"/>
        <pt x="127" y="0" on="0"/>
        <pt x="127" y="82" on="1"/>
        <pt x="127" y="139" on="0"/>
        <pt x="221" y="160" on="1"/>
        <pt x="253" y="167" on="0"/>
        <pt x="298" y="167" on="1"/>
        <pt x="381" y="167" on="1"/>
        <pt x="381" y="699" on="1"/>
        <pt x="319" y="664" on="1"/>
        <pt x="242" y="620" on="0"/>
      </contour>
    </TTGlyph>
    <TTGlyph name="M" xMin="61" yMin="0" xMax="2146" yMax="1553">
      <contour>
        <pt x="2030" y="1379" on="1"/>
        <pt x="1954" y="1382" on="1"/>
        <pt x="1939" y="1382" on="0"/>
        <pt x="1927" y="1380" on="1"/>
        <pt x="1927" y="161" on="1"/>
        <pt x="2016" y="161" on="1"/>
        <pt x="2068" y="161" on="0"/>
        <pt x="2129" y="115" on="0"/>
        <pt x="2129" y="43" on="0"/>
        <pt x="2077" y="0" on="0"/>
        <pt x="2032" y="0" on="1"/>
        <pt x="1833" y="6" on="1"/>
        <pt x="1646" y="0" on="1"/>
        <pt x="1565" y="0" on="0"/>
        <pt x="1546" y="48" on="1"/>
        <pt x="1540" y="62" on="0"/>
        <pt x="1540" y="112" on="0"/>
        <pt x="1595" y="161" on="0"/>
        <pt x="1665" y="161" on="1"/>
        <pt x="1748" y="161" on="1"/>
        <pt x="1748" y="1087" on="1"/>
        <pt x="1748" y="1204" on="0"/>
        <pt x="1756" y="1296" on="1"/>
        <pt x="1210" y="231" on="1"/>
        <pt x="1171" y="139" on="0"/>
        <pt x="1113" y="139" on="1"/>
        <pt x="1072" y="139" on="0"/>
        <pt x="1031" y="177" on="0"/>
        <pt x="1004" y="230" on="1"/>
        <pt x="452" y="1282" on="1"/>
        <pt x="461" y="1176" on="0"/>
        <pt x="461" y="1018" on="1"/>
        <pt x="461" y="161" on="1"/>
        <pt x="542" y="161" on="1"/>
        <pt x="611" y="161" on="0"/>
        <pt x="668" y="112" on="0"/>
        <pt x="668" y="87" on="1"/>
        <pt x="668" y="0" on="0"/>
        <pt x="561" y="0" on="1"/>
        <pt x="374" y="6" on="1"/>
        <pt x="174" y="0" on="1"/>
        <pt x="130" y="0" on="0"/>
        <pt x="79" y="43" on="0"/>
        <pt x="79" y="115" on="0"/>
        <pt x="139" y="161" on="0"/>
        <pt x="191" y="161" on="1"/>
        <pt x="280" y="161" on="1"/>
        <pt x="280" y="1378" on="1"/>
        <pt x="256" y="1379" on="1"/>
        <pt x="176" y="1376" on="1"/>
        <pt x="152" y="1376" on="0"/>
        <pt x="127" y="1380" on="1"/>
        <pt x="61" y="1390" on="0"/>
        <pt x="61" y="1458" on="1"/>
        <pt x="61" y="1553" on="0"/>
        <pt x="184" y="1553" on="1"/>
        <pt x="214" y="1553" on="1"/>
        <pt x="427" y="1553" on="0"/>
        <pt x="506" y="1486" on="1"/>
        <pt x="546" y="1453" on="0"/>
        <pt x="594" y="1360" on="1"/>
        <pt x="1106" y="398" on="1"/>
        <pt x="1581" y="1324" on="1"/>
        <pt x="1656" y="1474" on="0"/>
        <pt x="1774" y="1518" on="1"/>
        <pt x="1854" y="1548" on="0"/>
        <pt x="1999" y="1553" on="0"/>
        <pt x="2044" y="1553" on="1"/>
        <pt x="2146" y="1553" on="0"/>
        <pt x="2146" y="1462" on="1"/>
        <pt x="2146" y="1393" on="0"/>
        <pt x="2088" y="1384" on="1"/>
        <pt x="2058" y="1379" on="0"/>
      </contour>
    </TTGlyph>
    <TTGlyph name="N" xMin="119" yMin="0" xMax="1720" yMax="1555">
      <contour>
        <pt x="432" y="6" on="1"/>
        <pt x="232" y="0" on="1"/>
        <pt x="188" y="0" on="0"/>
        <pt x="137" y="43" on="0"/>
        <pt x="137" y="115" on="0"/>
        <pt x="197" y="161" on="0"/>
        <pt x="249" y="161" on="1"/>
        <pt x="345" y="161" on="1"/>
        <pt x="345" y="1398" on="1"/>
        <pt x="260" y="1390" on="1"/>
        <pt x="252" y="1390" on="0"/>
        <pt x="245" y="1390" on="1"/>
        <pt x="184" y="1390" on="0"/>
        <pt x="119" y="1436" on="0"/>
        <pt x="119" y="1476" on="1"/>
        <pt x="119" y="1555" on="0"/>
        <pt x="252" y="1555" on="1"/>
        <pt x="442" y="1555" on="0"/>
        <pt x="584" y="1488" on="0"/>
        <pt x="667" y="1382" on="0"/>
        <pt x="698" y="1333" on="1"/>
        <pt x="1345" y="300" on="1"/>
        <pt x="1338" y="405" on="0"/>
        <pt x="1338" y="473" on="1"/>
        <pt x="1338" y="1394" on="1"/>
        <pt x="1244" y="1394" on="1"/>
        <pt x="1193" y="1394" on="0"/>
        <pt x="1131" y="1438" on="0"/>
        <pt x="1131" y="1510" on="0"/>
        <pt x="1184" y="1555" on="0"/>
        <pt x="1228" y="1555" on="1"/>
        <pt x="1428" y="1548" on="1"/>
        <pt x="1614" y="1555" on="1"/>
        <pt x="1695" y="1555" on="0"/>
        <pt x="1714" y="1506" on="1"/>
        <pt x="1720" y="1492" on="0"/>
        <pt x="1720" y="1477" on="1"/>
        <pt x="1720" y="1394" on="0"/>
        <pt x="1595" y="1394" on="1"/>
        <pt x="1522" y="1394" on="1"/>
        <pt x="1522" y="162" on="1"/>
        <pt x="1574" y="162" on="1"/>
        <pt x="1704" y="162" on="0"/>
        <pt x="1704" y="78" on="1"/>
        <pt x="1704" y="0" on="0"/>
        <pt x="1574" y="0" on="1"/>
        <pt x="1486" y="0" on="1"/>
        <pt x="1418" y="0" on="0"/>
        <pt x="1315" y="62" on="0"/>
        <pt x="1286" y="105" on="1"/>
        <pt x="520" y="1301" on="1"/>
        <pt x="529" y="1206" on="0"/>
        <pt x="529" y="1090" on="1"/>
        <pt x="529" y="161" on="1"/>
        <pt x="600" y="161" on="1"/>
        <pt x="669" y="161" on="0"/>
        <pt x="726" y="112" on="0"/>
        <pt x="726" y="87" on="1"/>
        <pt x="726" y="0" on="0"/>
        <pt x="619" y="0" on="1"/>
      </contour>
    </TTGlyph>
    <TTGlyph name="Nacute" xMin="119" yMin="0" xMax="1720" yMax="2020">
      <component glyphName="N" x="0" y="0" flags="0x1204"/>
      <component glyphName="acute.cap" x="644" y="0" flags="0x1004"/>
    </TTGlyph>
    <TTGlyph name="Ncaron" xMin="119" yMin="0" xMax="1720" yMax="2020">
      <component glyphName="N" x="0" y="0" flags="0x1204"/>
      <component glyphName="caron.cap" x="491" y="0" flags="0x1004"/>
    </TTGlyph>
    <TTGlyph name="Ncommaaccent" xMin="119" yMin="-540" xMax="1720" yMax="1555">
      <component glyphName="N" x="0" y="0" flags="0x1204"/>
      <component glyphName="commaaccent" x="696" y="0" flags="0x1004"/>
    </TTGlyph>
    <TTGlyph name="Ntilde" xMin="119" yMin="0" xMax="1720" yMax="2020">
      <component glyphName="N" x="0" y="0" flags="0x1204"/>
      <component glyphName="tilde.cap" x="654" y="0" flags="0x1004"/>
    </TTGlyph>
    <TTGlyph name="O" xMin="76" yMin="-15" xMax="1633" yMax="1555">
      <contour>
        <pt x="259" y="501" on="0"/>
        <pt x="579" y="152" on="0"/>
        <pt x="1109" y="152" on="0"/>
        <pt x="1445" y="485" on="0"/>
        <pt x="1445" y="1065" on="0"/>
        <pt x="1112" y="1388" on="0"/>
        <pt x="594" y="1388" on="0"/>
        <pt x="259" y="1031" on="0"/>
      </contour>
      <contour>
        <pt x="185" y="307" on="0"/>
        <pt x="76" y="589" on="0"/>
        <pt x="76" y="731" on="1"/>
        <pt x="76" y="985" on="0"/>
        <pt x="288" y="1352" on="0"/>
        <pt x="649" y="1555" on="0"/>
        <pt x="862" y="1555" on="1"/>
        <pt x="1015" y="1555" on="0"/>
        <pt x="1294" y="1451" on="0"/>
        <pt x="1507" y="1255" on="0"/>
        <pt x="1633" y="973" on="0"/>
        <pt x="1633" y="796" on="1"/>
        <pt x="1633" y="437" on="0"/>
        <pt x="1204" y="-15" on="0"/>
        <pt x="499" y="-15" on="0"/>
        <pt x="285" y="204" on="1"/>
      </contour>
    </TTGlyph>
    <TTGlyph name="OE" xMin="136" yMin="-139" xMax="2082" yMax="1673">
      <contour>
        <pt x="1128" y="1390" on="1"/>
        <pt x="1050" y="1416" on="0"/>
        <pt x="914" y="1416" on="1"/>
        <pt x="657" y="1416" on="0"/>
        <pt x="319" y="1044" on="0"/>
        <pt x="319" y="510" on="0"/>
        <pt x="640" y="145" on="0"/>
        <pt x="910" y="145" on="1"/>
        <pt x="1032" y="145" on="0"/>
        <pt x="1128" y="179" on="1"/>
      </contour>
      <contour>
        <pt x="2010" y="377" on="1"/>
        <pt x="2080" y="377" on="0"/>
        <pt x="2080" y="303" on="1"/>
        <pt x="2080" y="267" on="0"/>
        <pt x="2003" y="170" on="0"/>
        <pt x="1942" y="19" on="0"/>
        <pt x="1927" y="-56" on="0"/>
        <pt x="1919" y="-84" on="1"/>
        <pt x="1903" y="-139" on="0"/>
        <pt x="1849" y="-139" on="1"/>
        <pt x="1814" y="-139" on="0"/>
        <pt x="1767" y="-87" on="0"/>
        <pt x="1767" y="-42" on="1"/>
        <pt x="1767" y="-28" on="1"/>
        <pt x="1412" y="15" on="0"/>
        <pt x="1213" y="15" on="0"/>
        <pt x="1009" y="-15" on="0"/>
        <pt x="727" y="-15" on="0"/>
        <pt x="445" y="105" on="0"/>
        <pt x="345" y="210" on="1"/>
        <pt x="136" y="428" on="0"/>
        <pt x="136" y="764" on="1"/>
        <pt x="136" y="996" on="0"/>
        <pt x="347" y="1366" on="0"/>
        <pt x="708" y="1575" on="0"/>
        <pt x="922" y="1575" on="1"/>
        <pt x="1316" y="1561" on="1"/>
        <pt x="1659" y="1561" on="0"/>
        <pt x="1789" y="1584" on="1"/>
        <pt x="1784" y="1600" on="0"/>
        <pt x="1784" y="1636" on="0"/>
        <pt x="1822" y="1673" on="0"/>
        <pt x="1858" y="1673" on="1"/>
        <pt x="1948" y="1673" on="0"/>
        <pt x="2061" y="1364" on="1"/>
        <pt x="2082" y="1306" on="0"/>
        <pt x="2082" y="1276" on="1"/>
        <pt x="2082" y="1207" on="0"/>
        <pt x="2020" y="1207" on="1"/>
        <pt x="1965" y="1207" on="0"/>
        <pt x="1928" y="1314" on="1"/>
        <pt x="1905" y="1380" on="0"/>
        <pt x="1804" y="1433" on="0"/>
        <pt x="1726" y="1433" on="1"/>
        <pt x="1701" y="1433" on="1"/>
        <pt x="1649" y="1433" on="0"/>
        <pt x="1509" y="1421" on="0"/>
        <pt x="1468" y="1418" on="1"/>
        <pt x="1385" y="1412" on="1"/>
        <pt x="1344" y="1409" on="0"/>
        <pt x="1314" y="1407" on="1"/>
        <pt x="1314" y="967" on="1"/>
        <pt x="1554" y="967" on="0"/>
        <pt x="1622" y="980" on="0"/>
        <pt x="1654" y="1007" on="0"/>
        <pt x="1667" y="1084" on="0"/>
        <pt x="1717" y="1121" on="0"/>
        <pt x="1769" y="1121" on="0"/>
        <pt x="1808" y="1090" on="0"/>
        <pt x="1808" y="1035" on="0"/>
        <pt x="1772" y="939" on="0"/>
        <pt x="1772" y="844" on="0"/>
        <pt x="1790" y="797" on="1"/>
        <pt x="1816" y="725" on="1"/>
        <pt x="1826" y="700" on="0"/>
        <pt x="1826" y="639" on="0"/>
        <pt x="1781" y="603" on="0"/>
        <pt x="1748" y="603" on="1"/>
        <pt x="1683" y="603" on="0"/>
        <pt x="1652" y="771" on="0"/>
        <pt x="1614" y="820" on="0"/>
        <pt x="1565" y="820" on="1"/>
        <pt x="1314" y="820" on="1"/>
        <pt x="1314" y="150" on="1"/>
        <pt x="1351" y="149" on="0"/>
        <pt x="1396" y="147" on="1"/>
        <pt x="1491" y="143" on="1"/>
        <pt x="1631" y="136" on="0"/>
        <pt x="1766" y="136" on="0"/>
        <pt x="1832" y="180" on="0"/>
        <pt x="1930" y="327" on="0"/>
        <pt x="1980" y="377" on="0"/>
      </contour>
    </TTGlyph>
    <TTGlyph name="Oacute" xMin="76" yMin="-15" xMax="1633" yMax="2020">
      <component glyphName="O" x="0" y="0" flags="0x1204"/>
      <component glyphName="acute.cap" x="594" y="0" flags="0x1004"/>
    </TTGlyph>
    <TTGlyph name="Obreve" xMin="76" yMin="-15" xMax="1633" yMax="2020">
      <component glyphName="O" x="0" y="0" flags="0x1204"/>
      <component glyphName="breve.cap" x="612" y="0" flags="0x1004"/>
    </TTGlyph>
    <TTGlyph name="Ocircumflex" xMin="76" yMin="-15" xMax="1633" yMax="2020">
      <component glyphName="O" x="0" y="0" flags="0x1204"/>
      <component glyphName="circumflex.cap" x="606" y="0" flags="0x1004"/>
    </TTGlyph>
    <TTGlyph name="Odieresis" xMin="76" yMin="-15" xMax="1633" yMax="1982">
      <component glyphName="O" x="0" y="0" flags="0x1204"/>
      <component glyphName="dieresis.cap" x="425" y="0" flags="0x1004"/>
    </TTGlyph>
    <TTGlyph name="Ograve" xMin="76" yMin="-15" xMax="1633" yMax="2020">
      <component glyphName="O" x="0" y="0" flags="0x1204"/>
      <component glyphName="grave.cap" x="567" y="0" flags="0x1004"/>
    </TTGlyph>
    <TTGlyph name="Ohungarumlaut" xMin="76" yMin="-15" xMax="1633" yMax="2020">
      <component glyphName="O" x="0" y="0" flags="0x1204"/>
      <component glyphName="hungarumlaut.cap" x="523" y="0" flags="0x1004"/>
    </TTGlyph>
    <TTGlyph name="Omacron" xMin="76" yMin="-15" xMax="1633" yMax="2020">
      <component glyphName="O" x="0" y="0" flags="0x1204"/>
      <component glyphName="macron.cap" x="596" y="0" flags="0x1004"/>
    </TTGlyph>
    <TTGlyph name="Omega" xMin="271" yMin="-8" xMax="1781" yMax="1548">
      <contour>
        <pt x="1676" y="-7" on="1"/>
        <pt x="1379" y="1" on="1"/>
        <pt x="1260" y="1" on="0"/>
        <pt x="1172" y="-6" on="1"/>
        <pt x="1145" y="-8" on="0"/>
        <pt x="1107" y="52" on="0"/>
        <pt x="1107" y="123" on="0"/>
        <pt x="1141" y="196" on="0"/>
        <pt x="1197" y="242" on="1"/>
        <pt x="1330" y="349" on="1"/>
        <pt x="1472" y="462" on="0"/>
        <pt x="1574" y="702" on="0"/>
        <pt x="1574" y="842" on="1"/>
        <pt x="1574" y="1098" on="0"/>
        <pt x="1256" y="1388" on="0"/>
        <pt x="794" y="1388" on="0"/>
        <pt x="478" y="1097" on="0"/>
        <pt x="478" y="630" on="0"/>
        <pt x="580" y="493" on="1"/>
        <pt x="639" y="415" on="0"/>
        <pt x="700" y="366" on="1"/>
        <pt x="854" y="242" on="1"/>
        <pt x="945" y="169" on="0"/>
        <pt x="945" y="26" on="0"/>
        <pt x="906" y="2" on="1"/>
        <pt x="894" y="-6" on="0"/>
        <pt x="880" y="-6" on="1"/>
        <pt x="730" y="-2" on="0"/>
        <pt x="610" y="-2" on="1"/>
        <pt x="386" y="-6" on="1"/>
        <pt x="339" y="-6" on="0"/>
        <pt x="271" y="36" on="0"/>
        <pt x="271" y="112" on="0"/>
        <pt x="320" y="162" on="0"/>
        <pt x="398" y="162" on="0"/>
        <pt x="431" y="159" on="1"/>
        <pt x="496" y="153" on="1"/>
        <pt x="577" y="146" on="0"/>
        <pt x="638" y="146" on="0"/>
        <pt x="691" y="151" on="0"/>
        <pt x="714" y="153" on="1"/>
        <pt x="687" y="178" on="0"/>
        <pt x="640" y="212" on="1"/>
        <pt x="289" y="474" on="0"/>
        <pt x="289" y="841" on="1"/>
        <pt x="289" y="1061" on="0"/>
        <pt x="495" y="1381" on="0"/>
        <pt x="835" y="1548" on="0"/>
        <pt x="1026" y="1548" on="1"/>
        <pt x="1322" y="1548" on="0"/>
        <pt x="1534" y="1368" on="1"/>
        <pt x="1677" y="1246" on="0"/>
        <pt x="1734" y="1054" on="1"/>
        <pt x="1763" y="956" on="0"/>
        <pt x="1763" y="836" on="1"/>
        <pt x="1763" y="619" on="0"/>
        <pt x="1640" y="440" on="1"/>
        <pt x="1556" y="320" on="0"/>
        <pt x="1400" y="204" on="1"/>
        <pt x="1365" y="178" on="0"/>
        <pt x="1338" y="153" on="1"/>
        <pt x="1380" y="149" on="1"/>
        <pt x="1411" y="146" on="0"/>
        <pt x="1479" y="146" on="0"/>
        <pt x="1516" y="149" on="1"/>
        <pt x="1621" y="159" on="1"/>
        <pt x="1654" y="162" on="0"/>
        <pt x="1732" y="162" on="0"/>
        <pt x="1781" y="112" on="0"/>
        <pt x="1781" y="36" on="0"/>
        <pt x="1712" y="-7" on="0"/>
      </contour>
    </TTGlyph>
    <TTGlyph name="Oslash" xMin="76" yMin="-206" xMax="1633" yMax="1680">
      <contour>
        <pt x="548" y="225" on="1"/>
        <pt x="679" y="152" on="0"/>
        <pt x="829" y="152" on="1"/>
        <pt x="1109" y="152" on="0"/>
        <pt x="1445" y="485" on="0"/>
        <pt x="1445" y="1041" on="0"/>
        <pt x="1297" y="1206" on="1"/>
      </contour>
      <contour>
        <pt x="1192" y="1295" on="1"/>
        <pt x="1046" y="1388" on="0"/>
        <pt x="838" y="1388" on="1"/>
        <pt x="594" y="1388" on="0"/>
        <pt x="259" y="1031" on="0"/>
        <pt x="259" y="480" on="0"/>
        <pt x="439" y="306" on="1"/>
      </contour>
      <contour>
        <pt x="821" y="-15" on="1"/>
        <pt x="616" y="-15" on="0"/>
        <pt x="441" y="84" on="1"/>
        <pt x="266" y="-145" on="1"/>
        <pt x="227" y="-206" on="0"/>
        <pt x="179" y="-206" on="1"/>
        <pt x="158" y="-206" on="0"/>
        <pt x="122" y="-176" on="0"/>
        <pt x="122" y="-154" on="1"/>
        <pt x="122" y="-112" on="0"/>
        <pt x="179" y="-36" on="1"/>
        <pt x="330" y="162" on="1"/>
        <pt x="209" y="266" on="0"/>
        <pt x="76" y="570" on="0"/>
        <pt x="76" y="722" on="1"/>
        <pt x="76" y="985" on="0"/>
        <pt x="288" y="1352" on="0"/>
        <pt x="649" y="1555" on="0"/>
        <pt x="1101" y="1555" on="0"/>
        <pt x="1296" y="1432" on="1"/>
        <pt x="1423" y="1599" on="1"/>
        <pt x="1485" y="1680" on="0"/>
        <pt x="1534" y="1680" on="1"/>
        <pt x="1557" y="1680" on="0"/>
        <pt x="1589" y="1653" on="0"/>
        <pt x="1589" y="1606" on="0"/>
        <pt x="1562" y="1552" on="0"/>
        <pt x="1511" y="1487" on="1"/>
        <pt x="1405" y="1348" on="1"/>
        <pt x="1633" y="1135" on="0"/>
        <pt x="1633" y="437" on="0"/>
        <pt x="1204" y="-15" on="0"/>
      </contour>
    </TTGlyph>
    <TTGlyph name="Otilde" xMin="76" yMin="-15" xMax="1633" yMax="2020">
      <component glyphName="O" x="0" y="0" flags="0x1204"/>
      <component glyphName="tilde.cap" x="604" y="0" flags="0x1004"/>
    </TTGlyph>
    <TTGlyph name="P" xMin="74" yMin="0" xMax="1480" yMax="1555">
      <contour>
        <pt x="624" y="1397" on="1"/>
        <pt x="563" y="1397" on="0"/>
        <pt x="527" y="1395" on="1"/>
        <pt x="527" y="666" on="1"/>
        <pt x="627" y="661" on="0"/>
        <pt x="696" y="661" on="1"/>
        <pt x="867" y="661" on="0"/>
        <pt x="1124" y="721" on="0"/>
        <pt x="1283" y="898" on="0"/>
        <pt x="1283" y="1061" on="1"/>
        <pt x="1283" y="1298" on="0"/>
        <pt x="989" y="1371" on="1"/>
        <pt x="878" y="1397" on="0"/>
      </contour>
      <contour>
        <pt x="441" y="6" on="1"/>
        <pt x="231" y="0" on="1"/>
        <pt x="186" y="0" on="0"/>
        <pt x="134" y="43" on="0"/>
        <pt x="134" y="115" on="0"/>
        <pt x="195" y="161" on="0"/>
        <pt x="246" y="161" on="1"/>
        <pt x="341" y="161" on="1"/>
        <pt x="341" y="1387" on="1"/>
        <pt x="267" y="1383" on="0"/>
        <pt x="202" y="1383" on="1"/>
        <pt x="74" y="1383" on="0"/>
        <pt x="74" y="1468" on="1"/>
        <pt x="74" y="1522" on="0"/>
        <pt x="151" y="1546" on="1"/>
        <pt x="178" y="1555" on="0"/>
        <pt x="217" y="1555" on="1"/>
        <pt x="551" y="1555" on="1"/>
        <pt x="824" y="1555" on="0"/>
        <pt x="955" y="1541" on="0"/>
        <pt x="1108" y="1516" on="0"/>
        <pt x="1290" y="1428" on="0"/>
        <pt x="1352" y="1366" on="1"/>
        <pt x="1480" y="1240" on="0"/>
        <pt x="1480" y="918" on="0"/>
        <pt x="1384" y="704" on="0"/>
        <pt x="1282" y="636" on="1"/>
        <pt x="1082" y="502" on="0"/>
        <pt x="631" y="502" on="1"/>
        <pt x="605" y="502" on="0"/>
        <pt x="553" y="502" on="0"/>
        <pt x="527" y="503" on="1"/>
        <pt x="527" y="161" on="1"/>
        <pt x="618" y="161" on="1"/>
        <pt x="688" y="161" on="0"/>
        <pt x="745" y="112" on="0"/>
        <pt x="745" y="87" on="1"/>
        <pt x="745" y="0" on="0"/>
        <pt x="638" y="0" on="1"/>
      </contour>
    </TTGlyph>
    <TTGlyph name="Q" xMin="94" yMin="-15" xMax="1755" yMax="1555">
      <contour>
        <pt x="1754" y="78" on="1"/>
        <pt x="1754" y="-15" on="0"/>
        <pt x="1642" y="-15" on="1"/>
        <pt x="1533" y="-15" on="0"/>
        <pt x="1438" y="56" on="1"/>
        <pt x="1395" y="87" on="0"/>
        <pt x="1347" y="132" on="1"/>
        <pt x="1150" y="-15" on="0"/>
        <pt x="858" y="-15" on="1"/>
        <pt x="517" y="-15" on="0"/>
        <pt x="303" y="204" on="1"/>
        <pt x="203" y="307" on="0"/>
        <pt x="94" y="589" on="0"/>
        <pt x="94" y="731" on="1"/>
        <pt x="94" y="985" on="0"/>
        <pt x="306" y="1352" on="0"/>
        <pt x="667" y="1555" on="0"/>
        <pt x="880" y="1555" on="1"/>
        <pt x="1033" y="1555" on="0"/>
        <pt x="1312" y="1451" on="0"/>
        <pt x="1525" y="1255" on="0"/>
        <pt x="1651" y="973" on="0"/>
        <pt x="1651" y="796" on="1"/>
        <pt x="1651" y="456" on="0"/>
        <pt x="1460" y="237" on="1"/>
        <pt x="1538" y="154" on="0"/>
        <pt x="1612" y="150" on="1"/>
        <pt x="1754" y="142" on="0"/>
      </contour>
      <contour>
        <pt x="277" y="501" on="0"/>
        <pt x="597" y="152" on="0"/>
        <pt x="868" y="152" on="1"/>
        <pt x="1078" y="152" on="0"/>
        <pt x="1227" y="260" on="1"/>
        <pt x="1049" y="455" on="0"/>
        <pt x="952" y="486" on="1"/>
        <pt x="922" y="496" on="0"/>
        <pt x="811" y="501" on="0"/>
        <pt x="761" y="547" on="0"/>
        <pt x="761" y="582" on="1"/>
        <pt x="761" y="625" on="0"/>
        <pt x="823" y="665" on="0"/>
        <pt x="846" y="665" on="1"/>
        <pt x="972" y="665" on="0"/>
        <pt x="1179" y="553" on="0"/>
        <pt x="1312" y="404" on="1"/>
        <pt x="1341" y="371" on="1"/>
        <pt x="1463" y="527" on="0"/>
        <pt x="1463" y="758" on="1"/>
        <pt x="1463" y="1065" on="0"/>
        <pt x="1130" y="1388" on="0"/>
        <pt x="612" y="1388" on="0"/>
        <pt x="277" y="1031" on="0"/>
      </contour>
    </TTGlyph>
    <TTGlyph name="R" xMin="119" yMin="-15" xMax="1539" yMax="1555">
      <contour>
        <pt x="1278" y="1027" on="1"/>
        <pt x="1278" y="1298" on="0"/>
        <pt x="1018" y="1368" on="1"/>
        <pt x="895" y="1400" on="0"/>
        <pt x="644" y="1400" on="1"/>
        <pt x="558" y="1400" on="0"/>
        <pt x="522" y="1398" on="1"/>
        <pt x="522" y="663" on="1"/>
        <pt x="718" y="663" on="1"/>
        <pt x="1161" y="663" on="0"/>
        <pt x="1249" y="870" on="1"/>
        <pt x="1278" y="938" on="0"/>
      </contour>
      <contour>
        <pt x="611" y="0" on="1"/>
        <pt x="426" y="6" on="1"/>
        <pt x="389" y="6" on="0"/>
        <pt x="368" y="5" on="1"/>
        <pt x="324" y="3" on="1"/>
        <pt x="286" y="0" on="0"/>
        <pt x="201" y="0" on="0"/>
        <pt x="149" y="43" on="0"/>
        <pt x="149" y="115" on="0"/>
        <pt x="210" y="161" on="0"/>
        <pt x="261" y="161" on="1"/>
        <pt x="341" y="161" on="1"/>
        <pt x="341" y="1382" on="1"/>
        <pt x="266" y="1367" on="0"/>
        <pt x="181" y="1367" on="0"/>
        <pt x="119" y="1412" on="0"/>
        <pt x="119" y="1440" on="1"/>
        <pt x="119" y="1529" on="0"/>
        <pt x="326" y="1555" on="0"/>
        <pt x="729" y="1555" on="0"/>
        <pt x="821" y="1550" on="1"/>
        <pt x="1325" y="1526" on="0"/>
        <pt x="1438" y="1217" on="1"/>
        <pt x="1467" y="1136" on="0"/>
        <pt x="1467" y="1038" on="1"/>
        <pt x="1467" y="842" on="0"/>
        <pt x="1232" y="576" on="0"/>
        <pt x="1015" y="534" on="1"/>
        <pt x="1112" y="374" on="0"/>
        <pt x="1175" y="311" on="1"/>
        <pt x="1293" y="193" on="0"/>
        <pt x="1517" y="147" on="0"/>
        <pt x="1534" y="99" on="1"/>
        <pt x="1539" y="83" on="0"/>
        <pt x="1539" y="31" on="0"/>
        <pt x="1487" y="-15" on="0"/>
        <pt x="1439" y="-15" on="1"/>
        <pt x="1333" y="-15" on="0"/>
        <pt x="1252" y="33" on="1"/>
        <pt x="1107" y="119" on="0"/>
        <pt x="929" y="327" on="0"/>
        <pt x="837" y="515" on="1"/>
        <pt x="522" y="515" on="1"/>
        <pt x="522" y="161" on="1"/>
        <pt x="592" y="161" on="1"/>
        <pt x="662" y="161" on="0"/>
        <pt x="718" y="112" on="0"/>
        <pt x="718" y="87" on="1"/>
        <pt x="718" y="0" on="0"/>
      </contour>
    </TTGlyph>
    <TTGlyph name="Racute" xMin="119" yMin="-15" xMax="1539" yMax="2020">
      <component glyphName="R" x="0" y="0" flags="0x1204"/>
      <component glyphName="acute.cap" x="568" y="0" flags="0x1004"/>
    </TTGlyph>
    <TTGlyph name="Rcaron" xMin="119" yMin="-15" xMax="1539" yMax="2020">
      <component glyphName="R" x="0" y="0" flags="0x1204"/>
      <component glyphName="caron.cap" x="415" y="0" flags="0x1004"/>
    </TTGlyph>
    <TTGlyph name="Rcommaaccent" xMin="119" yMin="-540" xMax="1539" yMax="1555">
      <component glyphName="R" x="0" y="0" flags="0x1204"/>
      <component glyphName="commaaccent" x="513" y="0" flags="0x1004"/>
    </TTGlyph>
    <TTGlyph name="S" xMin="63" yMin="-98" xMax="1294" yMax="1659">
      <contour>
        <pt x="835" y="1569" on="1"/>
        <pt x="833" y="1580" on="0"/>
        <pt x="833" y="1621" on="0"/>
        <pt x="878" y="1659" on="0"/>
        <pt x="932" y="1659" on="0"/>
        <pt x="988" y="1607" on="0"/>
        <pt x="1061" y="1456" on="0"/>
        <pt x="1103" y="1403" on="1"/>
        <pt x="1160" y="1332" on="1"/>
        <pt x="1204" y="1277" on="0"/>
        <pt x="1204" y="1237" on="1"/>
        <pt x="1204" y="1154" on="0"/>
        <pt x="1130" y="1154" on="1"/>
        <pt x="1071" y="1154" on="0"/>
        <pt x="953" y="1344" on="0"/>
        <pt x="872" y="1406" on="0"/>
        <pt x="819" y="1406" on="1"/>
        <pt x="492" y="1406" on="0"/>
        <pt x="402" y="1220" on="1"/>
        <pt x="389" y="1195" on="0"/>
        <pt x="389" y="1163" on="1"/>
        <pt x="389" y="1089" on="0"/>
        <pt x="515" y="1007" on="0"/>
        <pt x="680" y="991" on="1"/>
        <pt x="1004" y="960" on="0"/>
        <pt x="1147" y="847" on="1"/>
        <pt x="1293" y="730" on="0"/>
        <pt x="1293" y="520" on="1"/>
        <pt x="1293" y="368" on="0"/>
        <pt x="1120" y="120" on="0"/>
        <pt x="992" y="57" on="1"/>
        <pt x="845" y="-15" on="0"/>
        <pt x="636" y="-15" on="1"/>
        <pt x="580" y="-15" on="0"/>
        <pt x="528" y="-8" on="1"/>
        <pt x="509" y="-56" on="0"/>
        <pt x="466" y="-98" on="0"/>
        <pt x="433" y="-98" on="1"/>
        <pt x="349" y="-98" on="0"/>
        <pt x="334" y="62" on="0"/>
        <pt x="268" y="158" on="1"/>
        <pt x="140" y="336" on="1"/>
        <pt x="80" y="421" on="0"/>
        <pt x="63" y="477" on="0"/>
        <pt x="63" y="528" on="0"/>
        <pt x="99" y="572" on="0"/>
        <pt x="168" y="572" on="0"/>
        <pt x="229" y="527" on="0"/>
        <pt x="267" y="460" on="1"/>
        <pt x="358" y="299" on="0"/>
        <pt x="426" y="239" on="1"/>
        <pt x="524" y="152" on="0"/>
        <pt x="735" y="152" on="1"/>
        <pt x="807" y="152" on="0"/>
        <pt x="959" y="207" on="0"/>
        <pt x="1009" y="252" on="1"/>
        <pt x="1112" y="347" on="0"/>
        <pt x="1112" y="651" on="0"/>
        <pt x="873" y="804" on="0"/>
        <pt x="606" y="829" on="1"/>
        <pt x="192" y="871" on="0"/>
        <pt x="192" y="1140" on="1"/>
        <pt x="192" y="1248" on="0"/>
        <pt x="296" y="1352" on="1"/>
        <pt x="475" y="1531" on="0"/>
      </contour>
    </TTGlyph>
    <TTGlyph name="Sacute" xMin="63" yMin="-98" xMax="1294" yMax="2020">
      <component glyphName="S" x="0" y="0" flags="0x1204"/>
      <component glyphName="acute.cap" x="464" y="0" flags="0x1004"/>
    </TTGlyph>
    <TTGlyph name="Scaron" xMin="63" yMin="-98" xMax="1294" yMax="2020">
      <component glyphName="S" x="0" y="0" flags="0x1204"/>
      <component glyphName="caron.cap" x="311" y="0" flags="0x1004"/>
    </TTGlyph>
    <TTGlyph name="Scedilla" xMin="63" yMin="-500" xMax="1294" yMax="1659">
      <contour>
        <pt x="735" y="-9" on="1"/>
        <pt x="680" y="-14" on="0"/>
        <pt x="576" y="-14" on="0"/>
        <pt x="528" y="-8" on="1"/>
        <pt x="509" y="-56" on="0"/>
        <pt x="466" y="-98" on="0"/>
        <pt x="433" y="-98" on="1"/>
        <pt x="349" y="-98" on="0"/>
        <pt x="334" y="62" on="0"/>
        <pt x="268" y="158" on="1"/>
        <pt x="140" y="336" on="1"/>
        <pt x="80" y="421" on="0"/>
        <pt x="63" y="477" on="0"/>
        <pt x="63" y="528" on="0"/>
        <pt x="99" y="572" on="0"/>
        <pt x="168" y="572" on="0"/>
        <pt x="229" y="527" on="0"/>
        <pt x="267" y="460" on="1"/>
        <pt x="358" y="299" on="0"/>
        <pt x="426" y="239" on="1"/>
        <pt x="524" y="152" on="0"/>
        <pt x="735" y="152" on="1"/>
        <pt x="807" y="152" on="0"/>
        <pt x="959" y="207" on="0"/>
        <pt x="1009" y="252" on="1"/>
        <pt x="1112" y="347" on="0"/>
        <pt x="1112" y="651" on="0"/>
        <pt x="873" y="804" on="0"/>
        <pt x="606" y="829" on="1"/>
        <pt x="192" y="871" on="0"/>
        <pt x="192" y="1140" on="1"/>
        <pt x="192" y="1248" on="0"/>
        <pt x="296" y="1352" on="1"/>
        <pt x="475" y="1531" on="0"/>
        <pt x="835" y="1569" on="1"/>
        <pt x="833" y="1580" on="0"/>
        <pt x="833" y="1621" on="0"/>
        <pt x="878" y="1659" on="0"/>
        <pt x="932" y="1659" on="0"/>
        <pt x="988" y="1607" on="0"/>
        <pt x="1061" y="1456" on="0"/>
        <pt x="1103" y="1403" on="1"/>
        <pt x="1160" y="1332" on="1"/>
        <pt x="1204" y="1277" on="0"/>
        <pt x="1204" y="1237" on="1"/>
        <pt x="1204" y="1154" on="0"/>
        <pt x="1130" y="1154" on="1"/>
        <pt x="1071" y="1154" on="0"/>
        <pt x="953" y="1344" on="0"/>
        <pt x="872" y="1406" on="0"/>
        <pt x="819" y="1406" on="1"/>
        <pt x="492" y="1406" on="0"/>
        <pt x="402" y="1220" on="1"/>
        <pt x="389" y="1195" on="0"/>
        <pt x="389" y="1163" on="1"/>
        <pt x="389" y="1089" on="0"/>
        <pt x="515" y="1007" on="0"/>
        <pt x="680" y="991" on="1"/>
        <pt x="1004" y="960" on="0"/>
        <pt x="1147" y="847" on="1"/>
        <pt x="1293" y="730" on="0"/>
        <pt x="1293" y="521" on="1"/>
        <pt x="1293" y="368" on="0"/>
        <pt x="1203" y="240" on="1"/>
        <pt x="1075" y="56" on="0"/>
        <pt x="853" y="8" on="1"/>
        <pt x="822" y="-44" on="0"/>
        <pt x="795" y="-102" on="1"/>
        <pt x="1023" y="-139" on="0"/>
        <pt x="1023" y="-279" on="1"/>
        <pt x="1023" y="-378" on="0"/>
        <pt x="836" y="-500" on="0"/>
        <pt x="687" y="-500" on="1"/>
        <pt x="638" y="-500" on="0"/>
        <pt x="598" y="-471" on="0"/>
        <pt x="598" y="-433" on="0"/>
        <pt x="636" y="-415" on="0"/>
        <pt x="703" y="-407" on="1"/>
        <pt x="842" y="-389" on="0"/>
        <pt x="842" y="-299" on="1"/>
        <pt x="842" y="-244" on="0"/>
        <pt x="753" y="-225" on="1"/>
        <pt x="713" y="-216" on="1"/>
        <pt x="682" y="-210" on="0"/>
        <pt x="671" y="-190" on="0"/>
        <pt x="671" y="-177" on="1"/>
        <pt x="671" y="-137" on="0"/>
      </contour>
    </TTGlyph>
    <TTGlyph name="Scircumflex" xMin="63" yMin="-98" xMax="1294" yMax="2020">
      <component glyphName="S" x="0" y="0" flags="0x1204"/>
      <component glyphName="circumflex.cap" x="586" y="0" flags="0x1004"/>
    </TTGlyph>
    <TTGlyph name="Scommaaccent" xMin="63" yMin="-540" xMax="1294" yMax="1659">
      <component glyphName="S" x="0" y="0" flags="0x1204"/>
      <component glyphName="commaaccent" x="503" y="0" flags="0x1004"/>
    </TTGlyph>
    <TTGlyph name="T" xMin="-86" yMin="0" xMax="1251" yMax="1636">
      <contour>
        <pt x="142" y="1558" on="1"/>
        <pt x="301" y="1530" on="0"/>
        <pt x="883" y="1530" on="0"/>
        <pt x="1023" y="1558" on="1"/>
        <pt x="1023" y="1568" on="1"/>
        <pt x="1023" y="1600" on="0"/>
        <pt x="1068" y="1636" on="0"/>
        <pt x="1129" y="1636" on="0"/>
        <pt x="1163" y="1599" on="0"/>
        <pt x="1168" y="1576" on="1"/>
        <pt x="1177" y="1524" on="0"/>
        <pt x="1198" y="1464" on="1"/>
        <pt x="1215" y="1415" on="1"/>
        <pt x="1225" y="1389" on="0"/>
        <pt x="1251" y="1330" on="0"/>
        <pt x="1251" y="1262" on="0"/>
        <pt x="1210" y="1224" on="0"/>
        <pt x="1180" y="1224" on="1"/>
        <pt x="1124" y="1224" on="0"/>
        <pt x="1075" y="1359" on="0"/>
        <pt x="1008" y="1402" on="0"/>
        <pt x="926" y="1402" on="1"/>
        <pt x="902" y="1402" on="1"/>
        <pt x="674" y="1386" on="1"/>
        <pt x="674" y="161" on="1"/>
        <pt x="798" y="161" on="1"/>
        <pt x="867" y="161" on="0"/>
        <pt x="922" y="112" on="0"/>
        <pt x="922" y="48" on="0"/>
        <pt x="874" y="0" on="0"/>
        <pt x="816" y="0" on="1"/>
        <pt x="794" y="0" on="1"/>
        <pt x="780" y="0" on="0"/>
        <pt x="750" y="1" on="0"/>
        <pt x="720" y="2" on="0"/>
        <pt x="654" y="6" on="0"/>
        <pt x="515" y="6" on="0"/>
        <pt x="434" y="2" on="0"/>
        <pt x="420" y="2" on="1"/>
        <pt x="390" y="0" on="1"/>
        <pt x="375" y="0" on="0"/>
        <pt x="362" y="0" on="1"/>
        <pt x="339" y="0" on="1"/>
        <pt x="294" y="0" on="0"/>
        <pt x="241" y="43" on="0"/>
        <pt x="241" y="115" on="0"/>
        <pt x="303" y="161" on="0"/>
        <pt x="354" y="161" on="1"/>
        <pt x="488" y="161" on="1"/>
        <pt x="488" y="1388" on="1"/>
        <pt x="378" y="1396" on="1"/>
        <pt x="347" y="1398" on="0"/>
        <pt x="307" y="1401" on="0"/>
        <pt x="279" y="1402" on="0"/>
        <pt x="255" y="1403" on="0"/>
        <pt x="157" y="1403" on="0"/>
        <pt x="90" y="1360" on="0"/>
        <pt x="52" y="1257" on="0"/>
        <pt x="14" y="1224" on="0"/>
        <pt x="-45" y="1224" on="0"/>
        <pt x="-86" y="1262" on="0"/>
        <pt x="-86" y="1330" on="0"/>
        <pt x="-60" y="1389" on="0"/>
        <pt x="-50" y="1416" on="1"/>
        <pt x="-33" y="1464" on="1"/>
        <pt x="-20" y="1503" on="0"/>
        <pt x="-14" y="1527" on="1"/>
        <pt x="-3" y="1574" on="1"/>
        <pt x="9" y="1636" on="0"/>
        <pt x="115" y="1636" on="0"/>
        <pt x="135" y="1598" on="1"/>
        <pt x="142" y="1585" on="0"/>
        <pt x="142" y="1568" on="1"/>
      </contour>
    </TTGlyph>
    <TTGlyph name="Tbar" xMin="-86" yMin="0" xMax="1251" yMax="1636">
      <contour>
        <pt x="142" y="1558" on="1"/>
        <pt x="301" y="1530" on="0"/>
        <pt x="883" y="1530" on="0"/>
        <pt x="1023" y="1558" on="1"/>
        <pt x="1023" y="1568" on="1"/>
        <pt x="1023" y="1600" on="0"/>
        <pt x="1068" y="1636" on="0"/>
        <pt x="1129" y="1636" on="0"/>
        <pt x="1163" y="1599" on="0"/>
        <pt x="1168" y="1576" on="1"/>
        <pt x="1177" y="1524" on="0"/>
        <pt x="1198" y="1464" on="1"/>
        <pt x="1215" y="1415" on="1"/>
        <pt x="1225" y="1389" on="0"/>
        <pt x="1251" y="1330" on="0"/>
        <pt x="1251" y="1262" on="0"/>
        <pt x="1210" y="1224" on="0"/>
        <pt x="1180" y="1224" on="1"/>
        <pt x="1124" y="1224" on="0"/>
        <pt x="1075" y="1359" on="0"/>
        <pt x="1008" y="1402" on="0"/>
        <pt x="926" y="1402" on="1"/>
        <pt x="902" y="1402" on="1"/>
        <pt x="674" y="1386" on="1"/>
        <pt x="674" y="1001" on="1"/>
        <pt x="820" y="1001" on="1"/>
        <pt x="877" y="1001" on="0"/>
        <pt x="944" y="959" on="0"/>
        <pt x="944" y="920" on="1"/>
        <pt x="944" y="839" on="0"/>
        <pt x="820" y="839" on="1"/>
        <pt x="674" y="839" on="1"/>
        <pt x="674" y="161" on="1"/>
        <pt x="798" y="161" on="1"/>
        <pt x="867" y="161" on="0"/>
        <pt x="922" y="112" on="0"/>
        <pt x="922" y="48" on="0"/>
        <pt x="874" y="0" on="0"/>
        <pt x="816" y="0" on="1"/>
        <pt x="794" y="0" on="1"/>
        <pt x="780" y="0" on="0"/>
        <pt x="750" y="1" on="0"/>
        <pt x="720" y="2" on="0"/>
        <pt x="654" y="6" on="0"/>
        <pt x="515" y="6" on="0"/>
        <pt x="434" y="2" on="0"/>
        <pt x="420" y="2" on="1"/>
        <pt x="390" y="0" on="1"/>
        <pt x="375" y="0" on="0"/>
        <pt x="362" y="0" on="1"/>
        <pt x="339" y="0" on="1"/>
        <pt x="294" y="0" on="0"/>
        <pt x="241" y="43" on="0"/>
        <pt x="241" y="115" on="0"/>
        <pt x="303" y="161" on="0"/>
        <pt x="354" y="161" on="1"/>
        <pt x="488" y="161" on="1"/>
        <pt x="488" y="839" on="1"/>
        <pt x="367" y="839" on="1"/>
        <pt x="240" y="839" on="0"/>
        <pt x="240" y="920" on="1"/>
        <pt x="240" y="955" on="0"/>
        <pt x="301" y="1001" on="0"/>
        <pt x="367" y="1001" on="1"/>
        <pt x="488" y="1001" on="1"/>
        <pt x="488" y="1388" on="1"/>
        <pt x="378" y="1396" on="1"/>
        <pt x="347" y="1398" on="0"/>
        <pt x="307" y="1401" on="0"/>
        <pt x="279" y="1402" on="0"/>
        <pt x="255" y="1403" on="0"/>
        <pt x="157" y="1403" on="0"/>
        <pt x="90" y="1360" on="0"/>
        <pt x="52" y="1257" on="0"/>
        <pt x="14" y="1224" on="0"/>
        <pt x="-45" y="1224" on="0"/>
        <pt x="-86" y="1262" on="0"/>
        <pt x="-86" y="1330" on="0"/>
        <pt x="-60" y="1389" on="0"/>
        <pt x="-50" y="1416" on="1"/>
        <pt x="-33" y="1464" on="1"/>
        <pt x="-20" y="1503" on="0"/>
        <pt x="-14" y="1527" on="1"/>
        <pt x="-3" y="1574" on="1"/>
        <pt x="9" y="1636" on="0"/>
        <pt x="115" y="1636" on="0"/>
        <pt x="135" y="1598" on="1"/>
        <pt x="142" y="1585" on="0"/>
        <pt x="142" y="1568" on="1"/>
      </contour>
    </TTGlyph>
    <TTGlyph name="Tcaron" xMin="-86" yMin="0" xMax="1251" yMax="2020">
      <component glyphName="T" x="0" y="0" flags="0x1204"/>
      <component glyphName="caron.cap" x="163" y="0" flags="0x1004"/>
    </TTGlyph>
    <TTGlyph name="Tcommaaccent" xMin="-86" yMin="-540" xMax="1251" yMax="1636">
      <component glyphName="T" x="0" y="0" flags="0x1204"/>
      <component glyphName="commaaccent" x="340" y="0" flags="0x1004"/>
    </TTGlyph>
    <TTGlyph name="Thorn" xMin="134" yMin="0" xMax="1450" yMax="1574">
      <contour>
        <pt x="986" y="1050" on="1"/>
        <pt x="894" y="1070" on="0"/>
        <pt x="619" y="1070" on="0"/>
        <pt x="527" y="1058" on="1"/>
        <pt x="527" y="527" on="1"/>
        <pt x="634" y="517" on="0"/>
        <pt x="765" y="517" on="1"/>
        <pt x="1253" y="517" on="0"/>
        <pt x="1253" y="790" on="1"/>
        <pt x="1253" y="990" on="0"/>
      </contour>
      <contour>
        <pt x="441" y="6" on="1"/>
        <pt x="231" y="0" on="1"/>
        <pt x="186" y="0" on="0"/>
        <pt x="134" y="43" on="0"/>
        <pt x="134" y="115" on="0"/>
        <pt x="195" y="161" on="0"/>
        <pt x="246" y="161" on="1"/>
        <pt x="341" y="161" on="1"/>
        <pt x="341" y="1413" on="1"/>
        <pt x="246" y="1413" on="1"/>
        <pt x="195" y="1413" on="0"/>
        <pt x="134" y="1459" on="0"/>
        <pt x="134" y="1531" on="0"/>
        <pt x="186" y="1574" on="0"/>
        <pt x="231" y="1574" on="1"/>
        <pt x="441" y="1568" on="1"/>
        <pt x="638" y="1574" on="1"/>
        <pt x="717" y="1574" on="0"/>
        <pt x="739" y="1526" on="1"/>
        <pt x="745" y="1512" on="0"/>
        <pt x="745" y="1462" on="0"/>
        <pt x="688" y="1413" on="0"/>
        <pt x="618" y="1413" on="1"/>
        <pt x="527" y="1413" on="1"/>
        <pt x="527" y="1222" on="1"/>
        <pt x="648" y="1235" on="0"/>
        <pt x="794" y="1235" on="1"/>
        <pt x="1096" y="1235" on="0"/>
        <pt x="1450" y="1003" on="0"/>
        <pt x="1450" y="800" on="1"/>
        <pt x="1450" y="476" on="0"/>
        <pt x="1064" y="385" on="1"/>
        <pt x="933" y="354" on="0"/>
        <pt x="690" y="354" on="0"/>
        <pt x="650" y="356" on="1"/>
        <pt x="580" y="360" on="1"/>
        <pt x="551" y="361" on="0"/>
        <pt x="527" y="363" on="1"/>
        <pt x="527" y="161" on="1"/>
        <pt x="618" y="161" on="1"/>
        <pt x="688" y="161" on="0"/>
        <pt x="745" y="112" on="0"/>
        <pt x="745" y="87" on="1"/>
        <pt x="745" y="0" on="0"/>
        <pt x="638" y="0" on="1"/>
      </contour>
    </TTGlyph>
    <TTGlyph name="U" xMin="14" yMin="-15" xMax="1539" yMax="1555">
      <contour>
        <pt x="1539" y="1477" on="1"/>
        <pt x="1539" y="1394" on="0"/>
        <pt x="1414" y="1394" on="1"/>
        <pt x="1380" y="1394" on="1"/>
        <pt x="1380" y="587" on="1"/>
        <pt x="1380" y="322" on="0"/>
        <pt x="1027" y="-15" on="0"/>
        <pt x="520" y="-15" on="0"/>
        <pt x="181" y="312" on="0"/>
        <pt x="181" y="591" on="1"/>
        <pt x="181" y="1394" on="1"/>
        <pt x="127" y="1394" on="1"/>
        <pt x="76" y="1394" on="0"/>
        <pt x="14" y="1438" on="0"/>
        <pt x="14" y="1510" on="0"/>
        <pt x="67" y="1555" on="0"/>
        <pt x="111" y="1555" on="1"/>
        <pt x="293" y="1548" on="1"/>
        <pt x="449" y="1555" on="1"/>
        <pt x="524" y="1555" on="0"/>
        <pt x="532" y="1506" on="1"/>
        <pt x="535" y="1492" on="0"/>
        <pt x="535" y="1464" on="1"/>
        <pt x="535" y="1394" on="0"/>
        <pt x="430" y="1394" on="1"/>
        <pt x="367" y="1394" on="1"/>
        <pt x="367" y="594" on="1"/>
        <pt x="367" y="373" on="0"/>
        <pt x="601" y="143" on="0"/>
        <pt x="964" y="143" on="0"/>
        <pt x="1195" y="378" on="0"/>
        <pt x="1195" y="594" on="1"/>
        <pt x="1195" y="1394" on="1"/>
        <pt x="1111" y="1394" on="1"/>
        <pt x="1018" y="1394" on="0"/>
        <pt x="1018" y="1555" on="0"/>
        <pt x="1095" y="1555" on="1"/>
        <pt x="1112" y="1555" on="1"/>
        <pt x="1247" y="1548" on="1"/>
        <pt x="1433" y="1555" on="1"/>
        <pt x="1514" y="1555" on="0"/>
        <pt x="1534" y="1506" on="1"/>
        <pt x="1539" y="1492" on="0"/>
      </contour>
    </TTGlyph>
    <TTGlyph name="Uacute" xMin="14" yMin="-15" xMax="1539" yMax="2020">
      <component glyphName="U" x="0" y="0" flags="0x1204"/>
      <component glyphName="acute.cap" x="521" y="0" flags="0x1004"/>
    </TTGlyph>
    <TTGlyph name="Ubreve" xMin="14" yMin="-15" xMax="1539" yMax="2020">
      <component glyphName="U" x="0" y="0" flags="0x1204"/>
      <component glyphName="breve.cap" x="519" y="0" flags="0x1004"/>
    </TTGlyph>
    <TTGlyph name="Ucircumflex" xMin="14" yMin="-15" xMax="1539" yMax="2020">
      <component glyphName="U" x="0" y="0" flags="0x1204"/>
      <component glyphName="circumflex.cap" x="533" y="0" flags="0x1004"/>
    </TTGlyph>
    <TTGlyph name="Udieresis" xMin="14" yMin="-15" xMax="1539" yMax="1982">
      <component glyphName="U" x="0" y="0" flags="0x1204"/>
      <component glyphName="dieresis.cap" x="352" y="0" flags="0x1004"/>
    </TTGlyph>
    <TTGlyph name="Ugrave" xMin="14" yMin="-15" xMax="1539" yMax="2020">
      <component glyphName="U" x="0" y="0" flags="0x1204"/>
      <component glyphName="grave.cap" x="494" y="0" flags="0x1004"/>
    </TTGlyph>
    <TTGlyph name="Uhungarumlaut" xMin="14" yMin="-15" xMax="1539" yMax="2020">
      <component glyphName="U" x="0" y="0" flags="0x1204"/>
      <component glyphName="hungarumlaut.cap" x="430" y="0" flags="0x1004"/>
    </TTGlyph>
    <TTGlyph name="Umacron" xMin="14" yMin="-15" xMax="1539" yMax="2020">
      <component glyphName="U" x="0" y="0" flags="0x1204"/>
      <component glyphName="macron.cap" x="503" y="0" flags="0x1004"/>
    </TTGlyph>
    <TTGlyph name="Uogonek" xMin="14" yMin="-497" xMax="1539" yMax="1555">
      <contour>
        <pt x="895" y="-348" on="1"/>
        <pt x="948" y="-348" on="0"/>
        <pt x="1004" y="-273" on="0"/>
        <pt x="1036" y="-249" on="0"/>
        <pt x="1087" y="-249" on="0"/>
        <pt x="1134" y="-284" on="0"/>
        <pt x="1134" y="-320" on="1"/>
        <pt x="1134" y="-388" on="0"/>
        <pt x="980" y="-497" on="0"/>
        <pt x="909" y="-497" on="1"/>
        <pt x="784" y="-497" on="0"/>
        <pt x="640" y="-372" on="0"/>
        <pt x="640" y="-266" on="1"/>
        <pt x="640" y="-198" on="0"/>
        <pt x="721" y="-65" on="0"/>
        <pt x="785" y="-15" on="1"/>
        <pt x="783" y="-15" on="1"/>
        <pt x="520" y="-15" on="0"/>
        <pt x="181" y="312" on="0"/>
        <pt x="181" y="591" on="1"/>
        <pt x="181" y="1394" on="1"/>
        <pt x="127" y="1394" on="1"/>
        <pt x="76" y="1394" on="0"/>
        <pt x="14" y="1438" on="0"/>
        <pt x="14" y="1510" on="0"/>
        <pt x="67" y="1555" on="0"/>
        <pt x="111" y="1555" on="1"/>
        <pt x="293" y="1548" on="1"/>
        <pt x="449" y="1555" on="1"/>
        <pt x="524" y="1555" on="0"/>
        <pt x="532" y="1506" on="1"/>
        <pt x="535" y="1492" on="0"/>
        <pt x="535" y="1464" on="1"/>
        <pt x="535" y="1394" on="0"/>
        <pt x="430" y="1394" on="1"/>
        <pt x="367" y="1394" on="1"/>
        <pt x="367" y="594" on="1"/>
        <pt x="367" y="373" on="0"/>
        <pt x="601" y="143" on="0"/>
        <pt x="964" y="143" on="0"/>
        <pt x="1195" y="378" on="0"/>
        <pt x="1195" y="594" on="1"/>
        <pt x="1195" y="1394" on="1"/>
        <pt x="1111" y="1394" on="1"/>
        <pt x="1018" y="1394" on="0"/>
        <pt x="1018" y="1555" on="0"/>
        <pt x="1095" y="1555" on="1"/>
        <pt x="1112" y="1555" on="1"/>
        <pt x="1247" y="1548" on="1"/>
        <pt x="1433" y="1555" on="1"/>
        <pt x="1514" y="1555" on="0"/>
        <pt x="1534" y="1506" on="1"/>
        <pt x="1539" y="1492" on="0"/>
        <pt x="1539" y="1477" on="1"/>
        <pt x="1539" y="1394" on="0"/>
        <pt x="1414" y="1394" on="1"/>
        <pt x="1380" y="1394" on="1"/>
        <pt x="1380" y="587" on="1"/>
        <pt x="1380" y="335" on="0"/>
        <pt x="1214" y="164" on="1"/>
        <pt x="1162" y="111" on="0"/>
        <pt x="1114" y="81" on="1"/>
        <pt x="820" y="-103" on="0"/>
        <pt x="820" y="-257" on="1"/>
        <pt x="820" y="-348" on="0"/>
      </contour>
    </TTGlyph>
    <TTGlyph name="Uring" xMin="14" yMin="-15" xMax="1539" yMax="2020">
      <component glyphName="U" x="0" y="0" flags="0x1204"/>
      <component glyphName="ring.cap" x="510" y="0" flags="0x1004"/>
    </TTGlyph>
    <TTGlyph name="Utilde" xMin="14" yMin="-15" xMax="1539" yMax="2020">
      <component glyphName="U" x="0" y="0" flags="0x1204"/>
      <component glyphName="tilde.cap" x="511" y="0" flags="0x1004"/>
    </TTGlyph>
    <TTGlyph name="V" xMin="-41" yMin="-24" xMax="1568" yMax="1555">
      <contour>
        <pt x="1475" y="1543" on="1"/>
        <pt x="1568" y="1543" on="0"/>
        <pt x="1568" y="1471" on="1"/>
        <pt x="1568" y="1407" on="0"/>
        <pt x="1498" y="1395" on="1"/>
        <pt x="1455" y="1387" on="0"/>
        <pt x="1436" y="1368" on="1"/>
        <pt x="1395" y="1328" on="0"/>
        <pt x="1312" y="1134" on="1"/>
        <pt x="922" y="213" on="0"/>
        <pt x="900" y="156" on="1"/>
        <pt x="866" y="71" on="1"/>
        <pt x="828" y="-24" on="0"/>
        <pt x="772" y="-24" on="1"/>
        <pt x="725" y="-24" on="0"/>
        <pt x="678" y="17" on="0"/>
        <pt x="663" y="61" on="1"/>
        <pt x="484" y="505" on="1"/>
        <pt x="219" y="1124" on="1"/>
        <pt x="140" y="1309" on="0"/>
        <pt x="71" y="1387" on="0"/>
        <pt x="-11" y="1418" on="0"/>
        <pt x="-41" y="1450" on="0"/>
        <pt x="-41" y="1502" on="0"/>
        <pt x="8" y="1545" on="0"/>
        <pt x="46" y="1545" on="1"/>
        <pt x="188" y="1538" on="1"/>
        <pt x="221" y="1538" on="0"/>
        <pt x="254" y="1541" on="1"/>
        <pt x="374" y="1552" on="1"/>
        <pt x="400" y="1555" on="0"/>
        <pt x="471" y="1555" on="0"/>
        <pt x="527" y="1514" on="0"/>
        <pt x="527" y="1474" on="1"/>
        <pt x="527" y="1384" on="0"/>
        <pt x="358" y="1384" on="1"/>
        <pt x="316" y="1384" on="1"/>
        <pt x="749" y="275" on="1"/>
        <pt x="760" y="250" on="0"/>
        <pt x="782" y="266" on="0"/>
        <pt x="786" y="275" on="1"/>
        <pt x="1219" y="1383" on="1"/>
        <pt x="1205" y="1382" on="0"/>
        <pt x="1193" y="1382" on="1"/>
        <pt x="1168" y="1382" on="1"/>
        <pt x="1077" y="1382" on="0"/>
        <pt x="999" y="1437" on="0"/>
        <pt x="999" y="1512" on="0"/>
        <pt x="1058" y="1555" on="0"/>
        <pt x="1129" y="1555" on="0"/>
        <pt x="1178" y="1548" on="0"/>
        <pt x="1231" y="1543" on="0"/>
        <pt x="1292" y="1536" on="0"/>
        <pt x="1338" y="1536" on="1"/>
      </contour>
    </TTGlyph>
    <TTGlyph name="W" xMin="-43" yMin="-16" xMax="2432" yMax="1555">
      <contour>
        <pt x="2204" y="1536" on="1"/>
        <pt x="2355" y="1543" on="1"/>
        <pt x="2393" y="1543" on="0"/>
        <pt x="2432" y="1500" on="0"/>
        <pt x="2432" y="1450" on="0"/>
        <pt x="2408" y="1418" on="0"/>
        <pt x="2374" y="1393" on="0"/>
        <pt x="2337" y="1370" on="0"/>
        <pt x="2270" y="1307" on="0"/>
        <pt x="2189" y="1165" on="0"/>
        <pt x="2123" y="966" on="1"/>
        <pt x="1851" y="182" on="0"/>
        <pt x="1801" y="25" on="0"/>
        <pt x="1752" y="-15" on="0"/>
        <pt x="1676" y="-15" on="0"/>
        <pt x="1626" y="25" on="0"/>
        <pt x="1600" y="120" on="0"/>
        <pt x="1588" y="159" on="1"/>
        <pt x="1560" y="246" on="1"/>
        <pt x="1544" y="294" on="0"/>
        <pt x="1521" y="356" on="1"/>
        <pt x="1465" y="505" on="1"/>
        <pt x="1206" y="1151" on="1"/>
        <pt x="1200" y="1166" on="0"/>
        <pt x="1187" y="1166" on="0"/>
        <pt x="1183" y="1154" on="1"/>
        <pt x="773" y="79" on="1"/>
        <pt x="737" y="-16" on="0"/>
        <pt x="677" y="-16" on="1"/>
        <pt x="628" y="-16" on="0"/>
        <pt x="578" y="24" on="0"/>
        <pt x="561" y="86" on="1"/>
        <pt x="517" y="239" on="0"/>
        <pt x="501" y="292" on="1"/>
        <pt x="429" y="505" on="1"/>
        <pt x="267" y="966" on="1"/>
        <pt x="172" y="1243" on="0"/>
        <pt x="108" y="1315" on="1"/>
        <pt x="67" y="1362" on="0"/>
        <pt x="17" y="1393" on="0"/>
        <pt x="0" y="1406" on="1"/>
        <pt x="-43" y="1436" on="0"/>
        <pt x="-43" y="1500" on="0"/>
        <pt x="-2" y="1543" on="0"/>
        <pt x="36" y="1543" on="1"/>
        <pt x="187" y="1536" on="1"/>
        <pt x="221" y="1536" on="0"/>
        <pt x="254" y="1539" on="1"/>
        <pt x="319" y="1545" on="1"/>
        <pt x="348" y="1548" on="0"/>
        <pt x="407" y="1555" on="0"/>
        <pt x="479" y="1555" on="0"/>
        <pt x="527" y="1512" on="0"/>
        <pt x="527" y="1472" on="1"/>
        <pt x="527" y="1382" on="0"/>
        <pt x="357" y="1382" on="1"/>
        <pt x="336" y="1382" on="1"/>
        <pt x="325" y="1382" on="0"/>
        <pt x="314" y="1383" on="1"/>
        <pt x="665" y="362" on="1"/>
        <pt x="674" y="330" on="0"/>
        <pt x="699" y="330" on="0"/>
        <pt x="709" y="361" on="1"/>
        <pt x="1103" y="1433" on="1"/>
        <pt x="1122" y="1487" on="0"/>
        <pt x="1168" y="1530" on="0"/>
        <pt x="1244" y="1530" on="0"/>
        <pt x="1290" y="1489" on="0"/>
        <pt x="1310" y="1433" on="1"/>
        <pt x="1697" y="362" on="1"/>
        <pt x="1708" y="330" on="0"/>
        <pt x="1729" y="330" on="0"/>
        <pt x="1739" y="361" on="1"/>
        <pt x="2087" y="1383" on="1"/>
        <pt x="2073" y="1382" on="0"/>
        <pt x="2060" y="1382" on="1"/>
        <pt x="2033" y="1382" on="1"/>
        <pt x="1898" y="1382" on="0"/>
        <pt x="1872" y="1438" on="1"/>
        <pt x="1864" y="1457" on="0"/>
        <pt x="1864" y="1512" on="0"/>
        <pt x="1913" y="1555" on="0"/>
        <pt x="1983" y="1555" on="0"/>
        <pt x="2042" y="1548" on="0"/>
        <pt x="2073" y="1545" on="1"/>
        <pt x="2137" y="1539" on="1"/>
        <pt x="2170" y="1536" on="0"/>
      </contour>
    </TTGlyph>
    <TTGlyph name="Wacute" xMin="-43" yMin="-16" xMax="2432" yMax="2020">
      <component glyphName="W" x="0" y="0" flags="0x1204"/>
      <component glyphName="acute.cap" x="933" y="0" flags="0x1004"/>
    </TTGlyph>
    <TTGlyph name="Wcircumflex" xMin="-43" yMin="-16" xMax="2432" yMax="2020">
      <component glyphName="W" x="0" y="0" flags="0x1204"/>
      <component glyphName="circumflex.cap" x="945" y="0" flags="0x1004"/>
    </TTGlyph>
    <TTGlyph name="Wdieresis" xMin="-43" yMin="-16" xMax="2432" yMax="1982">
      <component glyphName="W" x="0" y="0" flags="0x1204"/>
      <component glyphName="dieresis.cap" x="764" y="0" flags="0x1004"/>
    </TTGlyph>
    <TTGlyph name="Wgrave" xMin="-43" yMin="-16" xMax="2432" yMax="2020">
      <component glyphName="W" x="0" y="0" flags="0x1204"/>
      <component glyphName="grave.cap" x="906" y="0" flags="0x1004"/>
    </TTGlyph>
    <TTGlyph name="X" xMin="-35" yMin="0" xMax="1736" yMax="1555">
      <contour>
        <pt x="262" y="14" on="1"/>
        <pt x="53" y="0" on="1"/>
        <pt x="15" y="0" on="0"/>
        <pt x="-35" y="42" on="0"/>
        <pt x="-35" y="107" on="0"/>
        <pt x="16" y="144" on="0"/>
        <pt x="62" y="152" on="1"/>
        <pt x="142" y="166" on="0"/>
        <pt x="213" y="211" on="0"/>
        <pt x="292" y="300" on="1"/>
        <pt x="725" y="821" on="1"/>
        <pt x="568" y="1007" on="0"/>
        <pt x="428" y="1187" on="0"/>
        <pt x="375" y="1245" on="1"/>
        <pt x="262" y="1369" on="0"/>
        <pt x="157" y="1388" on="1"/>
        <pt x="120" y="1394" on="1"/>
        <pt x="42" y="1408" on="0"/>
        <pt x="42" y="1471" on="1"/>
        <pt x="42" y="1500" on="0"/>
        <pt x="91" y="1543" on="0"/>
        <pt x="129" y="1543" on="1"/>
        <pt x="281" y="1536" on="1"/>
        <pt x="314" y="1536" on="0"/>
        <pt x="347" y="1539" on="1"/>
        <pt x="412" y="1545" on="1"/>
        <pt x="427" y="1546" on="0"/>
        <pt x="463" y="1550" on="0"/>
        <pt x="525" y="1555" on="0"/>
        <pt x="592" y="1555" on="0"/>
        <pt x="642" y="1512" on="0"/>
        <pt x="642" y="1480" on="1"/>
        <pt x="642" y="1382" on="0"/>
        <pt x="474" y="1382" on="1"/>
        <pt x="471" y="1382" on="1"/>
        <pt x="840" y="944" on="1"/>
        <pt x="1208" y="1382" on="1"/>
        <pt x="1055" y="1386" on="0"/>
        <pt x="1055" y="1480" on="1"/>
        <pt x="1055" y="1512" on="0"/>
        <pt x="1105" y="1555" on="0"/>
        <pt x="1161" y="1555" on="0"/>
        <pt x="1196" y="1553" on="0"/>
        <pt x="1234" y="1550" on="0"/>
        <pt x="1270" y="1546" on="0"/>
        <pt x="1294" y="1544" on="1"/>
        <pt x="1350" y="1539" on="1"/>
        <pt x="1383" y="1536" on="0"/>
        <pt x="1416" y="1536" on="1"/>
        <pt x="1558" y="1543" on="1"/>
        <pt x="1596" y="1543" on="0"/>
        <pt x="1645" y="1500" on="0"/>
        <pt x="1645" y="1472" on="1"/>
        <pt x="1645" y="1408" on="0"/>
        <pt x="1568" y="1394" on="1"/>
        <pt x="1530" y="1388" on="1"/>
        <pt x="1426" y="1369" on="0"/>
        <pt x="1317" y="1256" on="1"/>
        <pt x="1265" y="1202" on="0"/>
        <pt x="1208" y="1128" on="1"/>
        <pt x="1077" y="965" on="1"/>
        <pt x="961" y="827" on="1"/>
        <pt x="1158" y="600" on="1"/>
        <pt x="1398" y="311" on="0"/>
        <pt x="1549" y="167" on="0"/>
        <pt x="1604" y="158" on="1"/>
        <pt x="1658" y="148" on="1"/>
        <pt x="1736" y="135" on="0"/>
        <pt x="1736" y="71" on="1"/>
        <pt x="1736" y="42" on="0"/>
        <pt x="1687" y="1" on="0"/>
        <pt x="1635" y="1" on="0"/>
        <pt x="1606" y="4" on="1"/>
        <pt x="1543" y="9" on="1"/>
        <pt x="1486" y="13" on="1"/>
        <pt x="1458" y="15" on="0"/>
        <pt x="1439" y="15" on="1"/>
        <pt x="1195" y="0" on="1"/>
        <pt x="1128" y="0" on="0"/>
        <pt x="1102" y="44" on="1"/>
        <pt x="1094" y="57" on="0"/>
        <pt x="1094" y="73" on="1"/>
        <pt x="1094" y="165" on="0"/>
        <pt x="1274" y="165" on="1"/>
        <pt x="1298" y="165" on="1"/>
        <pt x="845" y="704" on="1"/>
        <pt x="395" y="165" on="1"/>
        <pt x="418" y="165" on="1"/>
        <pt x="597" y="165" on="0"/>
        <pt x="597" y="73" on="1"/>
        <pt x="597" y="24" on="0"/>
        <pt x="534" y="6" on="1"/>
        <pt x="516" y="0" on="0"/>
        <pt x="496" y="0" on="1"/>
      </contour>
    </TTGlyph>
    <TTGlyph name="Y" xMin="-8" yMin="0" xMax="1715" yMax="1555">
      <contour>
        <pt x="80" y="1550" on="1"/>
        <pt x="213" y="1536" on="1"/>
        <pt x="247" y="1536" on="0"/>
        <pt x="269" y="1537" on="1"/>
        <pt x="314" y="1539" on="1"/>
        <pt x="364" y="1541" on="0"/>
        <pt x="386" y="1544" on="1"/>
        <pt x="427" y="1548" on="1"/>
        <pt x="490" y="1555" on="0"/>
        <pt x="574" y="1555" on="0"/>
        <pt x="624" y="1514" on="0"/>
        <pt x="624" y="1440" on="0"/>
        <pt x="543" y="1388" on="0"/>
        <pt x="455" y="1388" on="1"/>
        <pt x="414" y="1388" on="1"/>
        <pt x="465" y="1322" on="0"/>
        <pt x="516" y="1248" on="1"/>
        <pt x="811" y="787" on="1"/>
        <pt x="855" y="708" on="1"/>
        <pt x="900" y="787" on="1"/>
        <pt x="1089" y="1080" on="1"/>
        <pt x="1232" y="1294" on="0"/>
        <pt x="1301" y="1388" on="1"/>
        <pt x="1253" y="1388" on="1"/>
        <pt x="1178" y="1388" on="0"/>
        <pt x="1092" y="1435" on="0"/>
        <pt x="1092" y="1512" on="0"/>
        <pt x="1142" y="1555" on="0"/>
        <pt x="1214" y="1555" on="0"/>
        <pt x="1249" y="1552" on="1"/>
        <pt x="1313" y="1545" on="1"/>
        <pt x="1343" y="1541" on="0"/>
        <pt x="1380" y="1540" on="1"/>
        <pt x="1438" y="1537" on="1"/>
        <pt x="1460" y="1536" on="0"/>
        <pt x="1477" y="1536" on="1"/>
        <pt x="1628" y="1548" on="1"/>
        <pt x="1685" y="1548" on="0"/>
        <pt x="1708" y="1500" on="1"/>
        <pt x="1715" y="1486" on="0"/>
        <pt x="1715" y="1425" on="0"/>
        <pt x="1650" y="1394" on="0"/>
        <pt x="1548" y="1381" on="0"/>
        <pt x="1492" y="1329" on="1"/>
        <pt x="1394" y="1239" on="0"/>
        <pt x="1245" y="1014" on="1"/>
        <pt x="1081" y="772" on="1"/>
        <pt x="952" y="587" on="0"/>
        <pt x="952" y="502" on="1"/>
        <pt x="952" y="161" on="1"/>
        <pt x="1063" y="161" on="1"/>
        <pt x="1133" y="161" on="0"/>
        <pt x="1189" y="112" on="0"/>
        <pt x="1189" y="48" on="0"/>
        <pt x="1141" y="0" on="0"/>
        <pt x="1083" y="0" on="1"/>
        <pt x="1058" y="0" on="1"/>
        <pt x="1043" y="0" on="0"/>
        <pt x="1026" y="0" on="1"/>
        <pt x="992" y="2" on="1"/>
        <pt x="976" y="2" on="0"/>
        <pt x="912" y="6" on="0"/>
        <pt x="814" y="6" on="0"/>
        <pt x="733" y="2" on="0"/>
        <pt x="715" y="2" on="1"/>
        <pt x="678" y="0" on="1"/>
        <pt x="660" y="0" on="0"/>
        <pt x="644" y="0" on="1"/>
        <pt x="617" y="0" on="1"/>
        <pt x="572" y="0" on="0"/>
        <pt x="519" y="43" on="0"/>
        <pt x="519" y="115" on="0"/>
        <pt x="581" y="161" on="0"/>
        <pt x="633" y="161" on="1"/>
        <pt x="766" y="161" on="1"/>
        <pt x="766" y="484" on="1"/>
        <pt x="766" y="576" on="0"/>
        <pt x="629" y="774" on="1"/>
        <pt x="561" y="870" on="1"/>
        <pt x="488" y="972" on="0"/>
        <pt x="373" y="1151" on="0"/>
        <pt x="321" y="1220" on="1"/>
        <pt x="209" y="1369" on="0"/>
        <pt x="108" y="1388" on="1"/>
        <pt x="70" y="1394" on="1"/>
        <pt x="-8" y="1408" on="0"/>
        <pt x="-8" y="1471" on="1"/>
        <pt x="-8" y="1550" on="0"/>
      </contour>
    </TTGlyph>
    <TTGlyph name="Yacute" xMin="-8" yMin="0" xMax="1715" yMax="2020">
      <component glyphName="Y" x="0" y="0" flags="0x1204"/>
      <component glyphName="acute.cap" x="585" y="0" flags="0x1004"/>
    </TTGlyph>
    <TTGlyph name="Ycircumflex" xMin="-8" yMin="0" xMax="1715" yMax="2020">
      <component glyphName="Y" x="0" y="0" flags="0x1204"/>
      <component glyphName="circumflex.cap" x="597" y="0" flags="0x1004"/>
    </TTGlyph>
    <TTGlyph name="Ydieresis" xMin="-8" yMin="0" xMax="1715" yMax="1982">
      <component glyphName="Y" x="0" y="0" flags="0x1204"/>
      <component glyphName="dieresis.cap" x="416" y="0" flags="0x1004"/>
    </TTGlyph>
    <TTGlyph name="Ygrave" xMin="-8" yMin="0" xMax="1715" yMax="2020">
      <component glyphName="Y" x="0" y="0" flags="0x1204"/>
      <component glyphName="grave.cap" x="558" y="0" flags="0x1004"/>
    </TTGlyph>
    <TTGlyph name="Z" xMin="61" yMin="-139" xMax="1470" yMax="1633">
      <contour>
        <pt x="1189" y="-131" on="0"/>
        <pt x="1166" y="-139" on="0"/>
        <pt x="1120" y="-139" on="0"/>
        <pt x="1080" y="-91" on="0"/>
        <pt x="1080" y="-45" on="0"/>
        <pt x="1085" y="-25" on="1"/>
        <pt x="997" y="-7" on="0"/>
        <pt x="864" y="-4" on="0"/>
        <pt x="763" y="-3" on="0"/>
        <pt x="555" y="1" on="0"/>
        <pt x="399" y="1" on="0"/>
        <pt x="183" y="-16" on="0"/>
        <pt x="148" y="-16" on="1"/>
        <pt x="61" y="-16" on="0"/>
        <pt x="61" y="66" on="1"/>
        <pt x="61" y="133" on="0"/>
        <pt x="167" y="266" on="1"/>
        <pt x="1067" y="1376" on="1"/>
        <pt x="1021" y="1377" on="0"/>
        <pt x="957" y="1379" on="1"/>
        <pt x="824" y="1383" on="1"/>
        <pt x="773" y="1385" on="0"/>
        <pt x="674" y="1388" on="0"/>
        <pt x="531" y="1393" on="0"/>
        <pt x="477" y="1393" on="1"/>
        <pt x="357" y="1393" on="0"/>
        <pt x="319" y="1274" on="1"/>
        <pt x="286" y="1187" on="0"/>
        <pt x="250" y="1172" on="1"/>
        <pt x="237" y="1167" on="0"/>
        <pt x="193" y="1167" on="0"/>
        <pt x="147" y="1205" on="0"/>
        <pt x="147" y="1238" on="1"/>
        <pt x="147" y="1331" on="0"/>
        <pt x="266" y="1539" on="1"/>
        <pt x="306" y="1609" on="0"/>
        <pt x="353" y="1633" on="0"/>
        <pt x="402" y="1633" on="0"/>
        <pt x="443" y="1600" on="0"/>
        <pt x="443" y="1558" on="0"/>
        <pt x="441" y="1546" on="1"/>
        <pt x="556" y="1521" on="0"/>
        <pt x="701" y="1521" on="1"/>
        <pt x="1220" y="1535" on="1"/>
        <pt x="1311" y="1535" on="0"/>
        <pt x="1311" y="1459" on="1"/>
        <pt x="1311" y="1413" on="0"/>
        <pt x="1252" y="1336" on="1"/>
        <pt x="313" y="157" on="1"/>
        <pt x="413" y="156" on="0"/>
        <pt x="498" y="153" on="1"/>
        <pt x="665" y="147" on="1"/>
        <pt x="849" y="140" on="1"/>
        <pt x="939" y="136" on="0"/>
        <pt x="1065" y="136" on="0"/>
        <pt x="1089" y="145" on="1"/>
        <pt x="1151" y="168" on="0"/>
        <pt x="1302" y="390" on="0"/>
        <pt x="1370" y="443" on="0"/>
        <pt x="1434" y="443" on="0"/>
        <pt x="1470" y="401" on="0"/>
        <pt x="1470" y="329" on="0"/>
        <pt x="1369" y="215" on="0"/>
        <pt x="1270" y="29" on="0"/>
        <pt x="1236" y="-72" on="0"/>
        <pt x="1213" y="-110" on="0"/>
      </contour>
    </TTGlyph>
    <TTGlyph name="Zacute" xMin="61" yMin="-139" xMax="1470" yMax="2020">
      <component glyphName="Z" x="0" y="0" flags="0x1204"/>
      <component glyphName="acute.cap" x="581" y="0" flags="0x1004"/>
    </TTGlyph>
    <TTGlyph name="Zcaron" xMin="61" yMin="-139" xMax="1470" yMax="2020">
      <component glyphName="Z" x="0" y="0" flags="0x1204"/>
      <component glyphName="caron.cap" x="428" y="0" flags="0x1004"/>
    </TTGlyph>
    <TTGlyph name="Zdotaccent" xMin="61" yMin="-139" xMax="1470" yMax="2004">
      <component glyphName="Z" x="0" y="0" flags="0x1204"/>
      <component glyphName="dotaccent.cap" x="586" y="0" flags="0x1004"/>
    </TTGlyph>
    <TTGlyph name="a" xMin="123" yMin="-15" xMax="1114" yMax="1035">
      <contour>
        <pt x="836" y="416" on="1"/>
        <pt x="674" y="447" on="0"/>
        <pt x="423" y="447" on="0"/>
        <pt x="304" y="348" on="0"/>
        <pt x="304" y="222" on="0"/>
        <pt x="414" y="141" on="0"/>
        <pt x="513" y="141" on="1"/>
        <pt x="716" y="141" on="0"/>
        <pt x="836" y="272" on="1"/>
      </contour>
      <contour>
        <pt x="859" y="117" on="1"/>
        <pt x="749" y="-15" on="0"/>
        <pt x="494" y="-15" on="1"/>
        <pt x="324" y="-15" on="0"/>
        <pt x="123" y="141" on="0"/>
        <pt x="123" y="274" on="1"/>
        <pt x="123" y="495" on="0"/>
        <pt x="368" y="562" on="1"/>
        <pt x="451" y="584" on="0"/>
        <pt x="714" y="584" on="0"/>
        <pt x="836" y="554" on="1"/>
        <pt x="836" y="664" on="1"/>
        <pt x="836" y="829" on="0"/>
        <pt x="704" y="866" on="1"/>
        <pt x="657" y="880" on="0"/>
        <pt x="578" y="880" on="1"/>
        <pt x="409" y="880" on="0"/>
        <pt x="383" y="790" on="1"/>
        <pt x="367" y="742" on="0"/>
        <pt x="326" y="721" on="1"/>
        <pt x="308" y="712" on="0"/>
        <pt x="285" y="712" on="1"/>
        <pt x="190" y="712" on="0"/>
        <pt x="190" y="814" on="1"/>
        <pt x="190" y="901" on="0"/>
        <pt x="419" y="1035" on="0"/>
        <pt x="595" y="1035" on="1"/>
        <pt x="893" y="1035" on="0"/>
        <pt x="980" y="824" on="1"/>
        <pt x="1009" y="752" on="0"/>
        <pt x="1009" y="654" on="1"/>
        <pt x="1009" y="395" on="1"/>
        <pt x="1009" y="259" on="0"/>
        <pt x="1031" y="166" on="0"/>
        <pt x="1061" y="147" on="1"/>
        <pt x="1114" y="113" on="0"/>
        <pt x="1114" y="68" on="1"/>
        <pt x="1114" y="-15" on="0"/>
        <pt x="905" y="-15" on="0"/>
      </contour>
    </TTGlyph>
    <TTGlyph name="aacute" xMin="123" yMin="-15" xMax="1114" yMax="1552">
      <component glyphName="a" x="0" y="0" flags="0x1204"/>
      <component glyphName="acute" x="297" y="-29" flags="0x1004"/>
    </TTGlyph>
    <TTGlyph name="abreve" xMin="123" yMin="-15" xMax="1114" yMax="1627">
      <component glyphName="a" x="0" y="0" flags="0x1204"/>
      <component glyphName="breve" x="177" y="0" flags="0x1004"/>
    </TTGlyph>
    <TTGlyph name="acircumflex" xMin="123" yMin="-15" xMax="1114" yMax="1562">
      <component glyphName="a" x="0" y="0" flags="0x1204"/>
      <component glyphName="circumflex" x="173" y="-29" flags="0x1004"/>
    </TTGlyph>
    <TTGlyph name="acute" xMin="106" yMin="1200" xMax="501" yMax="1581">
      <contour>
        <pt x="162" y="1200" on="1"/>
        <pt x="106" y="1200" on="0"/>
        <pt x="106" y="1259" on="1"/>
        <pt x="106" y="1286" on="0"/>
        <pt x="172" y="1345" on="0"/>
        <pt x="214" y="1400" on="1"/>
        <pt x="253" y="1451" on="1"/>
        <pt x="272" y="1477" on="0"/>
        <pt x="294" y="1511" on="1"/>
        <pt x="341" y="1581" on="0"/>
        <pt x="449" y="1581" on="0"/>
        <pt x="501" y="1531" on="0"/>
        <pt x="501" y="1493" on="1"/>
        <pt x="501" y="1426" on="0"/>
        <pt x="334" y="1316" on="0"/>
        <pt x="311" y="1299" on="1"/>
        <pt x="270" y="1268" on="1"/>
        <pt x="251" y="1253" on="0"/>
        <pt x="191" y="1200" on="0"/>
      </contour>
    </TTGlyph>
    <TTGlyph name="acute.cap" xMin="63" yMin="1639" xMax="458" yMax="2020">
      <contour>
        <pt x="119" y="1639" on="1"/>
        <pt x="63" y="1639" on="0"/>
        <pt x="63" y="1698" on="1"/>
        <pt x="63" y="1725" on="0"/>
        <pt x="129" y="1784" on="0"/>
        <pt x="172" y="1839" on="1"/>
        <pt x="210" y="1890" on="1"/>
        <pt x="229" y="1916" on="0"/>
        <pt x="252" y="1950" on="1"/>
        <pt x="298" y="2020" on="0"/>
        <pt x="406" y="2020" on="0"/>
        <pt x="458" y="1970" on="0"/>
        <pt x="458" y="1932" on="1"/>
        <pt x="458" y="1865" on="0"/>
        <pt x="291" y="1755" on="0"/>
        <pt x="268" y="1738" on="1"/>
        <pt x="226" y="1706" on="1"/>
        <pt x="208" y="1692" on="0"/>
        <pt x="148" y="1639" on="0"/>
      </contour>
    </TTGlyph>
    <TTGlyph name="adieresis" xMin="123" yMin="-15" xMax="1114" yMax="1423">
      <component glyphName="a" x="0" y="0" flags="0x1204"/>
      <component glyphName="dieresis" x="157" y="-29" flags="0x1004"/>
    </TTGlyph>
    <TTGlyph name="ae" xMin="90" yMin="-15" xMax="1744" yMax="1035">
      <contour>
        <pt x="549" y="441" on="1"/>
        <pt x="327" y="441" on="0"/>
        <pt x="283" y="338" on="1"/>
        <pt x="271" y="309" on="0"/>
        <pt x="271" y="280" on="1"/>
        <pt x="271" y="222" on="0"/>
        <pt x="381" y="141" on="0"/>
        <pt x="589" y="141" on="0"/>
        <pt x="778" y="229" on="0"/>
        <pt x="829" y="306" on="1"/>
        <pt x="811" y="355" on="0"/>
        <pt x="805" y="409" on="1"/>
        <pt x="647" y="441" on="0"/>
      </contour>
      <contour>
        <pt x="977" y="605" on="1"/>
        <pt x="1049" y="601" on="0"/>
        <pt x="1106" y="601" on="1"/>
        <pt x="1208" y="601" on="1"/>
        <pt x="1456" y="601" on="0"/>
        <pt x="1570" y="661" on="0"/>
        <pt x="1570" y="783" on="0"/>
        <pt x="1432" y="877" on="0"/>
        <pt x="1347" y="877" on="1"/>
        <pt x="1195" y="877" on="0"/>
        <pt x="1001" y="731" on="0"/>
      </contour>
      <contour>
        <pt x="1656" y="315" on="1"/>
        <pt x="1744" y="315" on="0"/>
        <pt x="1744" y="236" on="1"/>
        <pt x="1744" y="200" on="0"/>
        <pt x="1689" y="111" on="0"/>
        <pt x="1636" y="73" on="1"/>
        <pt x="1512" y="-15" on="0"/>
        <pt x="1323" y="-15" on="1"/>
        <pt x="1188" y="-15" on="0"/>
        <pt x="973" y="88" on="0"/>
        <pt x="904" y="174" on="1"/>
        <pt x="744" y="-15" on="0"/>
        <pt x="195" y="-15" on="0"/>
        <pt x="115" y="155" on="1"/>
        <pt x="90" y="208" on="0"/>
        <pt x="90" y="276" on="1"/>
        <pt x="90" y="418" on="0"/>
        <pt x="314" y="584" on="0"/>
        <pt x="529" y="584" on="1"/>
        <pt x="681" y="584" on="0"/>
        <pt x="803" y="554" on="1"/>
        <pt x="803" y="647" on="1"/>
        <pt x="803" y="767" on="0"/>
        <pt x="683" y="880" on="0"/>
        <pt x="465" y="880" on="0"/>
        <pt x="364" y="838" on="0"/>
        <pt x="334" y="742" on="0"/>
        <pt x="292" y="721" on="1"/>
        <pt x="275" y="712" on="0"/>
        <pt x="252" y="712" on="1"/>
        <pt x="157" y="712" on="0"/>
        <pt x="157" y="814" on="1"/>
        <pt x="157" y="901" on="0"/>
        <pt x="386" y="1035" on="0"/>
        <pt x="562" y="1035" on="1"/>
        <pt x="830" y="1035" on="0"/>
        <pt x="930" y="842" on="1"/>
        <pt x="997" y="930" on="0"/>
        <pt x="1200" y="1035" on="0"/>
        <pt x="1316" y="1035" on="1"/>
        <pt x="1521" y="1035" on="0"/>
        <pt x="1744" y="850" on="0"/>
        <pt x="1744" y="580" on="0"/>
        <pt x="1527" y="448" on="0"/>
        <pt x="1186" y="448" on="1"/>
        <pt x="1090" y="448" on="0"/>
        <pt x="977" y="453" on="1"/>
        <pt x="987" y="315" on="0"/>
        <pt x="1182" y="143" on="0"/>
        <pt x="1334" y="143" on="1"/>
        <pt x="1531" y="143" on="0"/>
        <pt x="1580" y="248" on="1"/>
        <pt x="1611" y="315" on="0"/>
      </contour>
    </TTGlyph>
    <TTGlyph name="aeacute" xMin="90" yMin="-15" xMax="1744" yMax="1552">
      <component glyphName="ae" x="0" y="0" flags="0x1204"/>
      <component glyphName="acute" x="641" y="-29" flags="0x1004"/>
    </TTGlyph>
    <TTGlyph name="agrave" xMin="123" yMin="-15" xMax="1114" yMax="1552">
      <component glyphName="a" x="0" y="0" flags="0x1204"/>
      <component glyphName="grave" x="369" y="-29" flags="0x1004"/>
    </TTGlyph>
    <TTGlyph name="amacron" xMin="123" yMin="-15" xMax="1114" yMax="1422">
      <component glyphName="a" x="0" y="0" flags="0x1204"/>
      <component glyphName="macron" x="145" y="0" flags="0x1004"/>
    </TTGlyph>
    <TTGlyph name="ampersand" xMin="129" yMin="-15" xMax="1583" yMax="1575">
      <contour>
        <pt x="943" y="261" on="1"/>
        <pt x="715" y="443" on="0"/>
        <pt x="521" y="678" on="1"/>
        <pt x="362" y="565" on="0"/>
        <pt x="330" y="458" on="1"/>
        <pt x="320" y="422" on="0"/>
        <pt x="320" y="376" on="1"/>
        <pt x="320" y="279" on="0"/>
        <pt x="475" y="145" on="0"/>
        <pt x="581" y="145" on="1"/>
        <pt x="766" y="145" on="0"/>
      </contour>
      <contour>
        <pt x="575" y="908" on="1"/>
        <pt x="759" y="1035" on="0"/>
        <pt x="786" y="1142" on="1"/>
        <pt x="796" y="1179" on="0"/>
        <pt x="796" y="1227" on="1"/>
        <pt x="796" y="1320" on="0"/>
        <pt x="685" y="1414" on="0"/>
        <pt x="617" y="1414" on="1"/>
        <pt x="508" y="1414" on="0"/>
        <pt x="413" y="1302" on="0"/>
        <pt x="413" y="1256" on="1"/>
        <pt x="413" y="1174" on="0"/>
        <pt x="487" y="1020" on="0"/>
      </contour>
      <contour>
        <pt x="1076" y="163" on="1"/>
        <pt x="847" y="-15" on="0"/>
        <pt x="359" y="-15" on="0"/>
        <pt x="232" y="108" on="1"/>
        <pt x="129" y="207" on="0"/>
        <pt x="129" y="534" on="0"/>
        <pt x="283" y="688" on="1"/>
        <pt x="339" y="744" on="0"/>
        <pt x="420" y="804" on="1"/>
        <pt x="232" y="1049" on="0"/>
        <pt x="232" y="1364" on="0"/>
        <pt x="429" y="1575" on="0"/>
        <pt x="775" y="1575" on="0"/>
        <pt x="978" y="1393" on="0"/>
        <pt x="978" y="1258" on="1"/>
        <pt x="978" y="1056" on="0"/>
        <pt x="821" y="900" on="1"/>
        <pt x="763" y="843" on="0"/>
        <pt x="678" y="782" on="1"/>
        <pt x="712" y="743" on="1"/>
        <pt x="890" y="526" on="0"/>
        <pt x="1088" y="376" on="1"/>
        <pt x="1229" y="511" on="0"/>
        <pt x="1275" y="651" on="1"/>
        <pt x="1290" y="697" on="0"/>
        <pt x="1290" y="777" on="0"/>
        <pt x="1216" y="847" on="0"/>
        <pt x="1216" y="930" on="0"/>
        <pt x="1282" y="992" on="0"/>
        <pt x="1406" y="992" on="0"/>
        <pt x="1483" y="903" on="0"/>
        <pt x="1483" y="838" on="1"/>
        <pt x="1483" y="714" on="0"/>
        <pt x="1334" y="416" on="0"/>
        <pt x="1213" y="289" on="1"/>
        <pt x="1338" y="211" on="0"/>
        <pt x="1525" y="155" on="0"/>
        <pt x="1583" y="109" on="0"/>
        <pt x="1583" y="73" on="1"/>
        <pt x="1583" y="-15" on="0"/>
        <pt x="1479" y="-15" on="1"/>
        <pt x="1337" y="-15" on="0"/>
      </contour>
    </TTGlyph>
    <TTGlyph name="aogonek" xMin="123" yMin="-497" xMax="1125" yMax="1035">
      <contour>
        <pt x="836" y="416" on="1"/>
        <pt x="674" y="447" on="0"/>
        <pt x="423" y="447" on="0"/>
        <pt x="304" y="348" on="0"/>
        <pt x="304" y="281" on="1"/>
        <pt x="304" y="141" on="0"/>
        <pt x="498" y="141" on="1"/>
        <pt x="636" y="141" on="0"/>
        <pt x="767" y="216" on="1"/>
        <pt x="806" y="239" on="0"/>
        <pt x="836" y="266" on="1"/>
      </contour>
      <contour>
        <pt x="811" y="-254" on="1"/>
        <pt x="811" y="-348" on="0"/>
        <pt x="886" y="-348" on="1"/>
        <pt x="939" y="-348" on="0"/>
        <pt x="995" y="-273" on="0"/>
        <pt x="1027" y="-249" on="0"/>
        <pt x="1078" y="-249" on="0"/>
        <pt x="1125" y="-284" on="0"/>
        <pt x="1125" y="-320" on="1"/>
        <pt x="1125" y="-388" on="0"/>
        <pt x="971" y="-497" on="0"/>
        <pt x="900" y="-497" on="1"/>
        <pt x="775" y="-497" on="0"/>
        <pt x="631" y="-372" on="0"/>
        <pt x="631" y="-266" on="1"/>
        <pt x="631" y="-126" on="0"/>
        <pt x="793" y="-11" on="1"/>
        <pt x="841" y="23" on="0"/>
        <pt x="894" y="47" on="1"/>
        <pt x="869" y="82" on="0"/>
        <pt x="854" y="132" on="1"/>
        <pt x="753" y="41" on="0"/>
        <pt x="591" y="-2" on="1"/>
        <pt x="540" y="-15" on="0"/>
        <pt x="469" y="-15" on="1"/>
        <pt x="308" y="-15" on="0"/>
        <pt x="123" y="138" on="0"/>
        <pt x="123" y="274" on="1"/>
        <pt x="123" y="495" on="0"/>
        <pt x="368" y="562" on="1"/>
        <pt x="451" y="584" on="0"/>
        <pt x="714" y="584" on="0"/>
        <pt x="836" y="554" on="1"/>
        <pt x="836" y="664" on="1"/>
        <pt x="836" y="829" on="0"/>
        <pt x="704" y="866" on="1"/>
        <pt x="657" y="880" on="0"/>
        <pt x="578" y="880" on="1"/>
        <pt x="409" y="880" on="0"/>
        <pt x="383" y="790" on="1"/>
        <pt x="367" y="742" on="0"/>
        <pt x="326" y="721" on="1"/>
        <pt x="308" y="712" on="0"/>
        <pt x="285" y="712" on="1"/>
        <pt x="190" y="712" on="0"/>
        <pt x="190" y="814" on="1"/>
        <pt x="190" y="901" on="0"/>
        <pt x="419" y="1035" on="0"/>
        <pt x="595" y="1035" on="1"/>
        <pt x="893" y="1035" on="0"/>
        <pt x="980" y="824" on="1"/>
        <pt x="1009" y="752" on="0"/>
        <pt x="1009" y="654" on="1"/>
        <pt x="1009" y="395" on="1"/>
        <pt x="1009" y="259" on="0"/>
        <pt x="1031" y="166" on="0"/>
        <pt x="1061" y="147" on="1"/>
        <pt x="1114" y="113" on="0"/>
        <pt x="1114" y="22" on="0"/>
        <pt x="1080" y="0" on="1"/>
        <pt x="1079" y="0" on="0"/>
        <pt x="1078" y="-1" on="0"/>
        <pt x="1076" y="-2" on="1"/>
        <pt x="909" y="-71" on="0"/>
        <pt x="837" y="-176" on="1"/>
        <pt x="811" y="-213" on="0"/>
      </contour>
    </TTGlyph>
    <TTGlyph name="approxequal" xMin="90" yMin="103" xMax="1248" yMax="1035">
      <component glyphName="asciitilde" x="0" y="253" flags="0x1204"/>
      <component glyphName="asciitilde" x="0" y="-229" flags="0x1004"/>
    </TTGlyph>
    <TTGlyph name="aring" xMin="123" yMin="-15" xMax="1114" yMax="1737">
      <component glyphName="a" x="0" y="0" flags="0x1204"/>
      <component glyphName="ring" x="295" y="1" flags="0x1004"/>
    </TTGlyph>
    <TTGlyph name="asciicircum" xMin="174" yMin="836" xMax="1022" yMax="1594">
      <contour>
        <pt x="290" y="844" on="0"/>
        <pt x="263" y="836" on="0"/>
        <pt x="216" y="836" on="0"/>
        <pt x="174" y="876" on="0"/>
        <pt x="174" y="896" on="1"/>
        <pt x="174" y="937" on="0"/>
        <pt x="212" y="990" on="1"/>
        <pt x="243" y="1034" on="1"/>
        <pt x="483" y="1518" on="1"/>
        <pt x="540" y="1594" on="0"/>
        <pt x="626" y="1594" on="0"/>
        <pt x="672" y="1564" on="0"/>
        <pt x="707" y="1518" on="1"/>
        <pt x="955" y="1034" on="1"/>
        <pt x="1014" y="958" on="0"/>
        <pt x="1022" y="911" on="0"/>
        <pt x="1022" y="870" on="0"/>
        <pt x="982" y="836" on="0"/>
        <pt x="919" y="836" on="0"/>
        <pt x="870" y="872" on="0"/>
        <pt x="825" y="932" on="1"/>
        <pt x="595" y="1359" on="1"/>
        <pt x="373" y="932" on="1"/>
        <pt x="329" y="873" on="0"/>
      </contour>
    </TTGlyph>
    <TTGlyph name="asciitilde" xMin="90" yMin="332" xMax="1248" yMax="782">
      <contour>
        <pt x="204" y="373" on="0"/>
        <pt x="177" y="366" on="0"/>
        <pt x="135" y="366" on="0"/>
        <pt x="90" y="414" on="0"/>
        <pt x="90" y="533" on="0"/>
        <pt x="141" y="652" on="0"/>
        <pt x="184" y="694" on="1"/>
        <pt x="276" y="782" on="0"/>
        <pt x="405" y="782" on="1"/>
        <pt x="479" y="782" on="0"/>
        <pt x="587" y="733" on="0"/>
        <pt x="687" y="658" on="1"/>
        <pt x="824" y="557" on="1"/>
        <pt x="896" y="506" on="0"/>
        <pt x="942" y="494" on="0"/>
        <pt x="959" y="494" on="1"/>
        <pt x="1057" y="494" on="0"/>
        <pt x="1090" y="644" on="1"/>
        <pt x="1105" y="714" on="0"/>
        <pt x="1140" y="748" on="0"/>
        <pt x="1201" y="748" on="0"/>
        <pt x="1248" y="700" on="0"/>
        <pt x="1248" y="581" on="0"/>
        <pt x="1197" y="462" on="0"/>
        <pt x="1154" y="420" on="1"/>
        <pt x="1062" y="332" on="0"/>
        <pt x="807" y="332" on="0"/>
        <pt x="646" y="464" on="1"/>
        <pt x="545" y="545" on="1"/>
        <pt x="471" y="604" on="0"/>
        <pt x="417" y="620" on="0"/>
        <pt x="396" y="620" on="1"/>
        <pt x="284" y="620" on="0"/>
        <pt x="249" y="471" on="1"/>
        <pt x="232" y="399" on="0"/>
      </contour>
    </TTGlyph>
    <TTGlyph name="asterisk" xMin="100" yMin="697" xMax="1036" yMax="1594">
      <contour>
        <pt x="501" y="1195" on="1"/>
        <pt x="480" y="1480" on="1"/>
        <pt x="480" y="1533" on="0"/>
        <pt x="527" y="1594" on="0"/>
        <pt x="607" y="1594" on="0"/>
        <pt x="657" y="1533" on="0"/>
        <pt x="657" y="1436" on="0"/>
        <pt x="635" y="1266" on="0"/>
        <pt x="633" y="1193" on="1"/>
        <pt x="722" y="1215" on="0"/>
        <pt x="774" y="1243" on="1"/>
        <pt x="848" y="1282" on="1"/>
        <pt x="910" y="1314" on="0"/>
        <pt x="985" y="1314" on="0"/>
        <pt x="1036" y="1270" on="0"/>
        <pt x="1036" y="1237" on="1"/>
        <pt x="1036" y="1180" on="0"/>
        <pt x="936" y="1133" on="0"/>
        <pt x="729" y="1088" on="0"/>
        <pt x="676" y="1068" on="1"/>
        <pt x="710" y="1016" on="0"/>
        <pt x="755" y="970" on="1"/>
        <pt x="826" y="895" on="1"/>
        <pt x="874" y="842" on="0"/>
        <pt x="889" y="797" on="0"/>
        <pt x="889" y="742" on="0"/>
        <pt x="844" y="697" on="0"/>
        <pt x="808" y="697" on="1"/>
        <pt x="738" y="697" on="0"/>
        <pt x="658" y="844" on="1"/>
        <pt x="611" y="932" on="0"/>
        <pt x="594" y="956" on="1"/>
        <pt x="567" y="996" on="1"/>
        <pt x="524" y="938" on="0"/>
        <pt x="460" y="819" on="0"/>
        <pt x="417" y="748" on="0"/>
        <pt x="382" y="710" on="0"/>
        <pt x="351" y="697" on="0"/>
        <pt x="298" y="697" on="0"/>
        <pt x="249" y="737" on="0"/>
        <pt x="249" y="764" on="1"/>
        <pt x="249" y="843" on="0"/>
        <pt x="348" y="944" on="1"/>
        <pt x="418" y="1018" on="1"/>
        <pt x="442" y="1043" on="0"/>
        <pt x="462" y="1069" on="1"/>
        <pt x="414" y="1088" on="0"/>
        <pt x="363" y="1099" on="1"/>
        <pt x="289" y="1114" on="1"/>
        <pt x="139" y="1142" on="0"/>
        <pt x="110" y="1195" on="1"/>
        <pt x="100" y="1212" on="0"/>
        <pt x="100" y="1269" on="0"/>
        <pt x="153" y="1312" on="0"/>
        <pt x="243" y="1312" on="0"/>
        <pt x="447" y="1212" on="0"/>
      </contour>
    </TTGlyph>
    <TTGlyph name="at" xMin="130" yMin="-339" xMax="2088" yMax="1575">
      <contour>
        <pt x="1074" y="302" on="1"/>
        <pt x="1218" y="302" on="0"/>
        <pt x="1306" y="433" on="1"/>
        <pt x="1306" y="793" on="1"/>
        <pt x="1249" y="859" on="0"/>
        <pt x="1134" y="886" on="1"/>
        <pt x="1100" y="894" on="0"/>
        <pt x="1056" y="894" on="1"/>
        <pt x="957" y="894" on="0"/>
        <pt x="816" y="738" on="0"/>
        <pt x="816" y="465" on="0"/>
        <pt x="960" y="302" on="0"/>
      </contour>
      <contour>
        <pt x="1345" y="286" on="1"/>
        <pt x="1252" y="148" on="0"/>
        <pt x="1030" y="148" on="1"/>
        <pt x="960" y="148" on="0"/>
        <pt x="807" y="212" on="0"/>
        <pt x="753" y="271" on="1"/>
        <pt x="641" y="393" on="0"/>
        <pt x="641" y="792" on="0"/>
        <pt x="871" y="1054" on="0"/>
        <pt x="1233" y="1054" on="0"/>
        <pt x="1344" y="955" on="1"/>
        <pt x="1396" y="1054" on="0"/>
        <pt x="1486" y="1054" on="1"/>
        <pt x="1549" y="1054" on="0"/>
        <pt x="1570" y="1004" on="1"/>
        <pt x="1576" y="991" on="0"/>
        <pt x="1576" y="971" on="1"/>
        <pt x="1576" y="929" on="0"/>
        <pt x="1529" y="898" on="1"/>
        <pt x="1498" y="875" on="0"/>
        <pt x="1480" y="807" on="0"/>
        <pt x="1480" y="699" on="1"/>
        <pt x="1480" y="455" on="1"/>
        <pt x="1480" y="370" on="0"/>
        <pt x="1578" y="293" on="0"/>
        <pt x="1635" y="293" on="1"/>
        <pt x="1755" y="293" on="0"/>
        <pt x="1909" y="509" on="0"/>
        <pt x="1909" y="941" on="0"/>
        <pt x="1796" y="1104" on="1"/>
        <pt x="1640" y="1329" on="0"/>
        <pt x="1329" y="1392" on="1"/>
        <pt x="1233" y="1412" on="0"/>
        <pt x="1122" y="1412" on="1"/>
        <pt x="896" y="1412" on="0"/>
        <pt x="521" y="1203" on="0"/>
        <pt x="310" y="839" on="0"/>
        <pt x="310" y="639" on="1"/>
        <pt x="310" y="270" on="0"/>
        <pt x="708" y="-151" on="0"/>
        <pt x="987" y="-151" on="1"/>
        <pt x="1023" y="-151" on="0"/>
        <pt x="1097" y="-120" on="0"/>
        <pt x="1131" y="-120" on="1"/>
        <pt x="1193" y="-120" on="0"/>
        <pt x="1211" y="-183" on="1"/>
        <pt x="1216" y="-200" on="0"/>
        <pt x="1216" y="-218" on="1"/>
        <pt x="1216" y="-261" on="0"/>
        <pt x="1118" y="-339" on="0"/>
        <pt x="1010" y="-339" on="1"/>
        <pt x="783" y="-339" on="0"/>
        <pt x="377" y="-110" on="0"/>
        <pt x="130" y="322" on="0"/>
        <pt x="130" y="879" on="0"/>
        <pt x="386" y="1317" on="0"/>
        <pt x="852" y="1575" on="0"/>
        <pt x="1150" y="1575" on="1"/>
        <pt x="1550" y="1575" on="0"/>
        <pt x="2088" y="1095" on="0"/>
        <pt x="2088" y="732" on="1"/>
        <pt x="2088" y="477" on="0"/>
        <pt x="1821" y="148" on="0"/>
        <pt x="1417" y="148" on="0"/>
      </contour>
    </TTGlyph>
    <TTGlyph name="atilde" xMin="123" yMin="-15" xMax="1114" yMax="1478">
      <component glyphName="a" x="0" y="0" flags="0x1204"/>
      <component glyphName="tilde" x="119" y="-29" flags="0x1004"/>
    </TTGlyph>
    <TTGlyph name="b" xMin="-18" yMin="-15" xMax="1108" yMax="1594">
      <contour>
        <pt x="354" y="219" on="1"/>
        <pt x="451" y="143" on="0"/>
        <pt x="729" y="143" on="0"/>
        <pt x="932" y="342" on="0"/>
        <pt x="932" y="679" on="0"/>
        <pt x="755" y="873" on="0"/>
        <pt x="457" y="873" on="0"/>
        <pt x="357" y="757" on="1"/>
        <pt x="357" y="281" on="1"/>
        <pt x="357" y="247" on="0"/>
      </contour>
      <contour>
        <pt x="311" y="67" on="1"/>
        <pt x="264" y="-15" on="0"/>
        <pt x="81" y="-15" on="0"/>
        <pt x="81" y="70" on="1"/>
        <pt x="81" y="112" on="0"/>
        <pt x="162" y="166" on="0"/>
        <pt x="184" y="259" on="0"/>
        <pt x="184" y="395" on="1"/>
        <pt x="184" y="1353" on="1"/>
        <pt x="184" y="1392" on="0"/>
        <pt x="170" y="1412" on="0"/>
        <pt x="157" y="1412" on="1"/>
        <pt x="72" y="1400" on="1"/>
        <pt x="32" y="1400" on="0"/>
        <pt x="-18" y="1440" on="0"/>
        <pt x="-18" y="1476" on="1"/>
        <pt x="-18" y="1552" on="0"/>
        <pt x="90" y="1563" on="1"/>
        <pt x="162" y="1569" on="0"/>
        <pt x="239" y="1594" on="0"/>
        <pt x="280" y="1594" on="1"/>
        <pt x="357" y="1594" on="0"/>
        <pt x="357" y="1498" on="1"/>
        <pt x="357" y="933" on="1"/>
        <pt x="465" y="1035" on="0"/>
        <pt x="622" y="1035" on="1"/>
        <pt x="830" y="1035" on="0"/>
        <pt x="1108" y="767" on="0"/>
        <pt x="1108" y="289" on="0"/>
        <pt x="804" y="-15" on="0"/>
        <pt x="569" y="-15" on="1"/>
        <pt x="458" y="-15" on="0"/>
        <pt x="364" y="31" on="1"/>
        <pt x="334" y="46" on="0"/>
      </contour>
    </TTGlyph>
    <TTGlyph name="backslash" xMin="153" yMin="-236" xMax="791" yMax="1594">
      <contour>
        <pt x="791" y="-132" on="1"/>
        <pt x="791" y="-236" on="0"/>
        <pt x="597" y="-236" on="0"/>
        <pt x="572" y="-98" on="1"/>
        <pt x="558" y="-18" on="0"/>
        <pt x="548" y="27" on="1"/>
        <pt x="530" y="103" on="1"/>
        <pt x="243" y="1171" on="1"/>
        <pt x="222" y="1249" on="0"/>
        <pt x="206" y="1301" on="1"/>
        <pt x="178" y="1390" on="1"/>
        <pt x="153" y="1465" on="0"/>
        <pt x="153" y="1543" on="0"/>
        <pt x="202" y="1594" on="0"/>
        <pt x="246" y="1594" on="1"/>
        <pt x="340" y="1594" on="0"/>
        <pt x="391" y="1293" on="0"/>
        <pt x="415" y="1203" on="1"/>
        <pt x="667" y="244" on="1"/>
        <pt x="690" y="156" on="0"/>
        <pt x="712" y="97" on="1"/>
        <pt x="752" y="-4" on="1"/>
        <pt x="791" y="-100" on="0"/>
      </contour>
    </TTGlyph>
    <TTGlyph name="bar" xMin="321" yMin="-360" xMax="527" yMax="1594">
      <contour>
        <pt x="524" y="-360" on="0"/>
        <pt x="324" y="-360" on="0"/>
        <pt x="324" y="-200" on="1"/>
        <pt x="324" y="-136" on="0"/>
        <pt x="328" y="-70" on="1"/>
        <pt x="335" y="21" on="0"/>
        <pt x="336" y="278" on="1"/>
        <pt x="338" y="414" on="1"/>
        <pt x="338" y="480" on="0"/>
        <pt x="338" y="534" on="1"/>
        <pt x="338" y="693" on="1"/>
        <pt x="338" y="745" on="0"/>
        <pt x="337" y="876" on="0"/>
        <pt x="335" y="1213" on="0"/>
        <pt x="330" y="1274" on="1"/>
        <pt x="326" y="1328" on="1"/>
        <pt x="325" y="1349" on="0"/>
        <pt x="324" y="1371" on="1"/>
        <pt x="322" y="1414" on="1"/>
        <pt x="321" y="1435" on="0"/>
        <pt x="321" y="1527" on="0"/>
        <pt x="382" y="1594" on="0"/>
        <pt x="424" y="1594" on="1"/>
        <pt x="493" y="1594" on="0"/>
        <pt x="518" y="1520" on="1"/>
        <pt x="527" y="1491" on="0"/>
        <pt x="527" y="1431" on="0"/>
        <pt x="525" y="1389" on="0"/>
        <pt x="522" y="1346" on="0"/>
        <pt x="520" y="1307" on="0"/>
        <pt x="518" y="1268" on="0"/>
        <pt x="517" y="1216" on="1"/>
        <pt x="511" y="907" on="0"/>
        <pt x="511" y="698" on="1"/>
        <pt x="511" y="540" on="1"/>
        <pt x="511" y="488" on="0"/>
        <pt x="512" y="422" on="1"/>
        <pt x="512" y="284" on="1"/>
        <pt x="514" y="19" on="0"/>
        <pt x="524" y="-150" on="0"/>
        <pt x="524" y="-212" on="1"/>
      </contour>
    </TTGlyph>
    <TTGlyph name="braceleft" xMin="50" yMin="-223" xMax="786" yMax="1575">
      <contour>
        <pt x="587" y="-223" on="1"/>
        <pt x="291" y="-223" on="0"/>
        <pt x="277" y="204" on="1"/>
        <pt x="268" y="426" on="0"/>
        <pt x="229" y="543" on="0"/>
        <pt x="196" y="572" on="0"/>
        <pt x="104" y="586" on="0"/>
        <pt x="50" y="636" on="0"/>
        <pt x="50" y="716" on="0"/>
        <pt x="104" y="766" on="0"/>
        <pt x="196" y="780" on="0"/>
        <pt x="229" y="809" on="0"/>
        <pt x="268" y="926" on="0"/>
        <pt x="281" y="1267" on="0"/>
        <pt x="306" y="1348" on="1"/>
        <pt x="375" y="1575" on="0"/>
        <pt x="587" y="1575" on="1"/>
        <pt x="738" y="1575" on="0"/>
        <pt x="775" y="1508" on="1"/>
        <pt x="786" y="1488" on="0"/>
        <pt x="786" y="1426" on="0"/>
        <pt x="733" y="1380" on="0"/>
        <pt x="669" y="1380" on="0"/>
        <pt x="602" y="1415" on="0"/>
        <pt x="544" y="1415" on="0"/>
        <pt x="500" y="1383" on="0"/>
        <pt x="460" y="1250" on="0"/>
        <pt x="444" y="970" on="1"/>
        <pt x="429" y="739" on="0"/>
        <pt x="291" y="676" on="1"/>
        <pt x="429" y="611" on="0"/>
        <pt x="444" y="382" on="1"/>
        <pt x="460" y="103" on="0"/>
        <pt x="500" y="-31" on="0"/>
        <pt x="544" y="-63" on="0"/>
        <pt x="602" y="-63" on="0"/>
        <pt x="669" y="-27" on="0"/>
        <pt x="736" y="-27" on="0"/>
        <pt x="786" y="-71" on="0"/>
        <pt x="786" y="-100" on="1"/>
        <pt x="786" y="-159" on="0"/>
        <pt x="684" y="-223" on="0"/>
      </contour>
    </TTGlyph>
    <TTGlyph name="braceright" xMin="69" yMin="-223" xMax="806" yMax="1575">
      <component glyphName="braceleft" x="856" y="0" scalex="-1.0" scaley="1.0" flags="0x1004"/>
    </TTGlyph>
    <TTGlyph name="bracketleft" xMin="180" yMin="-224" xMax="707" yMax="1575">
      <contour>
        <pt x="324" y="1575" on="1"/>
        <pt x="470" y="1569" on="1"/>
        <pt x="601" y="1575" on="1"/>
        <pt x="652" y="1575" on="0"/>
        <pt x="707" y="1532" on="0"/>
        <pt x="707" y="1458" on="0"/>
        <pt x="656" y="1405" on="0"/>
        <pt x="575" y="1405" on="0"/>
        <pt x="537" y="1409" on="0"/>
        <pt x="492" y="1410" on="1"/>
        <pt x="454" y="1412" on="1"/>
        <pt x="435" y="1412" on="0"/>
        <pt x="418" y="1412" on="1"/>
        <pt x="365" y="1412" on="1"/>
        <pt x="365" y="-61" on="1"/>
        <pt x="418" y="-61" on="1"/>
        <pt x="435" y="-61" on="0"/>
        <pt x="454" y="-60" on="1"/>
        <pt x="492" y="-60" on="1"/>
        <pt x="537" y="-58" on="0"/>
        <pt x="575" y="-54" on="0"/>
        <pt x="599" y="-54" on="1"/>
        <pt x="707" y="-54" on="0"/>
        <pt x="707" y="-136" on="1"/>
        <pt x="707" y="-172" on="0"/>
        <pt x="652" y="-224" on="0"/>
        <pt x="601" y="-224" on="1"/>
        <pt x="470" y="-218" on="1"/>
        <pt x="451" y="-218" on="0"/>
        <pt x="436" y="-219" on="1"/>
        <pt x="404" y="-221" on="1"/>
        <pt x="378" y="-224" on="0"/>
        <pt x="255" y="-224" on="0"/>
        <pt x="180" y="-135" on="0"/>
        <pt x="180" y="34" on="0"/>
        <pt x="186" y="192" on="0"/>
        <pt x="188" y="269" on="0"/>
        <pt x="191" y="359" on="0"/>
        <pt x="194" y="520" on="0"/>
        <pt x="194" y="754" on="0"/>
        <pt x="193" y="884" on="0"/>
        <pt x="191" y="992" on="0"/>
        <pt x="188" y="1082" on="0"/>
        <pt x="186" y="1159" on="0"/>
        <pt x="183" y="1238" on="0"/>
        <pt x="180" y="1355" on="0"/>
        <pt x="180" y="1486" on="0"/>
        <pt x="255" y="1575" on="0"/>
      </contour>
    </TTGlyph>
    <TTGlyph name="bracketright" xMin="160" yMin="-224" xMax="688" yMax="1575">
      <component glyphName="bracketleft" x="868" y="0" scalex="-1.0" scaley="1.0" flags="0x1004"/>
    </TTGlyph>
    <TTGlyph name="breve" xMin="100" yMin="1246" xMax="744" yMax="1627">
      <contour>
        <pt x="744" y="1555" on="1"/>
        <pt x="744" y="1437" on="0"/>
        <pt x="556" y="1246" on="0"/>
        <pt x="273" y="1246" on="0"/>
        <pt x="100" y="1448" on="0"/>
        <pt x="100" y="1555" on="1"/>
        <pt x="100" y="1589" on="0"/>
        <pt x="141" y="1627" on="0"/>
        <pt x="213" y="1627" on="0"/>
        <pt x="261" y="1581" on="0"/>
        <pt x="261" y="1486" on="0"/>
        <pt x="353" y="1397" on="0"/>
        <pt x="426" y="1397" on="1"/>
        <pt x="535" y="1397" on="0"/>
        <pt x="566" y="1489" on="1"/>
        <pt x="574" y="1515" on="0"/>
        <pt x="574" y="1580" on="0"/>
        <pt x="623" y="1627" on="0"/>
        <pt x="663" y="1627" on="1"/>
        <pt x="744" y="1627" on="0"/>
      </contour>
    </TTGlyph>
    <TTGlyph name="breve.cap" xMin="-62" yMin="1639" xMax="582" yMax="2020">
      <contour>
        <pt x="582" y="1948" on="1"/>
        <pt x="582" y="1830" on="0"/>
        <pt x="394" y="1639" on="0"/>
        <pt x="111" y="1639" on="0"/>
        <pt x="-62" y="1841" on="0"/>
        <pt x="-62" y="1948" on="1"/>
        <pt x="-62" y="1982" on="0"/>
        <pt x="-21" y="2020" on="0"/>
        <pt x="51" y="2020" on="0"/>
        <pt x="99" y="1974" on="0"/>
        <pt x="99" y="1879" on="0"/>
        <pt x="191" y="1790" on="0"/>
        <pt x="264" y="1790" on="1"/>
        <pt x="373" y="1790" on="0"/>
        <pt x="404" y="1882" on="1"/>
        <pt x="412" y="1908" on="0"/>
        <pt x="412" y="1973" on="0"/>
        <pt x="461" y="2020" on="0"/>
        <pt x="501" y="2020" on="1"/>
        <pt x="582" y="2020" on="0"/>
      </contour>
    </TTGlyph>
    <TTGlyph name="brokenbar" xMin="321" yMin="-360" xMax="527" yMax="1594">
      <contour>
        <pt x="527" y="340" on="1"/>
        <pt x="511" y="67" on="1"/>
        <pt x="524" y="-212" on="1"/>
        <pt x="524" y="-360" on="0"/>
        <pt x="324" y="-360" on="0"/>
        <pt x="324" y="-200" on="1"/>
        <pt x="324" y="-166" on="0"/>
        <pt x="327" y="-132" on="1"/>
        <pt x="333" y="-61" on="1"/>
        <pt x="338" y="6" on="0"/>
        <pt x="338" y="54" on="1"/>
        <pt x="321" y="345" on="1"/>
        <pt x="321" y="427" on="0"/>
        <pt x="382" y="494" on="0"/>
        <pt x="424" y="494" on="1"/>
        <pt x="527" y="494" on="0"/>
      </contour>
      <contour>
        <pt x="524" y="888" on="1"/>
        <pt x="524" y="740" on="0"/>
        <pt x="324" y="740" on="0"/>
        <pt x="324" y="900" on="1"/>
        <pt x="324" y="934" on="0"/>
        <pt x="327" y="973" on="1"/>
        <pt x="333" y="1049" on="1"/>
        <pt x="338" y="1116" on="0"/>
        <pt x="338" y="1167" on="1"/>
        <pt x="321" y="1452" on="1"/>
        <pt x="321" y="1563" on="0"/>
        <pt x="388" y="1588" on="1"/>
        <pt x="406" y="1594" on="0"/>
        <pt x="424" y="1594" on="1"/>
        <pt x="493" y="1594" on="0"/>
        <pt x="518" y="1520" on="1"/>
        <pt x="527" y="1491" on="0"/>
        <pt x="527" y="1448" on="1"/>
        <pt x="511" y="1167" on="1"/>
      </contour>
    </TTGlyph>
    <TTGlyph name="bullet" xMin="67" yMin="478" xMax="445" yMax="840">
      <contour>
        <pt x="172" y="478" on="0"/>
        <pt x="67" y="579" on="0"/>
        <pt x="67" y="659" on="1"/>
        <pt x="67" y="784" on="0"/>
        <pt x="177" y="826" on="1"/>
        <pt x="212" y="840" on="0"/>
        <pt x="255" y="840" on="1"/>
        <pt x="339" y="840" on="0"/>
        <pt x="445" y="741" on="0"/>
        <pt x="445" y="583" on="0"/>
        <pt x="337" y="478" on="0"/>
      </contour>
    </TTGlyph>
    <TTGlyph name="c" xMin="119" yMin="-15" xMax="1073" yMax="1108">
      <contour>
        <pt x="967" y="325" on="1"/>
        <pt x="1056" y="325" on="0"/>
        <pt x="1056" y="246" on="1"/>
        <pt x="1056" y="210" on="0"/>
        <pt x="999" y="118" on="0"/>
        <pt x="944" y="78" on="1"/>
        <pt x="816" y="-15" on="0"/>
        <pt x="417" y="-15" on="0"/>
        <pt x="274" y="118" on="1"/>
        <pt x="204" y="184" on="0"/>
        <pt x="119" y="381" on="0"/>
        <pt x="119" y="500" on="1"/>
        <pt x="119" y="729" on="0"/>
        <pt x="425" y="1035" on="0"/>
        <pt x="656" y="1035" on="1"/>
        <pt x="719" y="1035" on="0"/>
        <pt x="783" y="1015" on="1"/>
        <pt x="781" y="1020" on="0"/>
        <pt x="781" y="1024" on="1"/>
        <pt x="781" y="1046" on="1"/>
        <pt x="781" y="1065" on="0"/>
        <pt x="818" y="1108" on="0"/>
        <pt x="847" y="1108" on="1"/>
        <pt x="899" y="1108" on="0"/>
        <pt x="916" y="1056" on="1"/>
        <pt x="928" y="1021" on="1"/>
        <pt x="952" y="958" on="0"/>
        <pt x="1073" y="811" on="0"/>
        <pt x="1073" y="737" on="0"/>
        <pt x="1035" y="695" on="0"/>
        <pt x="1004" y="695" on="1"/>
        <pt x="945" y="695" on="0"/>
        <pt x="881" y="778" on="1"/>
        <pt x="800" y="877" on="0"/>
        <pt x="488" y="877" on="0"/>
        <pt x="293" y="665" on="0"/>
        <pt x="293" y="338" on="0"/>
        <pt x="490" y="143" on="0"/>
        <pt x="636" y="143" on="1"/>
        <pt x="833" y="143" on="0"/>
        <pt x="888" y="261" on="1"/>
        <pt x="923" y="325" on="0"/>
      </contour>
    </TTGlyph>
    <TTGlyph name="cacute" xMin="119" yMin="-15" xMax="1073" yMax="1552">
      <component glyphName="c" x="0" y="0" flags="0x1204"/>
      <component glyphName="acute" x="358" y="-29" flags="0x1004"/>
    </TTGlyph>
    <TTGlyph name="caron" xMin="100" yMin="1176" xMax="744" yMax="1557">
      <contour>
        <pt x="474" y="1191" on="0"/>
        <pt x="443" y="1176" on="0"/>
        <pt x="383" y="1176" on="0"/>
        <pt x="338" y="1226" on="1"/>
        <pt x="250" y="1325" on="0"/>
        <pt x="120" y="1420" on="0"/>
        <pt x="100" y="1466" on="0"/>
        <pt x="100" y="1519" on="0"/>
        <pt x="141" y="1557" on="0"/>
        <pt x="185" y="1557" on="0"/>
        <pt x="220" y="1547" on="0"/>
        <pt x="250" y="1520" on="1"/>
        <pt x="422" y="1349" on="1"/>
        <pt x="602" y="1529" on="0"/>
        <pt x="643" y="1557" on="0"/>
        <pt x="703" y="1557" on="0"/>
        <pt x="744" y="1519" on="0"/>
        <pt x="744" y="1452" on="0"/>
        <pt x="707" y="1407" on="0"/>
        <pt x="596" y="1327" on="0"/>
      </contour>
    </TTGlyph>
    <TTGlyph name="caron.cap" xMin="100" yMin="1639" xMax="744" yMax="2020">
      <contour>
        <pt x="474" y="1654" on="0"/>
        <pt x="443" y="1639" on="0"/>
        <pt x="383" y="1639" on="0"/>
        <pt x="338" y="1689" on="1"/>
        <pt x="250" y="1788" on="0"/>
        <pt x="120" y="1883" on="0"/>
        <pt x="100" y="1929" on="0"/>
        <pt x="100" y="1982" on="0"/>
        <pt x="141" y="2020" on="0"/>
        <pt x="185" y="2020" on="0"/>
        <pt x="220" y="2010" on="0"/>
        <pt x="250" y="1982" on="1"/>
        <pt x="422" y="1812" on="1"/>
        <pt x="602" y="1992" on="0"/>
        <pt x="643" y="2020" on="0"/>
        <pt x="703" y="2020" on="0"/>
        <pt x="744" y="1982" on="0"/>
        <pt x="744" y="1915" on="0"/>
        <pt x="707" y="1870" on="0"/>
        <pt x="596" y="1790" on="0"/>
      </contour>
    </TTGlyph>
    <TTGlyph name="ccaron" xMin="119" yMin="-15" xMax="1073" yMax="1557">
      <component glyphName="c" x="0" y="0" flags="0x1204"/>
      <component glyphName="caron" x="234" y="0" flags="0x1004"/>
    </TTGlyph>
    <TTGlyph name="ccedilla" xMin="119" yMin="-500" xMax="1073" yMax="1108">
      <contour>
        <pt x="514" y="-177" on="1"/>
        <pt x="514" y="-136" on="0"/>
        <pt x="577" y="-13" on="1"/>
        <pt x="385" y="2" on="0"/>
        <pt x="119" y="278" on="0"/>
        <pt x="119" y="729" on="0"/>
        <pt x="425" y="1035" on="0"/>
        <pt x="656" y="1035" on="1"/>
        <pt x="719" y="1035" on="0"/>
        <pt x="783" y="1015" on="1"/>
        <pt x="781" y="1020" on="0"/>
        <pt x="781" y="1024" on="1"/>
        <pt x="781" y="1046" on="1"/>
        <pt x="781" y="1065" on="0"/>
        <pt x="818" y="1108" on="0"/>
        <pt x="847" y="1108" on="1"/>
        <pt x="899" y="1108" on="0"/>
        <pt x="916" y="1056" on="1"/>
        <pt x="928" y="1021" on="1"/>
        <pt x="952" y="958" on="0"/>
        <pt x="1073" y="811" on="0"/>
        <pt x="1073" y="737" on="0"/>
        <pt x="1035" y="695" on="0"/>
        <pt x="1004" y="695" on="1"/>
        <pt x="945" y="695" on="0"/>
        <pt x="881" y="778" on="1"/>
        <pt x="800" y="877" on="0"/>
        <pt x="488" y="877" on="0"/>
        <pt x="293" y="665" on="0"/>
        <pt x="293" y="338" on="0"/>
        <pt x="490" y="143" on="0"/>
        <pt x="636" y="143" on="1"/>
        <pt x="833" y="143" on="0"/>
        <pt x="888" y="261" on="1"/>
        <pt x="923" y="325" on="0"/>
        <pt x="1012" y="325" on="0"/>
        <pt x="1056" y="283" on="0"/>
        <pt x="1056" y="248" on="1"/>
        <pt x="1056" y="168" on="0"/>
        <pt x="852" y="3" on="0"/>
        <pt x="684" y="-12" on="1"/>
        <pt x="670" y="-36" on="0"/>
        <pt x="659" y="-58" on="1"/>
        <pt x="638" y="-102" on="1"/>
        <pt x="866" y="-139" on="0"/>
        <pt x="866" y="-279" on="1"/>
        <pt x="866" y="-378" on="0"/>
        <pt x="679" y="-500" on="0"/>
        <pt x="530" y="-500" on="1"/>
        <pt x="481" y="-500" on="0"/>
        <pt x="441" y="-471" on="0"/>
        <pt x="441" y="-433" on="0"/>
        <pt x="479" y="-415" on="0"/>
        <pt x="546" y="-407" on="1"/>
        <pt x="685" y="-389" on="0"/>
        <pt x="685" y="-299" on="1"/>
        <pt x="685" y="-244" on="0"/>
        <pt x="596" y="-225" on="1"/>
        <pt x="556" y="-216" on="1"/>
        <pt x="525" y="-210" on="0"/>
        <pt x="514" y="-190" on="0"/>
      </contour>
    </TTGlyph>
    <TTGlyph name="ccircumflex" xMin="119" yMin="-15" xMax="1073" yMax="1562">
      <component glyphName="c" x="0" y="0" flags="0x1204"/>
      <component glyphName="circumflex" x="234" y="-29" flags="0x1004"/>
    </TTGlyph>
    <TTGlyph name="cdotaccent" xMin="119" yMin="-15" xMax="1073" yMax="1544">
      <component glyphName="c" x="0" y="0" flags="0x1204"/>
      <component glyphName="dotaccent" x="316" y="145" flags="0x1004"/>
    </TTGlyph>
    <TTGlyph name="cedilla" xMin="100" yMin="-500" xMax="525" yMax="39">
      <contour>
        <pt x="297" y="-102" on="1"/>
        <pt x="525" y="-139" on="0"/>
        <pt x="525" y="-279" on="1"/>
        <pt x="525" y="-378" on="0"/>
        <pt x="338" y="-500" on="0"/>
        <pt x="189" y="-500" on="1"/>
        <pt x="140" y="-500" on="0"/>
        <pt x="100" y="-471" on="0"/>
        <pt x="100" y="-433" on="0"/>
        <pt x="138" y="-415" on="0"/>
        <pt x="205" y="-407" on="1"/>
        <pt x="344" y="-389" on="0"/>
        <pt x="344" y="-299" on="1"/>
        <pt x="344" y="-244" on="0"/>
        <pt x="255" y="-225" on="1"/>
        <pt x="215" y="-216" on="1"/>
        <pt x="184" y="-210" on="0"/>
        <pt x="173" y="-190" on="0"/>
        <pt x="173" y="-178" on="1"/>
        <pt x="173" y="-143" on="0"/>
        <pt x="216" y="-52" on="1"/>
        <pt x="262" y="39" on="1"/>
        <pt x="371" y="34" on="1"/>
        <pt x="330" y="-38" on="1"/>
        <pt x="311" y="-70" on="0"/>
      </contour>
    </TTGlyph>
    <TTGlyph name="cedilla.cap" xMin="100" yMin="-500" xMax="525" yMax="39">
      <contour>
        <pt x="297" y="-102" on="1"/>
        <pt x="525" y="-139" on="0"/>
        <pt x="525" y="-279" on="1"/>
        <pt x="525" y="-378" on="0"/>
        <pt x="338" y="-500" on="0"/>
        <pt x="189" y="-500" on="1"/>
        <pt x="140" y="-500" on="0"/>
        <pt x="100" y="-471" on="0"/>
        <pt x="100" y="-433" on="0"/>
        <pt x="138" y="-415" on="0"/>
        <pt x="205" y="-407" on="1"/>
        <pt x="344" y="-389" on="0"/>
        <pt x="344" y="-299" on="1"/>
        <pt x="344" y="-244" on="0"/>
        <pt x="255" y="-225" on="1"/>
        <pt x="215" y="-216" on="1"/>
        <pt x="184" y="-210" on="0"/>
        <pt x="173" y="-190" on="0"/>
        <pt x="173" y="-178" on="1"/>
        <pt x="173" y="-143" on="0"/>
        <pt x="216" y="-52" on="1"/>
        <pt x="262" y="39" on="1"/>
        <pt x="371" y="34" on="1"/>
        <pt x="330" y="-38" on="1"/>
        <pt x="311" y="-70" on="0"/>
      </contour>
    </TTGlyph>
    <TTGlyph name="cent" xMin="81" yMin="-275" xMax="948" yMax="1382">
      <contour>
        <pt x="597" y="-275" on="0"/>
        <pt x="455" y="-275" on="0"/>
        <pt x="455" y="-168" on="1"/>
        <pt x="455" y="94" on="1"/>
        <pt x="294" y="120" on="0"/>
        <pt x="81" y="355" on="0"/>
        <pt x="81" y="723" on="0"/>
        <pt x="291" y="979" on="0"/>
        <pt x="455" y="1011" on="1"/>
        <pt x="455" y="1278" on="1"/>
        <pt x="455" y="1331" on="0"/>
        <pt x="496" y="1382" on="0"/>
        <pt x="526" y="1382" on="1"/>
        <pt x="597" y="1382" on="0"/>
        <pt x="597" y="1278" on="1"/>
        <pt x="597" y="1018" on="1"/>
        <pt x="657" y="1012" on="0"/>
        <pt x="693" y="999" on="1"/>
        <pt x="696" y="1025" on="0"/>
        <pt x="729" y="1058" on="0"/>
        <pt x="754" y="1058" on="1"/>
        <pt x="798" y="1058" on="0"/>
        <pt x="815" y="1011" on="1"/>
        <pt x="823" y="989" on="0"/>
        <pt x="881" y="897" on="0"/>
        <pt x="913" y="858" on="0"/>
        <pt x="948" y="808" on="0"/>
        <pt x="948" y="748" on="0"/>
        <pt x="913" y="711" on="0"/>
        <pt x="893" y="711" on="1"/>
        <pt x="832" y="711" on="0"/>
        <pt x="783" y="772" on="1"/>
        <pt x="712" y="862" on="0"/>
        <pt x="416" y="862" on="0"/>
        <pt x="256" y="691" on="0"/>
        <pt x="256" y="413" on="0"/>
        <pt x="408" y="246" on="0"/>
        <pt x="719" y="246" on="0"/>
        <pt x="780" y="338" on="1"/>
        <pt x="802" y="371" on="0"/>
        <pt x="837" y="397" on="0"/>
        <pt x="893" y="397" on="0"/>
        <pt x="932" y="358" on="0"/>
        <pt x="932" y="326" on="1"/>
        <pt x="932" y="253" on="0"/>
        <pt x="745" y="104" on="0"/>
        <pt x="597" y="91" on="1"/>
        <pt x="597" y="-168" on="1"/>
      </contour>
    </TTGlyph>
    <TTGlyph name="circumflex" xMin="100" yMin="1210" xMax="744" yMax="1591">
      <contour>
        <pt x="211" y="1217" on="0"/>
        <pt x="185" y="1210" on="0"/>
        <pt x="141" y="1210" on="0"/>
        <pt x="100" y="1248" on="0"/>
        <pt x="100" y="1315" on="0"/>
        <pt x="137" y="1360" on="0"/>
        <pt x="248" y="1440" on="0"/>
        <pt x="370" y="1576" on="0"/>
        <pt x="401" y="1591" on="0"/>
        <pt x="461" y="1591" on="0"/>
        <pt x="506" y="1541" on="1"/>
        <pt x="594" y="1442" on="0"/>
        <pt x="724" y="1347" on="0"/>
        <pt x="744" y="1301" on="0"/>
        <pt x="744" y="1248" on="0"/>
        <pt x="703" y="1210" on="0"/>
        <pt x="658" y="1210" on="0"/>
        <pt x="623" y="1220" on="0"/>
        <pt x="594" y="1248" on="1"/>
        <pt x="422" y="1418" on="1"/>
        <pt x="242" y="1238" on="0"/>
      </contour>
    </TTGlyph>
</ttFont>
